IntelOneMono-MediumItalic.ufo
<glyph name="exclam" format="2">
  <advance width="614"/>
  <unicode hex="0021"/>
  <outline>
    <contour>
      <point x="277" y="258" type="line"/>
      <point x="351" y="258" type="line"/>
      <point x="549" y="710" type="line"/>
      <point x="339" y="710" type="line"/>
    </contour>
    <contour>
      <point x="268" y="135" type="curve" smooth="yes"/>
      <point x="180" y="135"/>
      <point x="150" y="89"/>
      <point x="150" y="40" type="curve" smooth="yes"/>
      <point x="150" y="5"/>
      <point x="176" y="-15"/>
      <point x="238" y="-15" type="curve" smooth="yes"/>
      <point x="326" y="-15"/>
      <point x="356" y="31"/>
      <point x="356" y="80" type="curve" smooth="yes"/>
      <point x="356" y="115"/>
      <point x="329" y="135"/>
    </contour>
  </outline>
</glyph>
<glyph name="dollar" format="2">
  <advance width="614"/>
  <unicode hex="0024"/>
  <outline>
    <contour>
      <point x="202" y="-142" type="line"/>
      <point x="251" y="1" type="line"/>
      <point x="267" y="0"/>
      <point x="284" y="-1"/>
      <point x="302" y="-1" type="curve" smooth="yes"/>
      <point x="452" y="-1"/>
      <point x="539" y="73"/>
      <point x="539" y="188" type="curve" smooth="yes"/>
      <point x="539" y="264"/>
      <point x="513" y="303"/>
      <point x="404" y="362" type="curve" smooth="yes"/>
      <point x="339" y="397" type="line" smooth="yes"/>
      <point x="283" y="427"/>
      <point x="269" y="451"/>
      <point x="269" y="482" type="curve" smooth="yes"/>
      <point x="269" y="530"/>
      <point x="305" y="563"/>
      <point x="392" y="563" type="curve" smooth="yes"/>
      <point x="453" y="563"/>
      <point x="516" y="549"/>
      <point x="592" y="522" type="curve"/>
      <point x="621" y="614" type="line"/>
      <point x="579" y="628"/>
      <point x="541" y="638"/>
      <point x="503" y="645" type="curve"/>
      <point x="555" y="797" type="line"/>
      <point x="478" y="797" type="line"/>
      <point x="430" y="654" type="line"/>
      <point x="418" y="655"/>
      <point x="406" y="655"/>
      <point x="394" y="655" type="curve" smooth="yes"/>
      <point x="237" y="655"/>
      <point x="155" y="573"/>
      <point x="155" y="475" type="curve" smooth="yes"/>
      <point x="155" y="403"/>
      <point x="189" y="357"/>
      <point x="274" y="310" type="curve" smooth="yes"/>
      <point x="340" y="275" type="line" smooth="yes"/>
      <point x="412" y="236"/>
      <point x="424" y="211"/>
      <point x="424" y="178" type="curve" smooth="yes"/>
      <point x="424" y="124"/>
      <point x="385" y="92"/>
      <point x="300" y="92" type="curve" smooth="yes"/>
      <point x="224" y="92"/>
      <point x="142" y="118"/>
      <point x="58" y="153" type="curve"/>
      <point x="23" y="61" type="line"/>
      <point x="74" y="40"/>
      <point x="124" y="22"/>
      <point x="177" y="12" type="curve"/>
      <point x="126" y="-142" type="line"/>
    </contour>
  </outline>
</glyph>
<glyph name="percent" format="2">
  <advance width="614"/>
  <unicode hex="0025"/>
  <outline>
    <contour>
      <point x="228" y="318" type="curve" smooth="yes"/>
      <point x="352" y="318"/>
      <point x="419" y="444"/>
      <point x="419" y="557" type="curve" smooth="yes"/>
      <point x="419" y="629"/>
      <point x="380" y="670"/>
      <point x="299" y="670" type="curve" smooth="yes"/>
      <point x="174" y="670"/>
      <point x="107" y="544"/>
      <point x="107" y="431" type="curve" smooth="yes"/>
      <point x="107" y="359"/>
      <point x="147" y="318"/>
    </contour>
    <contour>
      <point x="443" y="377" type="line"/>
      <point x="718" y="654" type="line"/>
      <point x="719" y="660" type="line"/>
      <point x="601" y="660" type="line"/>
      <point x="398" y="377" type="line"/>
    </contour>
    <contour>
      <point x="293" y="606" type="curve" smooth="yes"/>
      <point x="330" y="606"/>
      <point x="346" y="586"/>
      <point x="346" y="550" type="curve" smooth="yes"/>
      <point x="346" y="481"/>
      <point x="305" y="383"/>
      <point x="233" y="383" type="curve" smooth="yes"/>
      <point x="196" y="383"/>
      <point x="180" y="402"/>
      <point x="180" y="438" type="curve" smooth="yes"/>
      <point x="180" y="507"/>
      <point x="222" y="606"/>
    </contour>
    <contour>
      <point x="369" y="-15" type="curve" smooth="yes"/>
      <point x="493" y="-15"/>
      <point x="560" y="111"/>
      <point x="560" y="224" type="curve" smooth="yes"/>
      <point x="560" y="296"/>
      <point x="521" y="337"/>
      <point x="439" y="337" type="curve" smooth="yes"/>
      <point x="315" y="337"/>
      <point x="248" y="211"/>
      <point x="248" y="98" type="curve" smooth="yes"/>
      <point x="248" y="26"/>
      <point x="287" y="-15"/>
    </contour>
    <contour>
      <point x="224" y="278" type="line"/>
      <point x="-50" y="1" type="line"/>
      <point x="-51" y="-5" type="line"/>
      <point x="66" y="-5" type="line"/>
      <point x="269" y="278" type="line"/>
    </contour>
    <contour>
      <point x="434" y="272" type="curve" smooth="yes"/>
      <point x="471" y="272"/>
      <point x="487" y="253"/>
      <point x="487" y="217" type="curve" smooth="yes"/>
      <point x="487" y="148"/>
      <point x="445" y="49"/>
      <point x="374" y="49" type="curve" smooth="yes"/>
      <point x="337" y="49"/>
      <point x="321" y="69"/>
      <point x="321" y="105" type="curve" smooth="yes"/>
      <point x="321" y="174"/>
      <point x="362" y="272"/>
    </contour>
  </outline>
</glyph>
<glyph name="ampersand" format="2">
  <advance width="614"/>
  <unicode hex="0026"/>
  <outline>
    <contour>
      <point x="76" y="286" type="curve" smooth="yes"/>
      <point x="35" y="245"/>
      <point x="23" y="195"/>
      <point x="23" y="132" type="curve" smooth="yes"/>
      <point x="23" y="44"/>
      <point x="76" y="-11"/>
      <point x="172" y="-11" type="curve" smooth="yes"/>
      <point x="245" y="-11"/>
      <point x="292" y="11"/>
      <point x="369" y="99" type="curve"/>
      <point x="406" y="-1" type="line"/>
      <point x="519" y="-1" type="line"/>
      <point x="446" y="183" type="line"/>
      <point x="595" y="376" type="line"/>
      <point x="523" y="428" type="line"/>
      <point x="407" y="269" type="line"/>
      <point x="344" y="435" type="line" smooth="yes"/>
      <point x="333" y="462"/>
      <point x="330" y="479"/>
      <point x="330" y="495" type="curve" smooth="yes"/>
      <point x="330" y="547"/>
      <point x="370" y="581"/>
      <point x="430" y="581" type="curve" smooth="yes"/>
      <point x="462" y="581"/>
      <point x="498" y="578"/>
      <point x="560" y="566" type="curve"/>
      <point x="581" y="652" type="line"/>
      <point x="503" y="666"/>
      <point x="458" y="669"/>
      <point x="418" y="669" type="curve" smooth="yes"/>
      <point x="300" y="669"/>
      <point x="222" y="596"/>
      <point x="222" y="498" type="curve" smooth="yes"/>
      <point x="222" y="463"/>
      <point x="231" y="434"/>
      <point x="254" y="373" type="curve"/>
      <point x="256" y="367" type="line"/>
      <point x="147" y="338"/>
      <point x="105" y="315"/>
    </contour>
    <contour>
      <point x="132" y="150" type="curve" smooth="yes"/>
      <point x="132" y="186"/>
      <point x="140" y="217"/>
      <point x="161" y="238" type="curve" smooth="yes"/>
      <point x="181" y="258"/>
      <point x="199" y="269"/>
      <point x="284" y="297" type="curve"/>
      <point x="332" y="176" type="line"/>
      <point x="275" y="100"/>
      <point x="247" y="83"/>
      <point x="199" y="83" type="curve" smooth="yes"/>
      <point x="157" y="83"/>
      <point x="132" y="105"/>
    </contour>
  </outline>
</glyph>
<glyph name="quotesingle" format="2">
  <advance width="614"/>
  <unicode hex="0027"/>
  <outline>
    <contour>
      <point x="284" y="385" type="line"/>
      <point x="398" y="385" type="line"/>
      <point x="510" y="710" type="line"/>
      <point x="359" y="710" type="line"/>
    </contour>
  </outline>
</glyph>
<glyph name="parenleft" format="2">
  <advance width="614"/>
  <unicode hex="0028"/>
  <outline>
    <contour>
      <point x="121" y="232" type="curve" smooth="yes"/>
      <point x="121" y="90"/>
      <point x="206" y="-37"/>
      <point x="380" y="-149" type="curve"/>
      <point x="449" y="-76" type="line"/>
      <point x="293" y="24"/>
      <point x="235" y="134"/>
      <point x="235" y="232" type="curve" smooth="yes"/>
      <point x="235" y="391"/>
      <point x="326" y="557"/>
      <point x="681" y="731" type="curve"/>
      <point x="626" y="807" type="line"/>
      <point x="283" y="647"/>
      <point x="121" y="447"/>
    </contour>
  </outline>
</glyph>
<glyph name="parenright" format="2">
  <advance width="614"/>
  <unicode hex="0029"/>
  <outline>
    <contour>
      <point x="548" y="426" type="curve" smooth="yes"/>
      <point x="548" y="568"/>
      <point x="462" y="695"/>
      <point x="288" y="807" type="curve"/>
      <point x="220" y="734" type="line"/>
      <point x="376" y="634"/>
      <point x="434" y="524"/>
      <point x="434" y="426" type="curve" smooth="yes"/>
      <point x="434" y="267"/>
      <point x="342" y="101"/>
      <point x="-12" y="-73" type="curve"/>
      <point x="42" y="-149" type="line"/>
      <point x="386" y="11"/>
      <point x="548" y="211"/>
    </contour>
  </outline>
</glyph>
<glyph name="asterisk" format="2">
  <advance width="614"/>
  <unicode hex="002A"/>
  <outline>
    <contour>
      <point x="103" y="231" type="curve"/>
      <point x="168" y="157" type="line"/>
      <point x="227" y="207"/>
      <point x="273" y="286"/>
      <point x="344" y="350" type="curve"/>
      <point x="376" y="287"/>
      <point x="373" y="206"/>
      <point x="402" y="157" type="curve"/>
      <point x="509" y="226" type="line"/>
      <point x="481" y="276"/>
      <point x="416" y="311"/>
      <point x="377" y="370" type="curve"/>
      <point x="461" y="393"/>
      <point x="540" y="387"/>
      <point x="608" y="409" type="curve"/>
      <point x="592" y="515" type="line"/>
      <point x="527" y="494"/>
      <point x="457" y="437"/>
      <point x="376" y="407" type="curve"/>
      <point x="402" y="488"/>
      <point x="458" y="564"/>
      <point x="477" y="630" type="curve"/>
      <point x="364" y="630" type="line"/>
      <point x="345" y="564"/>
      <point x="359" y="489"/>
      <point x="337" y="406" type="curve"/>
      <point x="271" y="436"/>
      <point x="230" y="495"/>
      <point x="175" y="516" type="curve"/>
      <point x="108" y="411" type="line"/>
      <point x="163" y="389"/>
      <point x="248" y="399"/>
      <point x="318" y="376" type="curve"/>
      <point x="244" y="315"/>
      <point x="160" y="281"/>
    </contour>
  </outline>
</glyph>
<glyph name="comma" format="2">
  <advance width="614"/>
  <unicode hex="002C"/>
  <outline>
    <contour>
      <point x="4" y="-161" type="line"/>
      <point x="116" y="-161" type="line"/>
      <point x="290" y="-59"/>
      <point x="320" y="-17"/>
      <point x="389" y="145" type="curve"/>
      <point x="217" y="145" type="line"/>
      <point x="171" y="1"/>
      <point x="150" y="-26"/>
      <point x="4" y="-159" type="curve"/>
    </contour>
  </outline>
</glyph>
<glyph name="period" format="2">
  <advance width="614"/>
  <unicode hex="002E"/>
  <outline>
    <contour>
      <point x="253" y="-15" type="curve" smooth="yes"/>
      <point x="337" y="-15"/>
      <point x="373" y="39"/>
      <point x="373" y="101" type="curve" smooth="yes"/>
      <point x="373" y="147"/>
      <point x="340" y="172"/>
      <point x="274" y="172" type="curve" smooth="yes"/>
      <point x="190" y="172"/>
      <point x="155" y="114"/>
      <point x="155" y="57" type="curve" smooth="yes"/>
      <point x="155" y="10"/>
      <point x="188" y="-15"/>
    </contour>
  </outline>
</glyph>
<glyph name="zero" format="2">
  <advance width="614"/>
  <unicode hex="0030"/>
  <outline>
    <contour>
      <point x="410" y="670" type="curve" smooth="yes"/>
      <point x="336" y="670"/>
      <point x="274" y="641"/>
      <point x="227" y="594" type="curve" smooth="yes"/>
      <point x="139" y="506"/>
      <point x="64" y="322"/>
      <point x="64" y="169" type="curve" smooth="yes"/>
      <point x="64" y="45"/>
      <point x="132" y="-15"/>
      <point x="255" y="-15" type="curve" smooth="yes"/>
      <point x="329" y="-15"/>
      <point x="392" y="14"/>
      <point x="438" y="61" type="curve" smooth="yes"/>
      <point x="527" y="149"/>
      <point x="601" y="333"/>
      <point x="601" y="486" type="curve" smooth="yes"/>
      <point x="601" y="610"/>
      <point x="533" y="670"/>
    </contour>
    <contour>
      <point x="298" y="528" type="curve" smooth="yes"/>
      <point x="328" y="557"/>
      <point x="363" y="573"/>
      <point x="404" y="573" type="curve" smooth="yes"/>
      <point x="460" y="573"/>
      <point x="493" y="544"/>
      <point x="493" y="471" type="curve" smooth="yes"/>
      <point x="493" y="465"/>
      <point x="493" y="464"/>
      <point x="493" y="463" type="curve"/>
      <point x="184" y="280" type="line"/>
      <point x="203" y="372"/>
      <point x="246" y="476"/>
    </contour>
    <contour>
      <point x="262" y="82" type="curve" smooth="yes"/>
      <point x="204" y="82"/>
      <point x="172" y="111"/>
      <point x="172" y="184" type="curve" smooth="yes"/>
      <point x="172" y="189"/>
      <point x="172" y="190"/>
      <point x="172" y="191" type="curve"/>
      <point x="481" y="374" type="line"/>
      <point x="461" y="282"/>
      <point x="418" y="178"/>
      <point x="367" y="127" type="curve" smooth="yes"/>
      <point x="337" y="98"/>
      <point x="303" y="82"/>
    </contour>
  </outline>
</glyph>
<glyph name="two" format="2">
  <advance width="614"/>
  <unicode hex="0032"/>
  <outline>
    <contour>
      <point x="10" y="0" type="line"/>
      <point x="484" y="0" type="line"/>
      <point x="511" y="94" type="line"/>
      <point x="192" y="94" type="line"/>
      <point x="192" y="97" type="line"/>
      <point x="413" y="267" type="line" smooth="yes"/>
      <point x="585" y="398"/>
      <point x="608" y="458"/>
      <point x="608" y="519" type="curve" smooth="yes"/>
      <point x="608" y="611"/>
      <point x="528" y="670"/>
      <point x="431" y="670" type="curve" smooth="yes"/>
      <point x="342" y="670"/>
      <point x="269" y="638"/>
      <point x="141" y="538" type="curve"/>
      <point x="194" y="462" type="line"/>
      <point x="325" y="558"/>
      <point x="368" y="573"/>
      <point x="417" y="573" type="curve" smooth="yes"/>
      <point x="462" y="573"/>
      <point x="490" y="548"/>
      <point x="490" y="510" type="curve" smooth="yes"/>
      <point x="490" y="463"/>
      <point x="455" y="420"/>
      <point x="314" y="304" type="curve" smooth="yes"/>
      <point x="10" y="57" type="line"/>
    </contour>
  </outline>
</glyph>
<glyph name="three" format="2">
  <advance width="614"/>
  <unicode hex="0033"/>
  <outline>
    <contour>
      <point x="162" y="561" type="line"/>
      <point x="451" y="561" type="line"/>
      <point x="451" y="559" type="line"/>
      <point x="206" y="355" type="line"/>
      <point x="210" y="303" type="line"/>
      <point x="392" y="301"/>
      <point x="420" y="276"/>
      <point x="420" y="225" type="curve" smooth="yes"/>
      <point x="420" y="168"/>
      <point x="360" y="114"/>
      <point x="158" y="100" type="curve" smooth="yes"/>
      <point x="38" y="92" type="line"/>
      <point x="19" y="-10" type="line"/>
      <point x="168" y="-1" type="line" smooth="yes"/>
      <point x="436" y="16"/>
      <point x="539" y="104"/>
      <point x="539" y="238" type="curve" smooth="yes"/>
      <point x="539" y="321"/>
      <point x="490" y="369"/>
      <point x="367" y="382" type="curve"/>
      <point x="367" y="385" type="line"/>
      <point x="623" y="598" type="line"/>
      <point x="623" y="655" type="line"/>
      <point x="189" y="655" type="line"/>
    </contour>
  </outline>
</glyph>
<glyph name="five" format="2">
  <advance width="614"/>
  <unicode hex="0035"/>
  <outline>
    <contour>
      <point x="545" y="278" type="curve" smooth="yes"/>
      <point x="545" y="372"/>
      <point x="479" y="422"/>
      <point x="382" y="422" type="curve" smooth="yes"/>
      <point x="336" y="422"/>
      <point x="292" y="413"/>
      <point x="242" y="389" type="curve"/>
      <point x="305" y="561" type="line"/>
      <point x="590" y="561" type="line"/>
      <point x="618" y="655" type="line"/>
      <point x="238" y="655" type="line"/>
      <point x="115" y="307" type="line"/>
      <point x="116" y="302" type="line"/>
      <point x="191" y="288" type="line"/>
      <point x="251" y="319"/>
      <point x="300" y="335"/>
      <point x="339" y="335" type="curve" smooth="yes"/>
      <point x="398" y="335"/>
      <point x="428" y="307"/>
      <point x="428" y="263" type="curve" smooth="yes"/>
      <point x="428" y="195"/>
      <point x="366" y="118"/>
      <point x="156" y="99" type="curve" smooth="yes"/>
      <point x="34" y="88" type="line"/>
      <point x="17" y="-10" type="line"/>
      <point x="146" y="1" type="line" smooth="yes"/>
      <point x="447" y="26"/>
      <point x="545" y="136"/>
    </contour>
  </outline>
</glyph>
<glyph name="six" format="2">
  <advance width="614"/>
  <unicode hex="0036"/>
  <outline>
    <contour>
      <point x="427" y="526" type="curve" smooth="yes"/>
      <point x="591" y="653" type="line"/>
      <point x="591" y="655" type="line"/>
      <point x="444" y="655" type="line"/>
      <point x="319" y="557" type="line" smooth="yes"/>
      <point x="119" y="398"/>
      <point x="60" y="288"/>
      <point x="60" y="171" type="curve" smooth="yes"/>
      <point x="60" y="56"/>
      <point x="135" y="-15"/>
      <point x="265" y="-15" type="curve" smooth="yes"/>
      <point x="432" y="-15"/>
      <point x="549" y="116"/>
      <point x="549" y="248" type="curve" smooth="yes"/>
      <point x="549" y="346"/>
      <point x="496" y="407"/>
      <point x="323" y="439" type="curve"/>
      <point x="352" y="466"/>
      <point x="387" y="495"/>
    </contour>
    <contour>
      <point x="173" y="182" type="curve" smooth="yes"/>
      <point x="173" y="237"/>
      <point x="193" y="297"/>
      <point x="259" y="373" type="curve"/>
      <point x="396" y="351"/>
      <point x="434" y="312"/>
      <point x="434" y="241" type="curve" smooth="yes"/>
      <point x="434" y="161"/>
      <point x="367" y="77"/>
      <point x="272" y="77" type="curve" smooth="yes"/>
      <point x="212" y="77"/>
      <point x="173" y="113"/>
    </contour>
  </outline>
</glyph>
<glyph name="eight" format="2">
  <advance width="614"/>
  <unicode hex="0038"/>
  <outline>
    <contour>
      <point x="273" y="-15" type="curve" smooth="yes"/>
      <point x="418" y="-15"/>
      <point x="531" y="70"/>
      <point x="531" y="189" type="curve" smooth="yes"/>
      <point x="531" y="249"/>
      <point x="494" y="298"/>
      <point x="432" y="325" type="curve"/>
      <point x="432" y="330" type="line"/>
      <point x="541" y="349"/>
      <point x="603" y="421"/>
      <point x="603" y="510" type="curve" smooth="yes"/>
      <point x="603" y="602"/>
      <point x="528" y="670"/>
      <point x="392" y="670" type="curve" smooth="yes"/>
      <point x="246" y="670"/>
      <point x="159" y="570"/>
      <point x="159" y="475" type="curve" smooth="yes"/>
      <point x="159" y="419"/>
      <point x="191" y="375"/>
      <point x="246" y="350" type="curve"/>
      <point x="246" y="345" type="line"/>
      <point x="122" y="326"/>
      <point x="47" y="248"/>
      <point x="47" y="153" type="curve" smooth="yes"/>
      <point x="47" y="48"/>
      <point x="139" y="-15"/>
    </contour>
    <contour>
      <point x="262" y="455" type="curve" smooth="yes"/>
      <point x="262" y="526"/>
      <point x="320" y="582"/>
      <point x="394" y="582" type="curve" smooth="yes"/>
      <point x="457" y="582"/>
      <point x="493" y="550"/>
      <point x="493" y="500" type="curve" smooth="yes"/>
      <point x="493" y="433"/>
      <point x="432" y="373"/>
      <point x="357" y="373" type="curve" smooth="yes"/>
      <point x="299" y="373"/>
      <point x="262" y="405"/>
    </contour>
    <contour>
      <point x="159" y="163" type="curve" smooth="yes"/>
      <point x="159" y="236"/>
      <point x="222" y="298"/>
      <point x="311" y="298" type="curve" smooth="yes"/>
      <point x="382" y="298"/>
      <point x="425" y="261"/>
      <point x="425" y="209" type="curve" smooth="yes"/>
      <point x="425" y="131"/>
      <point x="358" y="72"/>
      <point x="272" y="72" type="curve" smooth="yes"/>
      <point x="204" y="72"/>
      <point x="159" y="105"/>
    </contour>
  </outline>
</glyph>
<glyph name="nine" format="2">
  <advance width="614"/>
  <unicode hex="0039"/>
  <outline>
    <contour>
      <point x="244" y="128" type="curve" smooth="yes"/>
      <point x="80" y="2" type="line"/>
      <point x="80" y="0" type="line"/>
      <point x="227" y="0" type="line"/>
      <point x="352" y="98" type="line" smooth="yes"/>
      <point x="552" y="256"/>
      <point x="612" y="366"/>
      <point x="612" y="483" type="curve" smooth="yes"/>
      <point x="612" y="599"/>
      <point x="536" y="670"/>
      <point x="407" y="670" type="curve" smooth="yes"/>
      <point x="239" y="670"/>
      <point x="122" y="538"/>
      <point x="122" y="407" type="curve" smooth="yes"/>
      <point x="122" y="309"/>
      <point x="175" y="248"/>
      <point x="348" y="216" type="curve"/>
      <point x="319" y="189"/>
      <point x="285" y="160"/>
    </contour>
    <contour>
      <point x="237" y="414" type="curve" smooth="yes"/>
      <point x="237" y="493"/>
      <point x="305" y="578"/>
      <point x="399" y="578" type="curve" smooth="yes"/>
      <point x="459" y="578"/>
      <point x="498" y="542"/>
      <point x="498" y="472" type="curve" smooth="yes"/>
      <point x="498" y="417"/>
      <point x="478" y="358"/>
      <point x="412" y="281" type="curve"/>
      <point x="275" y="305"/>
      <point x="237" y="343"/>
    </contour>
  </outline>
</glyph>
<glyph name="colon" format="2">
  <advance width="614"/>
  <unicode hex="003A"/>
  <outline>
    <contour>
      <point x="337" y="308" type="curve" smooth="yes"/>
      <point x="415" y="308"/>
      <point x="462" y="357"/>
      <point x="462" y="419" type="curve" smooth="yes"/>
      <point x="462" y="462"/>
      <point x="430" y="484"/>
      <point x="369" y="484" type="curve" smooth="yes"/>
      <point x="291" y="484"/>
      <point x="245" y="434"/>
      <point x="245" y="374" type="curve" smooth="yes"/>
      <point x="245" y="330"/>
      <point x="279" y="308"/>
    </contour>
    <contour>
      <point x="245" y="-15" type="curve" smooth="yes"/>
      <point x="323" y="-15"/>
      <point x="370" y="34"/>
      <point x="370" y="96" type="curve" smooth="yes"/>
      <point x="370" y="138"/>
      <point x="338" y="160"/>
      <point x="277" y="160" type="curve" smooth="yes"/>
      <point x="201" y="160"/>
      <point x="153" y="112"/>
      <point x="153" y="50" type="curve" smooth="yes"/>
      <point x="153" y="6"/>
      <point x="187" y="-15"/>
    </contour>
  </outline>
</glyph>
<glyph name="semicolon" format="2">
  <advance width="614"/>
  <unicode hex="003B"/>
  <outline>
    <contour>
      <point x="351" y="308" type="curve" smooth="yes"/>
      <point x="429" y="308"/>
      <point x="475" y="357"/>
      <point x="475" y="419" type="curve" smooth="yes"/>
      <point x="475" y="462"/>
      <point x="444" y="484"/>
      <point x="382" y="484" type="curve" smooth="yes"/>
      <point x="304" y="484"/>
      <point x="258" y="434"/>
      <point x="258" y="374" type="curve" smooth="yes"/>
      <point x="258" y="330"/>
      <point x="292" y="308"/>
    </contour>
    <contour>
      <point x="-6" y="-161" type="line"/>
      <point x="105" y="-161" type="line"/>
      <point x="272" y="-53"/>
      <point x="304" y="-13"/>
      <point x="379" y="145" type="curve"/>
      <point x="207" y="145" type="line"/>
      <point x="155" y="5"/>
      <point x="134" y="-22"/>
      <point x="-6" y="-159" type="curve"/>
    </contour>
  </outline>
</glyph>
<glyph name="question" format="2">
  <advance width="614"/>
  <unicode hex="003F"/>
  <outline>
    <contour>
      <point x="292" y="258" type="line"/>
      <point x="318" y="320"/>
      <point x="326" y="328"/>
      <point x="358" y="340" type="curve" smooth="yes"/>
      <point x="454" y="379" type="line" smooth="yes"/>
      <point x="599" y="438"/>
      <point x="637" y="493"/>
      <point x="637" y="580" type="curve" smooth="yes"/>
      <point x="637" y="669"/>
      <point x="573" y="725"/>
      <point x="459" y="725" type="curve" smooth="yes"/>
      <point x="379" y="725"/>
      <point x="303" y="709"/>
      <point x="161" y="646" type="curve"/>
      <point x="191" y="558" type="line"/>
      <point x="338" y="620"/>
      <point x="387" y="631"/>
      <point x="436" y="631" type="curve" smooth="yes"/>
      <point x="487" y="631"/>
      <point x="518" y="608"/>
      <point x="518" y="566" type="curve" smooth="yes"/>
      <point x="518" y="527"/>
      <point x="501" y="497"/>
      <point x="402" y="458" type="curve" smooth="yes"/>
      <point x="304" y="419" type="line" smooth="yes"/>
      <point x="253" y="398"/>
      <point x="237" y="384"/>
      <point x="230" y="359" type="curve" smooth="yes"/>
      <point x="225" y="342"/>
      <point x="222" y="319"/>
      <point x="218" y="258" type="curve"/>
    </contour>
    <contour>
      <point x="212" y="135" type="curve" smooth="yes"/>
      <point x="125" y="135"/>
      <point x="95" y="89"/>
      <point x="95" y="40" type="curve" smooth="yes"/>
      <point x="95" y="5"/>
      <point x="121" y="-15"/>
      <point x="183" y="-15" type="curve" smooth="yes"/>
      <point x="270" y="-15"/>
      <point x="301" y="31"/>
      <point x="301" y="80" type="curve" smooth="yes"/>
      <point x="301" y="115"/>
      <point x="274" y="135"/>
    </contour>
  </outline>
</glyph>
<glyph name="at" format="2">
  <advance width="614"/>
  <unicode hex="0040"/>
  <guideline x="396" y="-28" angle="93.35444357690159" identifier="3whqXdGgid"/>
  <outline>
    <contour>
      <point x="413" y="-62" type="curve"/>
      <point x="405" y="-11" type="line"/>
      <point x="346" y="-24"/>
      <point x="304" y="-28"/>
      <point x="271" y="-28" type="curve" smooth="yes"/>
      <point x="164" y="-28"/>
      <point x="105" y="16"/>
      <point x="105" y="133" type="curve" smooth="yes"/>
      <point x="105" y="258"/>
      <point x="187" y="511"/>
      <point x="274" y="598" type="curve" smooth="yes"/>
      <point x="331" y="655"/>
      <point x="387" y="674"/>
      <point x="451" y="674" type="curve" smooth="yes"/>
      <point x="536" y="674"/>
      <point x="577" y="648"/>
      <point x="577" y="564" type="curve" smooth="yes"/>
      <point x="577" y="551"/>
      <point x="576" y="534"/>
      <point x="573" y="515" type="curve"/>
      <point x="472" y="515" type="line" smooth="yes"/>
      <point x="399" y="515"/>
      <point x="344" y="499"/>
      <point x="303" y="457" type="curve" smooth="yes"/>
      <point x="255" y="409"/>
      <point x="225" y="314"/>
      <point x="225" y="248" type="curve" smooth="yes"/>
      <point x="225" y="167"/>
      <point x="274" y="129"/>
      <point x="370" y="129" type="curve" smooth="yes"/>
      <point x="426" y="129"/>
      <point x="472" y="142"/>
      <point x="514" y="184" type="curve" smooth="yes"/>
      <point x="582" y="252"/>
      <point x="633" y="478"/>
      <point x="633" y="574" type="curve" smooth="yes"/>
      <point x="633" y="695"/>
      <point x="569" y="725"/>
      <point x="454" y="725" type="curve" smooth="yes"/>
      <point x="374" y="725"/>
      <point x="303" y="702"/>
      <point x="241" y="641" type="curve" smooth="yes"/>
      <point x="137" y="536"/>
      <point x="48" y="270"/>
      <point x="48" y="120" type="curve" smooth="yes"/>
      <point x="48" y="-23"/>
      <point x="122" y="-79"/>
      <point x="262" y="-79" type="curve" smooth="yes"/>
      <point x="309" y="-79"/>
      <point x="352" y="-74"/>
    </contour>
    <contour>
      <point x="360" y="410" type="curve" smooth="yes"/>
      <point x="383" y="433"/>
      <point x="412" y="444"/>
      <point x="447" y="444" type="curve" smooth="yes"/>
      <point x="560" y="444" type="line"/>
      <point x="542" y="362"/>
      <point x="510" y="269"/>
      <point x="477" y="236" type="curve" smooth="yes"/>
      <point x="449" y="209"/>
      <point x="416" y="200"/>
      <point x="375" y="200" type="curve" smooth="yes"/>
      <point x="329" y="200"/>
      <point x="304" y="214"/>
      <point x="304" y="260" type="curve" smooth="yes"/>
      <point x="304" y="309"/>
      <point x="326" y="376"/>
    </contour>
  </outline>
</glyph>
<glyph name="A" format="2">
  <advance width="614"/>
  <unicode hex="0041"/>
  <anchor x="426" y="691" name="aboveUC"/>
  <anchor x="414" y="651" name="aboveUCx"/>
  <anchor x="452" y="-10" name="belowogonek"/>
  <anchor x="267" y="-33" name="below"/>
  <anchor x="277" y="0" name="belowx"/>
  <outline>
    <contour>
      <point x="87" y="0" type="line"/>
      <point x="178" y="155" type="line"/>
      <point x="402" y="155" type="line"/>
      <point x="404" y="0" type="line"/>
      <point x="513" y="0" type="line"/>
      <point x="496" y="655" type="line"/>
      <point x="358" y="655" type="line"/>
      <point x="-32" y="0" type="line"/>
    </contour>
    <contour>
      <point x="228" y="244" type="line"/>
      <point x="400" y="545" type="line"/>
      <point x="404" y="244" type="line"/>
    </contour>
  </outline>
</glyph>
<glyph name="B" format="2">
  <advance width="614"/>
  <unicode hex="0042"/>
  <anchor x="239" y="-35" name="below"/>
  <outline>
    <contour>
      <point x="206" y="655" type="line"/>
      <point x="18" y="0" type="line"/>
      <point x="270" y="0" type="line" smooth="yes"/>
      <point x="482" y="0"/>
      <point x="556" y="88"/>
      <point x="556" y="196" type="curve" smooth="yes"/>
      <point x="556" y="263"/>
      <point x="513" y="313"/>
      <point x="431" y="331" type="curve"/>
      <point x="431" y="335" type="line"/>
      <point x="574" y="364"/>
      <point x="631" y="437"/>
      <point x="631" y="525" type="curve" smooth="yes"/>
      <point x="631" y="601"/>
      <point x="575" y="655"/>
      <point x="458" y="655" type="curve" smooth="yes"/>
    </contour>
    <contour>
      <point x="420" y="568" type="line" smooth="yes"/>
      <point x="482" y="568"/>
      <point x="510" y="544"/>
      <point x="510" y="501" type="curve" smooth="yes"/>
      <point x="510" y="439"/>
      <point x="458" y="386"/>
      <point x="334" y="379" type="curve" smooth="yes"/>
      <point x="236" y="374" type="line"/>
      <point x="292" y="568" type="line"/>
    </contour>
    <contour>
      <point x="313" y="291" type="line" smooth="yes"/>
      <point x="407" y="286"/>
      <point x="443" y="253"/>
      <point x="443" y="202" type="curve" smooth="yes"/>
      <point x="443" y="139"/>
      <point x="396" y="86"/>
      <point x="290" y="86" type="curve" smooth="yes"/>
      <point x="154" y="86" type="line"/>
      <point x="214" y="296" type="line"/>
    </contour>
  </outline>
</glyph>
<glyph name="C" format="2">
  <advance width="614"/>
  <unicode hex="0043"/>
  <anchor x="468" y="694" name="aboveUC"/>
  <anchor x="458" y="659" name="aboveUCx"/>
  <anchor x="267" y="-40" name="below"/>
  <anchor x="265" y="-15" name="belowcedilla"/>
  <outline>
    <contour>
      <point x="276" y="-15" type="curve" smooth="yes"/>
      <point x="353" y="-15"/>
      <point x="427" y="6"/>
      <point x="528" y="68" type="curve"/>
      <point x="480" y="150" type="line"/>
      <point x="388" y="96"/>
      <point x="337" y="79"/>
      <point x="285" y="79" type="curve" smooth="yes"/>
      <point x="227" y="79"/>
      <point x="179" y="121"/>
      <point x="179" y="214" type="curve" smooth="yes"/>
      <point x="179" y="404"/>
      <point x="303" y="576"/>
      <point x="445" y="576" type="curve" smooth="yes"/>
      <point x="496" y="576"/>
      <point x="531" y="565"/>
      <point x="599" y="505" type="curve"/>
      <point x="662" y="587" type="line"/>
      <point x="588" y="651"/>
      <point x="530" y="670"/>
      <point x="452" y="670" type="curve" smooth="yes"/>
      <point x="210" y="670"/>
      <point x="63" y="432"/>
      <point x="63" y="209" type="curve" smooth="yes"/>
      <point x="63" y="61"/>
      <point x="139" y="-15"/>
    </contour>
  </outline>
</glyph>
<glyph name="D" format="2">
  <advance width="614"/>
  <unicode hex="0044"/>
  <anchor x="409" y="691" name="aboveUC"/>
  <anchor x="203" y="-35" name="below"/>
  <outline>
    <contour>
      <point x="205" y="655" type="line"/>
      <point x="17" y="0" type="line"/>
      <point x="92" y="0" type="line" smooth="yes"/>
      <point x="280" y="0"/>
      <point x="411" y="51"/>
      <point x="496" y="136" type="curve" smooth="yes"/>
      <point x="573" y="212"/>
      <point x="611" y="312"/>
      <point x="611" y="425" type="curve" smooth="yes"/>
      <point x="611" y="492"/>
      <point x="591" y="545"/>
      <point x="553" y="583" type="curve" smooth="yes"/>
      <point x="507" y="629"/>
      <point x="433" y="655"/>
      <point x="298" y="655" type="curve" smooth="yes"/>
    </contour>
    <contour>
      <point x="495" y="423" type="curve" smooth="yes"/>
      <point x="495" y="252"/>
      <point x="371" y="108"/>
      <point x="157" y="95" type="curve"/>
      <point x="291" y="563" type="line"/>
      <point x="297" y="563" type="line" smooth="yes"/>
      <point x="446" y="563"/>
      <point x="495" y="520"/>
    </contour>
  </outline>
</glyph>
<glyph name="G" format="2">
  <advance width="614"/>
  <unicode hex="0047"/>
  <anchor x="470" y="693" name="aboveUC"/>
  <anchor x="460" y="658" name="aboveUCx"/>
  <anchor x="292" y="-40" name="below"/>
  <outline>
    <contour>
      <point x="614" y="559" type="curve"/>
      <point x="634" y="653" type="line"/>
      <point x="583" y="661"/>
      <point x="544" y="665"/>
      <point x="503" y="665" type="curve" smooth="yes"/>
      <point x="213" y="665"/>
      <point x="57" y="458"/>
      <point x="57" y="223" type="curve" smooth="yes"/>
      <point x="57" y="70"/>
      <point x="138" y="-15"/>
      <point x="309" y="-15" type="curve" smooth="yes"/>
      <point x="365" y="-15"/>
      <point x="419" y="-9"/>
      <point x="487" y="9" type="curve"/>
      <point x="593" y="362" type="line"/>
      <point x="348" y="362" type="line"/>
      <point x="323" y="274" type="line"/>
      <point x="460" y="274" type="line"/>
      <point x="403" y="86" type="line"/>
      <point x="375" y="81"/>
      <point x="349" y="79"/>
      <point x="328" y="79" type="curve" smooth="yes"/>
      <point x="220" y="79"/>
      <point x="173" y="126"/>
      <point x="173" y="223" type="curve" smooth="yes"/>
      <point x="173" y="418"/>
      <point x="289" y="570"/>
      <point x="505" y="570" type="curve" smooth="yes"/>
      <point x="542" y="570"/>
      <point x="575" y="567"/>
    </contour>
  </outline>
</glyph>
<glyph name="H" format="2">
  <advance width="614"/>
  <unicode hex="0048"/>
  <anchor x="437" y="691" name="aboveUC"/>
  <anchor x="230" y="-35" name="below"/>
  <anchor x="70" y="-10" name="belowcedilla"/>
  <anchor x="240" y="0" name="belowx"/>
  <anchor x="427" y="656" name="aboveUCx"/>
  <outline>
    <contour>
      <point x="205" y="655" type="line"/>
      <point x="17" y="0" type="line"/>
      <point x="130" y="0" type="line"/>
      <point x="211" y="283" type="line"/>
      <point x="431" y="283" type="line"/>
      <point x="350" y="0" type="line"/>
      <point x="462" y="0" type="line"/>
      <point x="650" y="655" type="line"/>
      <point x="538" y="655" type="line"/>
      <point x="458" y="377" type="line"/>
      <point x="238" y="377" type="line"/>
      <point x="317" y="655" type="line"/>
    </contour>
  </outline>
</glyph>
<glyph name="I" format="2">
  <advance width="614"/>
  <unicode hex="0049"/>
  <anchor x="230" y="-35" name="below"/>
  <anchor x="237" y="-10" name="belowogonek"/>
  <anchor x="438" y="691" name="aboveUC"/>
  <anchor x="429" y="661" name="aboveUCx"/>
  <outline>
    <contour>
      <point x="75" y="59" type="line"/>
      <point x="58" y="0" type="line"/>
      <point x="426" y="0" type="line"/>
      <point x="443" y="59" type="line"/>
      <point x="314" y="82" type="line"/>
      <point x="465" y="570" type="line"/>
      <point x="593" y="596" type="line"/>
      <point x="610" y="655" type="line"/>
      <point x="242" y="655" type="line"/>
      <point x="225" y="596" type="line"/>
      <point x="354" y="573" type="line"/>
      <point x="203" y="85" type="line"/>
    </contour>
  </outline>
</glyph>
<glyph name="J" format="2">
  <advance width="614"/>
  <unicode hex="004A"/>
  <anchor x="601" y="691" name="aboveUC"/>
  <anchor x="590" y="651" name="aboveUCx"/>
  <outline>
    <contour>
      <point x="280" y="-14" type="curve" smooth="yes"/>
      <point x="407" y="-14"/>
      <point x="477" y="57"/>
      <point x="517" y="195" type="curve" smooth="yes"/>
      <point x="648" y="655" type="line"/>
      <point x="535" y="655" type="line"/>
      <point x="407" y="208" type="line" smooth="yes"/>
      <point x="383" y="124"/>
      <point x="341" y="88"/>
      <point x="278" y="88" type="curve" smooth="yes"/>
      <point x="229" y="88"/>
      <point x="189" y="107"/>
      <point x="98" y="209" type="curve"/>
      <point x="22" y="139" type="line"/>
      <point x="129" y="15"/>
      <point x="191" y="-14"/>
    </contour>
  </outline>
</glyph>
<glyph name="L" format="2">
  <advance width="614"/>
  <unicode hex="004C"/>
  <anchor x="284" y="691" name="aboveUC"/>
  <anchor x="250" y="-35" name="below"/>
  <anchor x="472" y="655" name="topright"/>
  <outline>
    <contour>
      <point x="214" y="655" type="line"/>
      <point x="26" y="0" type="line"/>
      <point x="480" y="0" type="line"/>
      <point x="507" y="93" type="line"/>
      <point x="166" y="93" type="line"/>
      <point x="327" y="655" type="line"/>
    </contour>
  </outline>
</glyph>
<glyph name="M" format="2">
  <advance width="614"/>
  <unicode hex="004D"/>
  <anchor x="435" y="691" name="aboveUC"/>
  <anchor x="425" y="659" name="aboveUCx"/>
  <anchor x="243" y="-35" name="below"/>
  <anchor x="253" y="0" name="belowx"/>
  <outline>
    <contour>
      <point x="650" y="655" type="line"/>
      <point x="531" y="655" type="line"/>
      <point x="338" y="357" type="line"/>
      <point x="320" y="655" type="line"/>
      <point x="208" y="655" type="line"/>
      <point x="-10" y="0" type="line"/>
      <point x="94" y="0" type="line"/>
      <point x="257" y="511" type="line"/>
      <point x="278" y="173" type="line"/>
      <point x="299" y="173" type="line"/>
      <point x="516" y="513" type="line"/>
      <point x="384" y="0" type="line"/>
      <point x="489" y="0" type="line"/>
    </contour>
  </outline>
</glyph>
<glyph name="N" format="2">
  <advance width="614"/>
  <unicode hex="004E"/>
  <anchor x="442" y="691" name="aboveUC"/>
  <anchor x="432" y="656" name="aboveUCx"/>
  <anchor x="244" y="-35" name="below"/>
  <anchor x="254" y="0" name="belowx"/>
  <outline>
    <contour>
      <point x="119" y="0" type="line"/>
      <point x="256" y="495" type="line"/>
      <point x="347" y="0" type="line"/>
      <point x="464" y="0" type="line"/>
      <point x="652" y="655" type="line"/>
      <point x="548" y="655" type="line"/>
      <point x="414" y="168" type="line"/>
      <point x="324" y="655" type="line"/>
      <point x="203" y="655" type="line"/>
      <point x="16" y="0" type="line"/>
    </contour>
  </outline>
</glyph>
<glyph name="O" format="2">
  <advance width="614"/>
  <unicode hex="004F"/>
  <anchor x="435" y="696" name="aboveUC"/>
  <anchor x="425" y="661" name="aboveUCx"/>
  <anchor x="245" y="-40" name="below"/>
  <anchor x="247" y="-15" name="belowogonek"/>
  <outline>
    <contour>
      <point x="407" y="670" type="curve" smooth="yes"/>
      <point x="256" y="670"/>
      <point x="136" y="557"/>
      <point x="80" y="364" type="curve" smooth="yes"/>
      <point x="60" y="291"/>
      <point x="57" y="249"/>
      <point x="57" y="197" type="curve" smooth="yes"/>
      <point x="57" y="56"/>
      <point x="134" y="-15"/>
      <point x="266" y="-15" type="curve" smooth="yes"/>
      <point x="417" y="-15"/>
      <point x="537" y="98"/>
      <point x="593" y="291" type="curve" smooth="yes"/>
      <point x="613" y="364"/>
      <point x="617" y="406"/>
      <point x="617" y="458" type="curve" smooth="yes"/>
      <point x="617" y="599"/>
      <point x="540" y="670"/>
    </contour>
    <contour>
      <point x="273" y="79" type="curve" smooth="yes"/>
      <point x="211" y="79"/>
      <point x="172" y="116"/>
      <point x="172" y="200" type="curve" smooth="yes"/>
      <point x="172" y="244"/>
      <point x="179" y="294"/>
      <point x="196" y="353" type="curve" smooth="yes"/>
      <point x="240" y="503"/>
      <point x="314" y="576"/>
      <point x="400" y="576" type="curve" smooth="yes"/>
      <point x="462" y="576"/>
      <point x="502" y="539"/>
      <point x="502" y="455" type="curve" smooth="yes"/>
      <point x="502" y="411"/>
      <point x="494" y="361"/>
      <point x="477" y="302" type="curve" smooth="yes"/>
      <point x="434" y="152"/>
      <point x="359" y="79"/>
    </contour>
  </outline>
</glyph>
<glyph name="P" format="2">
  <advance width="614"/>
  <unicode hex="0050"/>
  <anchor x="454" y="691" name="aboveUC"/>
  <outline>
    <contour>
      <point x="208" y="655" type="line"/>
      <point x="20" y="0" type="line"/>
      <point x="133" y="0" type="line"/>
      <point x="197" y="222" type="line"/>
      <point x="313" y="222" type="line" smooth="yes"/>
      <point x="427" y="222"/>
      <point x="512" y="246"/>
      <point x="571" y="306" type="curve" smooth="yes"/>
      <point x="615" y="349"/>
      <point x="639" y="408"/>
      <point x="639" y="479" type="curve" smooth="yes"/>
      <point x="639" y="585"/>
      <point x="572" y="655"/>
      <point x="438" y="655" type="curve" smooth="yes"/>
    </contour>
    <contour>
      <point x="413" y="561" type="line" smooth="yes"/>
      <point x="488" y="561"/>
      <point x="519" y="532"/>
      <point x="519" y="474" type="curve" smooth="yes"/>
      <point x="519" y="376"/>
      <point x="448" y="313"/>
      <point x="319" y="313" type="curve" smooth="yes"/>
      <point x="223" y="313" type="line"/>
      <point x="294" y="561" type="line"/>
    </contour>
  </outline>
</glyph>
<glyph name="Q" format="2">
  <advance width="614"/>
  <unicode hex="0051"/>
  <outline>
    <contour>
      <point x="535" y="-121" type="line"/>
      <point x="435" y="45" type="line"/>
      <point x="506" y="95"/>
      <point x="561" y="179"/>
      <point x="593" y="291" type="curve" smooth="yes"/>
      <point x="613" y="364"/>
      <point x="617" y="406"/>
      <point x="617" y="458" type="curve" smooth="yes"/>
      <point x="617" y="599"/>
      <point x="540" y="670"/>
      <point x="407" y="670" type="curve" smooth="yes"/>
      <point x="256" y="670"/>
      <point x="136" y="557"/>
      <point x="80" y="364" type="curve" smooth="yes"/>
      <point x="60" y="291"/>
      <point x="57" y="249"/>
      <point x="57" y="197" type="curve" smooth="yes"/>
      <point x="57" y="61"/>
      <point x="134" y="-9"/>
      <point x="266" y="-9" type="curve" smooth="yes"/>
      <point x="294" y="-9"/>
      <point x="322" y="-5"/>
      <point x="348" y="2" type="curve"/>
      <point x="413" y="-173" type="line"/>
    </contour>
    <contour>
      <point x="273" y="79" type="curve" smooth="yes"/>
      <point x="211" y="79"/>
      <point x="172" y="116"/>
      <point x="172" y="200" type="curve" smooth="yes"/>
      <point x="172" y="244"/>
      <point x="179" y="294"/>
      <point x="196" y="353" type="curve" smooth="yes"/>
      <point x="240" y="503"/>
      <point x="314" y="576"/>
      <point x="400" y="576" type="curve" smooth="yes"/>
      <point x="462" y="576"/>
      <point x="502" y="539"/>
      <point x="502" y="455" type="curve" smooth="yes"/>
      <point x="502" y="411"/>
      <point x="494" y="361"/>
      <point x="477" y="302" type="curve" smooth="yes"/>
      <point x="434" y="152"/>
      <point x="359" y="79"/>
    </contour>
  </outline>
</glyph>
<glyph name="R" format="2">
  <advance width="614"/>
  <unicode hex="0052"/>
  <anchor x="440" y="691" name="aboveUC"/>
  <anchor x="255" y="-35" name="below"/>
  <anchor x="265" y="0" name="belowx"/>
  <outline>
    <contour>
      <point x="524" y="4" type="line"/>
      <point x="447" y="145" type="line" smooth="yes"/>
      <point x="407" y="222"/>
      <point x="384" y="244"/>
      <point x="348" y="269" type="curve"/>
      <point x="348" y="275" type="line"/>
      <point x="542" y="289"/>
      <point x="625" y="375"/>
      <point x="625" y="508" type="curve" smooth="yes"/>
      <point x="625" y="597"/>
      <point x="562" y="655"/>
      <point x="435" y="655" type="curve" smooth="yes"/>
      <point x="208" y="655" type="line"/>
      <point x="20" y="0" type="line"/>
      <point x="133" y="0" type="line"/>
      <point x="205" y="253" type="line"/>
      <point x="261" y="247"/>
      <point x="281" y="227"/>
      <point x="311" y="168" type="curve" smooth="yes"/>
      <point x="396" y="0" type="line"/>
      <point x="523" y="0" type="line"/>
    </contour>
    <contour>
      <point x="412" y="565" type="line" smooth="yes"/>
      <point x="475" y="565"/>
      <point x="505" y="541"/>
      <point x="505" y="494" type="curve" smooth="yes"/>
      <point x="505" y="412"/>
      <point x="454" y="350"/>
      <point x="296" y="340" type="curve" smooth="yes"/>
      <point x="229" y="336" type="line"/>
      <point x="294" y="565" type="line"/>
    </contour>
  </outline>
</glyph>
<glyph name="S" format="2">
  <advance width="614"/>
  <unicode hex="0053"/>
  <anchor x="450" y="696" name="aboveUC"/>
  <anchor x="440" y="661" name="aboveUCx"/>
  <anchor x="257" y="-38" name="below"/>
  <anchor x="266" y="-15" name="belowcedilla"/>
  <outline>
    <contour>
      <point x="301" y="83" type="curve" smooth="yes"/>
      <point x="223" y="83"/>
      <point x="140" y="110"/>
      <point x="54" y="147" type="curve"/>
      <point x="19" y="50" type="line"/>
      <point x="108" y="12"/>
      <point x="196" y="-13"/>
      <point x="301" y="-13" type="curve" smooth="yes"/>
      <point x="453" y="-13"/>
      <point x="541" y="63"/>
      <point x="541" y="183" type="curve" smooth="yes"/>
      <point x="541" y="260"/>
      <point x="515" y="301"/>
      <point x="405" y="361" type="curve" smooth="yes"/>
      <point x="338" y="398" type="line" smooth="yes"/>
      <point x="282" y="429"/>
      <point x="267" y="454"/>
      <point x="267" y="486" type="curve" smooth="yes"/>
      <point x="267" y="535"/>
      <point x="304" y="570"/>
      <point x="392" y="570" type="curve" smooth="yes"/>
      <point x="454" y="570"/>
      <point x="518" y="555"/>
      <point x="596" y="527" type="curve"/>
      <point x="625" y="623" type="line"/>
      <point x="544" y="650"/>
      <point x="480" y="666"/>
      <point x="395" y="666" type="curve" smooth="yes"/>
      <point x="236" y="666"/>
      <point x="154" y="580"/>
      <point x="154" y="480" type="curve" smooth="yes"/>
      <point x="154" y="404"/>
      <point x="188" y="356"/>
      <point x="274" y="309" type="curve" smooth="yes"/>
      <point x="341" y="273" type="line" smooth="yes"/>
      <point x="416" y="231"/>
      <point x="428" y="206"/>
      <point x="428" y="172" type="curve" smooth="yes"/>
      <point x="428" y="116"/>
      <point x="387" y="83"/>
    </contour>
  </outline>
</glyph>
<glyph name="T" format="2">
  <advance width="614"/>
  <unicode hex="0054"/>
  <anchor x="433" y="691" name="aboveUC"/>
  <anchor x="230" y="-35" name="below"/>
  <anchor x="236" y="-9" name="belowcedilla"/>
  <outline>
    <contour>
      <point x="135" y="561" type="line"/>
      <point x="341" y="561" type="line"/>
      <point x="180" y="0" type="line"/>
      <point x="293" y="0" type="line"/>
      <point x="454" y="561" type="line"/>
      <point x="658" y="561" type="line"/>
      <point x="686" y="655" type="line"/>
      <point x="163" y="655" type="line"/>
    </contour>
  </outline>
</glyph>
<glyph name="U" format="2">
  <advance width="614"/>
  <unicode hex="0055"/>
  <anchor x="437" y="691" name="aboveUC"/>
  <anchor x="427" y="656" name="aboveUCx"/>
  <anchor x="229" y="-40" name="below"/>
  <anchor x="245" y="-15" name="belowogonek"/>
  <outline>
    <contour>
      <point x="423" y="215" type="line" smooth="yes"/>
      <point x="398" y="125"/>
      <point x="351" y="87"/>
      <point x="282" y="87" type="curve" smooth="yes"/>
      <point x="214" y="87"/>
      <point x="178" y="120"/>
      <point x="178" y="178" type="curve" smooth="yes"/>
      <point x="178" y="195"/>
      <point x="180" y="216"/>
      <point x="190" y="249" type="curve" smooth="yes"/>
      <point x="306" y="655" type="line"/>
      <point x="193" y="655" type="line"/>
      <point x="88" y="290" type="line" smooth="yes"/>
      <point x="72" y="237"/>
      <point x="64" y="200"/>
      <point x="64" y="167" type="curve" smooth="yes"/>
      <point x="64" y="46"/>
      <point x="139" y="-15"/>
      <point x="268" y="-15" type="curve" smooth="yes"/>
      <point x="405" y="-15"/>
      <point x="488" y="51"/>
      <point x="533" y="206" type="curve" smooth="yes"/>
      <point x="662" y="655" type="line"/>
      <point x="550" y="655" type="line"/>
    </contour>
  </outline>
</glyph>
<glyph name="X" format="2">
  <advance width="614"/>
  <unicode hex="0058"/>
  <anchor x="438" y="691" name="aboveUC"/>
  <anchor x="429" y="659" name="aboveUCx"/>
  <anchor x="231" y="-35" name="below"/>
  <anchor x="240" y="-3" name="belowx"/>
  <outline>
    <contour>
      <point x="-32" y="0" type="line"/>
      <point x="92" y="0" type="line"/>
      <point x="310" y="252" type="line"/>
      <point x="383" y="0" type="line"/>
      <point x="510" y="0" type="line"/>
      <point x="393" y="332" type="line"/>
      <point x="682" y="655" type="line"/>
      <point x="548" y="655" type="line"/>
      <point x="355" y="422" type="line"/>
      <point x="288" y="655" type="line"/>
      <point x="170" y="655" type="line"/>
      <point x="273" y="342" type="line"/>
    </contour>
  </outline>
</glyph>
<glyph name="Y" format="2">
  <advance width="614"/>
  <unicode hex="0059"/>
  <anchor x="421" y="691" name="aboveUC"/>
  <anchor x="411" y="656" name="aboveUCx"/>
  <anchor x="232" y="-35" name="below"/>
  <outline>
    <contour>
      <point x="705" y="655" type="line"/>
      <point x="572" y="655" type="line"/>
      <point x="344" y="384" type="line"/>
      <point x="268" y="655" type="line"/>
      <point x="150" y="655" type="line"/>
      <point x="264" y="280" type="line"/>
      <point x="184" y="0" type="line"/>
      <point x="296" y="0" type="line"/>
      <point x="375" y="274" type="line"/>
    </contour>
  </outline>
</glyph>
<glyph name="a" format="2">
  <advance width="614"/>
  <unicode hex="0061"/>
  <anchor x="219" y="-35" name="below"/>
  <anchor x="396" y="-10" name="belowogonek"/>
  <anchor x="374" y="507" name="aboveLC"/>
  <anchor x="364" y="472" name="aboveLCx"/>
  <outline>
    <contour>
      <point x="478" y="150" type="curve" smooth="yes"/>
      <point x="535" y="310" type="line" smooth="yes"/>
      <point x="544" y="335"/>
      <point x="548" y="356"/>
      <point x="548" y="376" type="curve" smooth="yes"/>
      <point x="548" y="447"/>
      <point x="489" y="480"/>
      <point x="364" y="480" type="curve" smooth="yes"/>
      <point x="315" y="480"/>
      <point x="254" y="476"/>
      <point x="169" y="465" type="curve"/>
      <point x="144" y="374" type="line"/>
      <point x="232" y="386"/>
      <point x="298" y="391"/>
      <point x="333" y="391" type="curve" smooth="yes"/>
      <point x="408" y="391"/>
      <point x="435" y="376"/>
      <point x="435" y="345" type="curve" smooth="yes"/>
      <point x="435" y="334"/>
      <point x="433" y="326"/>
      <point x="426" y="302" type="curve" smooth="yes"/>
      <point x="422" y="290" type="line"/>
      <point x="283" y="280" type="line" smooth="yes"/>
      <point x="152" y="271"/>
      <point x="106" y="255"/>
      <point x="73" y="222" type="curve" smooth="yes"/>
      <point x="41" y="190"/>
      <point x="25" y="137"/>
      <point x="25" y="93" type="curve" smooth="yes"/>
      <point x="25" y="35"/>
      <point x="60" y="-7"/>
      <point x="138" y="-7" type="curve" smooth="yes"/>
      <point x="217" y="-7"/>
      <point x="279" y="12"/>
      <point x="352" y="57" type="curve"/>
      <point x="358" y="57" type="line"/>
      <point x="372" y="24"/>
      <point x="405" y="3"/>
      <point x="468" y="-2" type="curve" smooth="yes"/>
      <point x="514" y="-7" type="line"/>
      <point x="539" y="79" type="line"/>
      <point x="503" y="85" type="line" smooth="yes"/>
      <point x="480" y="89"/>
      <point x="469" y="95"/>
      <point x="469" y="111" type="curve" smooth="yes"/>
      <point x="469" y="119"/>
      <point x="471" y="130"/>
    </contour>
    <contour>
      <point x="186" y="75" type="curve" smooth="yes"/>
      <point x="154" y="75"/>
      <point x="140" y="90"/>
      <point x="140" y="114" type="curve" smooth="yes"/>
      <point x="140" y="138"/>
      <point x="147" y="159"/>
      <point x="165" y="177" type="curve" smooth="yes"/>
      <point x="182" y="194"/>
      <point x="208" y="204"/>
      <point x="298" y="212" type="curve" smooth="yes"/>
      <point x="398" y="221" type="line"/>
      <point x="371" y="143" type="line"/>
      <point x="307" y="96"/>
      <point x="235" y="75"/>
    </contour>
  </outline>
</glyph>
<glyph name="b" format="2">
  <advance width="614"/>
  <unicode hex="0062"/>
  <anchor x="237" y="-35" name="below"/>
  <outline>
    <contour>
      <point x="333" y="710" type="line"/>
      <point x="221" y="710" type="line"/>
      <point x="29" y="41" type="line"/>
      <point x="91" y="9"/>
      <point x="164" y="-8"/>
      <point x="237" y="-8" type="curve" smooth="yes"/>
      <point x="444" y="-8"/>
      <point x="575" y="129"/>
      <point x="575" y="300" type="curve" smooth="yes"/>
      <point x="575" y="419"/>
      <point x="499" y="482"/>
      <point x="412" y="482" type="curve" smooth="yes"/>
      <point x="358" y="482"/>
      <point x="308" y="463"/>
      <point x="248" y="414" type="curve"/>
    </contour>
    <contour>
      <point x="366" y="389" type="curve" smooth="yes"/>
      <point x="421" y="389"/>
      <point x="458" y="352"/>
      <point x="458" y="286" type="curve" smooth="yes"/>
      <point x="458" y="189"/>
      <point x="385" y="85"/>
      <point x="241" y="85" type="curve" smooth="yes"/>
      <point x="210" y="85"/>
      <point x="182" y="90"/>
      <point x="158" y="99" type="curve"/>
      <point x="220" y="316" type="line"/>
      <point x="289" y="374"/>
      <point x="327" y="389"/>
    </contour>
  </outline>
</glyph>
<glyph name="c" format="2">
  <advance width="614"/>
  <unicode hex="0063"/>
  <anchor x="232" y="-15" name="belowcedilla"/>
  <anchor x="387" y="472" name="aboveLCx"/>
  <anchor x="237" y="-37" name="below"/>
  <anchor x="397" y="507" name="aboveLC"/>
  <outline>
    <contour>
      <point x="376" y="390" type="curve" smooth="yes"/>
      <point x="423" y="390"/>
      <point x="462" y="377"/>
      <point x="543" y="333" type="curve"/>
      <point x="590" y="422" type="line"/>
      <point x="503" y="471"/>
      <point x="442" y="484"/>
      <point x="366" y="484" type="curve" smooth="yes"/>
      <point x="276" y="484"/>
      <point x="199" y="448"/>
      <point x="143" y="392" type="curve" smooth="yes"/>
      <point x="81" y="330"/>
      <point x="51" y="249"/>
      <point x="51" y="172" type="curve" smooth="yes"/>
      <point x="51" y="54"/>
      <point x="131" y="-14"/>
      <point x="264" y="-14" type="curve" smooth="yes"/>
      <point x="343" y="-14"/>
      <point x="417" y="0"/>
      <point x="509" y="48" type="curve"/>
      <point x="475" y="135" type="line"/>
      <point x="378" y="92"/>
      <point x="329" y="80"/>
      <point x="281" y="80" type="curve" smooth="yes"/>
      <point x="216" y="80"/>
      <point x="174" y="119"/>
      <point x="174" y="183" type="curve" smooth="yes"/>
      <point x="174" y="234"/>
      <point x="198" y="292"/>
      <point x="238" y="332" type="curve" smooth="yes"/>
      <point x="273" y="367"/>
      <point x="321" y="390"/>
    </contour>
  </outline>
</glyph>
<glyph name="d" format="2">
  <advance width="614"/>
  <unicode hex="0064"/>
  <anchor x="245" y="-35" name="below"/>
  <anchor x="804" y="788" name="topright"/>
  <outline>
    <contour>
      <point x="379" y="0" type="line"/>
      <point x="463" y="0" type="line"/>
      <point x="667" y="710" type="line"/>
      <point x="555" y="710" type="line"/>
      <point x="486" y="470" type="line"/>
      <point x="452" y="478"/>
      <point x="418" y="482"/>
      <point x="382" y="482" type="curve" smooth="yes"/>
      <point x="173" y="482"/>
      <point x="41" y="344"/>
      <point x="41" y="174" type="curve" smooth="yes"/>
      <point x="41" y="55"/>
      <point x="117" y="-8"/>
      <point x="202" y="-8" type="curve" smooth="yes"/>
      <point x="260" y="-8"/>
      <point x="314" y="12"/>
      <point x="379" y="68" type="curve"/>
    </contour>
    <contour>
      <point x="158" y="188" type="curve" smooth="yes"/>
      <point x="158" y="285"/>
      <point x="233" y="389"/>
      <point x="380" y="389" type="curve" smooth="yes"/>
      <point x="407" y="389"/>
      <point x="434" y="384"/>
      <point x="459" y="374" type="curve"/>
      <point x="397" y="158" type="line"/>
      <point x="327" y="100"/>
      <point x="288" y="85"/>
      <point x="248" y="85" type="curve" smooth="yes"/>
      <point x="194" y="85"/>
      <point x="158" y="121"/>
    </contour>
  </outline>
</glyph>
<glyph name="e" format="2">
  <advance width="614"/>
  <unicode hex="0065"/>
  <anchor x="242" y="-38" name="below"/>
  <anchor x="330" y="-10" name="belowogonek"/>
  <anchor x="386" y="471" name="aboveLCx"/>
  <anchor x="396" y="507" name="aboveLC"/>
  <outline>
    <contour>
      <point x="423" y="81" type="line"/>
      <point x="216" y="81"/>
      <point x="172" y="98"/>
      <point x="170" y="177" type="curve"/>
      <point x="331" y="190" type="line" smooth="yes"/>
      <point x="518" y="207"/>
      <point x="576" y="264"/>
      <point x="576" y="352" type="curve" smooth="yes"/>
      <point x="576" y="432"/>
      <point x="513" y="486"/>
      <point x="397" y="486" type="curve" smooth="yes"/>
      <point x="202" y="486"/>
      <point x="57" y="322"/>
      <point x="57" y="169" type="curve" smooth="yes"/>
      <point x="57" y="41"/>
      <point x="118" y="-10"/>
      <point x="396" y="-10" type="curve"/>
    </contour>
    <contour>
      <point x="386" y="397" type="curve" smooth="yes"/>
      <point x="437" y="397"/>
      <point x="465" y="374"/>
      <point x="465" y="343" type="curve" smooth="yes"/>
      <point x="465" y="306"/>
      <point x="437" y="276"/>
      <point x="330" y="265" type="curve" smooth="yes"/>
      <point x="181" y="249" type="line"/>
      <point x="211" y="334"/>
      <point x="296" y="397"/>
    </contour>
  </outline>
</glyph>
<glyph name="f" format="2">
  <advance width="614"/>
  <unicode hex="0066"/>
  <outline>
    <contour>
      <point x="105" y="365" type="line"/>
      <point x="257" y="365" type="line"/>
      <point x="152" y="0" type="line"/>
      <point x="264" y="0" type="line"/>
      <point x="369" y="365" type="line"/>
      <point x="550" y="365" type="line"/>
      <point x="577" y="460" type="line"/>
      <point x="394" y="460" type="line"/>
      <point x="408" y="510" type="line" smooth="yes"/>
      <point x="429" y="585"/>
      <point x="457" y="610"/>
      <point x="545" y="616" type="curve" smooth="yes"/>
      <point x="665" y="624" type="line"/>
      <point x="665" y="720" type="line"/>
      <point x="562" y="712" type="line" smooth="yes"/>
      <point x="397" y="699"/>
      <point x="342" y="658"/>
      <point x="297" y="503" type="curve" smooth="yes"/>
      <point x="285" y="460" type="line"/>
      <point x="132" y="460" type="line"/>
    </contour>
  </outline>
</glyph>
<glyph name="g" format="2">
  <advance width="614"/>
  <unicode hex="0067"/>
  <anchor x="394" y="505" name="aboveLC"/>
  <anchor x="384" y="470" name="aboveLCx"/>
  <outline>
    <contour>
      <point x="365" y="42" type="line" smooth="yes"/>
      <point x="325" y="-95"/>
      <point x="281" y="-130"/>
      <point x="125" y="-138" type="curve" smooth="yes"/>
      <point x="3" y="-144" type="line"/>
      <point x="3" y="-239" type="line"/>
      <point x="124" y="-233" type="line" smooth="yes"/>
      <point x="354" y="-220"/>
      <point x="417" y="-168"/>
      <point x="473" y="31" type="curve" smooth="yes"/>
      <point x="588" y="433" type="line"/>
      <point x="521" y="466"/>
      <point x="454" y="482"/>
      <point x="383" y="482" type="curve" smooth="yes"/>
      <point x="174" y="482"/>
      <point x="42" y="352"/>
      <point x="42" y="191" type="curve" smooth="yes"/>
      <point x="42" y="77"/>
      <point x="120" y="16"/>
      <point x="207" y="16" type="curve" smooth="yes"/>
      <point x="263" y="16"/>
      <point x="316" y="35"/>
      <point x="378" y="87" type="curve"/>
    </contour>
    <contour>
      <point x="160" y="206" type="curve" smooth="yes"/>
      <point x="160" y="294"/>
      <point x="234" y="389"/>
      <point x="380" y="389" type="curve" smooth="yes"/>
      <point x="407" y="389"/>
      <point x="435" y="384"/>
      <point x="459" y="374" type="curve"/>
      <point x="406" y="185" type="line"/>
      <point x="333" y="124"/>
      <point x="294" y="109"/>
      <point x="253" y="109" type="curve" smooth="yes"/>
      <point x="198" y="109"/>
      <point x="160" y="144"/>
    </contour>
  </outline>
</glyph>
<glyph name="h" format="2">
  <advance width="614"/>
  <unicode hex="0068"/>
  <anchor x="238" y="-35" name="below"/>
  <anchor x="248" y="0" name="belowx"/>
  <anchor x="73" y="-10" name="belowcedilla"/>
  <anchor x="287" y="740" name="aboveLC"/>
  <anchor x="270" y="679" name="aboveLCx"/>
  <outline>
    <contour>
      <point x="336" y="710" type="line"/>
      <point x="224" y="710" type="line"/>
      <point x="20" y="0" type="line"/>
      <point x="133" y="0" type="line"/>
      <point x="201" y="238" type="line"/>
      <point x="337" y="360"/>
      <point x="368" y="375"/>
      <point x="403" y="375" type="curve" smooth="yes"/>
      <point x="428" y="375"/>
      <point x="444" y="362"/>
      <point x="444" y="338" type="curve" smooth="yes"/>
      <point x="444" y="328"/>
      <point x="442" y="317"/>
      <point x="436" y="297" type="curve" smooth="yes"/>
      <point x="351" y="0" type="line"/>
      <point x="463" y="0" type="line"/>
      <point x="553" y="311" type="line" smooth="yes"/>
      <point x="562" y="343"/>
      <point x="565" y="365"/>
      <point x="565" y="383" type="curve" smooth="yes"/>
      <point x="565" y="443"/>
      <point x="526" y="479"/>
      <point x="458" y="479" type="curve" smooth="yes"/>
      <point x="396" y="479"/>
      <point x="351" y="460"/>
      <point x="236" y="361" type="curve"/>
    </contour>
  </outline>
</glyph>
<glyph name="i" format="2">
  <advance width="614"/>
  <unicode hex="0069"/>
  <anchor x="244" y="-35" name="below"/>
  <anchor x="252" y="-10" name="belowogonek"/>
  <outline>
    <contour>
      <point x="410" y="592" type="curve" smooth="yes"/>
      <point x="477" y="592"/>
      <point x="514" y="628"/>
      <point x="514" y="678" type="curve" smooth="yes"/>
      <point x="514" y="718"/>
      <point x="486" y="740"/>
      <point x="433" y="740" type="curve" smooth="yes"/>
      <point x="361" y="740"/>
      <point x="329" y="697"/>
      <point x="329" y="654" type="curve" smooth="yes"/>
      <point x="329" y="613"/>
      <point x="360" y="592"/>
    </contour>
    <contour>
      <point x="64" y="95" type="line"/>
      <point x="37" y="0" type="line"/>
      <point x="473" y="0" type="line"/>
      <point x="500" y="95" type="line"/>
      <point x="329" y="95" type="line"/>
      <point x="460" y="471" type="line"/>
      <point x="192" y="471" type="line"/>
      <point x="165" y="376" type="line"/>
      <point x="315" y="376" type="line"/>
      <point x="217" y="95" type="line"/>
    </contour>
  </outline>
</glyph>
<glyph name="j" format="2">
  <advance width="614"/>
  <unicode hex="006A"/>
  <outline>
    <contour>
      <point x="474" y="592" type="curve" smooth="yes"/>
      <point x="543" y="592"/>
      <point x="578" y="630"/>
      <point x="578" y="678" type="curve" smooth="yes"/>
      <point x="578" y="718"/>
      <point x="550" y="740"/>
      <point x="498" y="740" type="curve" smooth="yes"/>
      <point x="425" y="740"/>
      <point x="393" y="698"/>
      <point x="393" y="654" type="curve" smooth="yes"/>
      <point x="393" y="613"/>
      <point x="424" y="592"/>
    </contour>
    <contour>
      <point x="385" y="26" type="curve" smooth="yes"/>
      <point x="512" y="471" type="line"/>
      <point x="185" y="471" type="line"/>
      <point x="158" y="376" type="line"/>
      <point x="373" y="376" type="line"/>
      <point x="276" y="38" type="line" smooth="yes"/>
      <point x="240" y="-90"/>
      <point x="200" y="-129"/>
      <point x="58" y="-136" type="curve" smooth="yes"/>
      <point x="-30" y="-141" type="line"/>
      <point x="-30" y="-237" type="line"/>
      <point x="55" y="-233" type="line" smooth="yes"/>
      <point x="267" y="-221"/>
      <point x="328" y="-173"/>
    </contour>
  </outline>
</glyph>
<glyph name="l" format="2">
  <advance width="614"/>
  <unicode hex="006C"/>
  <anchor x="233" y="-35" name="below"/>
  <anchor x="434" y="752" name="aboveLC"/>
  <anchor x="424" y="716" name="aboveLCx"/>
  <anchor x="640" y="788" name="topright"/>
  <outline>
    <contour>
      <point x="225" y="264" type="line" smooth="yes"/>
      <point x="202" y="201"/>
      <point x="194" y="161"/>
      <point x="194" y="127" type="curve" smooth="yes"/>
      <point x="194" y="37"/>
      <point x="241" y="0"/>
      <point x="359" y="-5" type="curve" smooth="yes"/>
      <point x="471" y="-8" type="line"/>
      <point x="499" y="88" type="line"/>
      <point x="387" y="92" type="line" smooth="yes"/>
      <point x="334" y="94"/>
      <point x="310" y="109"/>
      <point x="310" y="152" type="curve" smooth="yes"/>
      <point x="310" y="176"/>
      <point x="313" y="195"/>
      <point x="333" y="249" type="curve" smooth="yes"/>
      <point x="497" y="710" type="line"/>
      <point x="202" y="710" type="line"/>
      <point x="175" y="615" type="line"/>
      <point x="351" y="615" type="line"/>
    </contour>
  </outline>
</glyph>
<glyph name="m" format="2">
  <advance width="614"/>
  <unicode hex="006D"/>
  <anchor x="384" y="502" name="aboveLC"/>
  <anchor x="233" y="-35" name="below"/>
  <outline>
    <contour>
      <point x="195" y="471" type="line"/>
      <point x="115" y="471" type="line"/>
      <point x="-20" y="0" type="line"/>
      <point x="78" y="0" type="line"/>
      <point x="161" y="288" type="line"/>
      <point x="222" y="353"/>
      <point x="245" y="363"/>
      <point x="265" y="363" type="curve" smooth="yes"/>
      <point x="280" y="363"/>
      <point x="289" y="357"/>
      <point x="289" y="340" type="curve" smooth="yes"/>
      <point x="289" y="332"/>
      <point x="288" y="322"/>
      <point x="284" y="309" type="curve" smooth="yes"/>
      <point x="195" y="0" type="line"/>
      <point x="288" y="0" type="line"/>
      <point x="371" y="291" type="line"/>
      <point x="430" y="353"/>
      <point x="453" y="363"/>
      <point x="472" y="363" type="curve" smooth="yes"/>
      <point x="488" y="363"/>
      <point x="498" y="356"/>
      <point x="498" y="339" type="curve" smooth="yes"/>
      <point x="498" y="331"/>
      <point x="496" y="322"/>
      <point x="492" y="309" type="curve" smooth="yes"/>
      <point x="404" y="0" type="line"/>
      <point x="502" y="0" type="line"/>
      <point x="610" y="376" type="line" smooth="yes"/>
      <point x="615" y="397"/>
      <point x="619" y="413"/>
      <point x="619" y="428" type="curve" smooth="yes"/>
      <point x="619" y="463"/>
      <point x="598" y="482"/>
      <point x="559" y="482" type="curve" smooth="yes"/>
      <point x="520" y="482"/>
      <point x="483" y="460"/>
      <point x="396" y="352" type="curve"/>
      <point x="387" y="352" type="line"/>
      <point x="396" y="384" type="line" smooth="yes"/>
      <point x="401" y="402"/>
      <point x="404" y="417"/>
      <point x="404" y="429" type="curve" smooth="yes"/>
      <point x="404" y="464"/>
      <point x="384" y="482"/>
      <point x="347" y="482" type="curve" smooth="yes"/>
      <point x="309" y="482"/>
      <point x="270" y="460"/>
      <point x="179" y="352" type="curve"/>
      <point x="172" y="352" type="line"/>
    </contour>
  </outline>
</glyph>
<glyph name="o" format="2">
  <advance width="614"/>
  <unicode hex="006F"/>
  <anchor x="372" y="507" name="aboveLC"/>
  <anchor x="362" y="472" name="aboveLCx"/>
  <anchor x="243" y="-40" name="below"/>
  <anchor x="245" y="-15" name="belowogonek"/>
  <outline>
    <contour>
      <point x="356" y="486" type="curve" smooth="yes"/>
      <point x="180" y="486"/>
      <point x="46" y="352"/>
      <point x="46" y="189" type="curve" smooth="yes"/>
      <point x="46" y="69"/>
      <point x="131" y="-15"/>
      <point x="258" y="-15" type="curve" smooth="yes"/>
      <point x="434" y="-15"/>
      <point x="568" y="119"/>
      <point x="568" y="281" type="curve" smooth="yes"/>
      <point x="568" y="402"/>
      <point x="483" y="486"/>
    </contour>
    <contour>
      <point x="276" y="77" type="curve" smooth="yes"/>
      <point x="208" y="77"/>
      <point x="162" y="125"/>
      <point x="162" y="194" type="curve" smooth="yes"/>
      <point x="162" y="297"/>
      <point x="240" y="393"/>
      <point x="338" y="393" type="curve" smooth="yes"/>
      <point x="406" y="393"/>
      <point x="452" y="346"/>
      <point x="452" y="276" type="curve" smooth="yes"/>
      <point x="452" y="174"/>
      <point x="374" y="77"/>
    </contour>
  </outline>
</glyph>
<glyph name="p" format="2">
  <advance width="614"/>
  <unicode hex="0070"/>
  <anchor x="399" y="502" name="aboveLC"/>
  <outline>
    <contour>
      <point x="-50" y="-230" type="line"/>
      <point x="62" y="-230" type="line"/>
      <point x="129" y="4" type="line"/>
      <point x="162" y="-4"/>
      <point x="197" y="-8"/>
      <point x="234" y="-8" type="curve" smooth="yes"/>
      <point x="442" y="-8"/>
      <point x="574" y="129"/>
      <point x="574" y="300" type="curve" smooth="yes"/>
      <point x="574" y="419"/>
      <point x="499" y="482"/>
      <point x="410" y="482" type="curve" smooth="yes"/>
      <point x="352" y="482"/>
      <point x="299" y="461"/>
      <point x="235" y="405" type="curve"/>
      <point x="237" y="471" type="line"/>
      <point x="151" y="471" type="line"/>
    </contour>
    <contour>
      <point x="364" y="389" type="curve" smooth="yes"/>
      <point x="419" y="389"/>
      <point x="457" y="352"/>
      <point x="457" y="286" type="curve" smooth="yes"/>
      <point x="457" y="189"/>
      <point x="383" y="85"/>
      <point x="238" y="85" type="curve" smooth="yes"/>
      <point x="208" y="85"/>
      <point x="181" y="90"/>
      <point x="157" y="100" type="curve"/>
      <point x="219" y="316" type="line"/>
      <point x="288" y="374"/>
      <point x="325" y="389"/>
    </contour>
  </outline>
</glyph>
<glyph name="q" format="2">
  <advance width="614"/>
  <unicode hex="0071"/>
  <outline>
    <contour>
      <point x="286" y="-230" type="line"/>
      <point x="398" y="-230" type="line"/>
      <point x="588" y="433" type="line"/>
      <point x="521" y="466"/>
      <point x="454" y="482"/>
      <point x="383" y="482" type="curve" smooth="yes"/>
      <point x="173" y="482"/>
      <point x="41" y="344"/>
      <point x="41" y="174" type="curve" smooth="yes"/>
      <point x="41" y="55"/>
      <point x="117" y="-8"/>
      <point x="203" y="-8" type="curve" smooth="yes"/>
      <point x="258" y="-8"/>
      <point x="309" y="10"/>
      <point x="369" y="59" type="curve"/>
    </contour>
    <contour>
      <point x="159" y="188" type="curve" smooth="yes"/>
      <point x="159" y="285"/>
      <point x="233" y="389"/>
      <point x="380" y="389" type="curve" smooth="yes"/>
      <point x="407" y="389"/>
      <point x="434" y="384"/>
      <point x="459" y="374" type="curve"/>
      <point x="397" y="158" type="line"/>
      <point x="327" y="100"/>
      <point x="288" y="85"/>
      <point x="248" y="85" type="curve" smooth="yes"/>
      <point x="195" y="85"/>
      <point x="159" y="121"/>
    </contour>
  </outline>
</glyph>
<glyph name="r" format="2">
  <advance width="614"/>
  <unicode hex="0072"/>
  <anchor x="381" y="502" name="aboveLC"/>
  <anchor x="166" y="-35" name="below"/>
  <outline>
    <contour>
      <point x="14" y="95" type="line"/>
      <point x="-13" y="0" type="line"/>
      <point x="350" y="0" type="line"/>
      <point x="378" y="95" type="line"/>
      <point x="238" y="95" type="line"/>
      <point x="277" y="231" type="line"/>
      <point x="410" y="343"/>
      <point x="430" y="354"/>
      <point x="517" y="357" type="curve" smooth="yes"/>
      <point x="597" y="360" type="line"/>
      <point x="606" y="475" type="line"/>
      <point x="541" y="473" type="line" smooth="yes"/>
      <point x="460" y="471"/>
      <point x="428" y="456"/>
      <point x="298" y="323" type="curve"/>
      <point x="334" y="471" type="line"/>
      <point x="142" y="471" type="line"/>
      <point x="115" y="376" type="line"/>
      <point x="208" y="376" type="line"/>
      <point x="127" y="95" type="line"/>
    </contour>
  </outline>
</glyph>
<glyph name="t" format="2">
  <advance width="614"/>
  <unicode hex="0074"/>
  <anchor x="620" y="788" name="topright"/>
  <anchor x="245" y="-35" name="below"/>
  <anchor x="250" y="-10" name="belowcedilla"/>
  <outline>
    <contour>
      <point x="312" y="239" type="curve" smooth="yes"/>
      <point x="364" y="376" type="line"/>
      <point x="552" y="376" type="line"/>
      <point x="579" y="471" type="line"/>
      <point x="400" y="471" type="line"/>
      <point x="464" y="639" type="line"/>
      <point x="355" y="639" type="line"/>
      <point x="290" y="471" type="line"/>
      <point x="119" y="471" type="line"/>
      <point x="92" y="376" type="line"/>
      <point x="252" y="376" type="line"/>
      <point x="202" y="246" type="line" smooth="yes"/>
      <point x="176" y="180"/>
      <point x="174" y="152"/>
      <point x="174" y="129" type="curve" smooth="yes"/>
      <point x="174" y="53"/>
      <point x="220" y="2"/>
      <point x="348" y="-2" type="curve" smooth="yes"/>
      <point x="455" y="-6" type="line"/>
      <point x="482" y="90" type="line"/>
      <point x="362" y="98" type="line" smooth="yes"/>
      <point x="311" y="101"/>
      <point x="291" y="120"/>
      <point x="291" y="156" type="curve" smooth="yes"/>
      <point x="291" y="172"/>
      <point x="296" y="197"/>
    </contour>
  </outline>
</glyph>
<glyph name="u" format="2">
  <advance width="614"/>
  <unicode hex="0075"/>
  <anchor x="385" y="502" name="aboveLC"/>
  <anchor x="232" y="-35" name="below"/>
  <anchor x="406" y="-10" name="belowogonek"/>
  <anchor x="375" y="465" name="aboveLCx"/>
  <outline>
    <contour>
      <point x="359" y="0" type="line"/>
      <point x="459" y="0" type="line"/>
      <point x="594" y="471" type="line"/>
      <point x="482" y="471" type="line"/>
      <point x="414" y="232" type="line"/>
      <point x="278" y="110"/>
      <point x="247" y="96"/>
      <point x="211" y="96" type="curve" smooth="yes"/>
      <point x="186" y="96"/>
      <point x="171" y="108"/>
      <point x="171" y="132" type="curve" smooth="yes"/>
      <point x="171" y="141"/>
      <point x="172" y="153"/>
      <point x="179" y="174" type="curve" smooth="yes"/>
      <point x="264" y="471" type="line"/>
      <point x="152" y="471" type="line"/>
      <point x="62" y="160" type="line" smooth="yes"/>
      <point x="53" y="127"/>
      <point x="49" y="105"/>
      <point x="49" y="87" type="curve" smooth="yes"/>
      <point x="49" y="27"/>
      <point x="89" y="-9"/>
      <point x="157" y="-9" type="curve" smooth="yes"/>
      <point x="220" y="-9"/>
      <point x="266" y="11"/>
      <point x="386" y="116" type="curve"/>
    </contour>
  </outline>
</glyph>
<glyph name="x" format="2">
  <advance width="614"/>
  <unicode hex="0078"/>
  <anchor x="384" y="502" name="aboveLC"/>
  <anchor x="229" y="-35" name="below"/>
  <anchor x="238" y="-3" name="belowx"/>
  <anchor x="375" y="470" name="aboveLCx"/>
  <outline>
    <contour>
      <point x="-9" y="0" type="line"/>
      <point x="125" y="0" type="line"/>
      <point x="289" y="175" type="line"/>
      <point x="373" y="0" type="line"/>
      <point x="505" y="0" type="line"/>
      <point x="370" y="234" type="line"/>
      <point x="608" y="471" type="line"/>
      <point x="466" y="471" type="line"/>
      <point x="322" y="315" type="line"/>
      <point x="248" y="471" type="line"/>
      <point x="122" y="471" type="line"/>
      <point x="241" y="250" type="line"/>
    </contour>
  </outline>
</glyph>
<glyph name="y" format="2">
  <advance width="614"/>
  <unicode hex="0079"/>
  <anchor x="379" y="502" name="aboveLC"/>
  <anchor x="415" y="-35" name="below"/>
  <anchor x="369" y="470" name="aboveLCx"/>
  <outline>
    <contour>
      <point x="217" y="-136" type="curve" smooth="yes"/>
      <point x="635" y="471" type="line"/>
      <point x="505" y="471" type="line"/>
      <point x="265" y="106" type="line"/>
      <point x="226" y="471" type="line"/>
      <point x="112" y="471" type="line"/>
      <point x="178" y="-12" type="line"/>
      <point x="132" y="-77" type="line" smooth="yes"/>
      <point x="97" y="-127"/>
      <point x="84" y="-132"/>
      <point x="24" y="-135" type="curve" smooth="yes"/>
      <point x="-89" y="-141" type="line"/>
      <point x="-88" y="-235" type="line"/>
      <point x="34" y="-229" type="line" smooth="yes"/>
      <point x="146" y="-225"/>
      <point x="168" y="-207"/>
    </contour>
  </outline>
</glyph>
<glyph name="z" format="2">
  <advance width="614"/>
  <unicode hex="007A"/>
  <anchor x="373" y="502" name="aboveLC"/>
  <anchor x="242" y="-35" name="below"/>
  <anchor x="249" y="-10" name="belowcedilla"/>
  <outline>
    <contour>
      <point x="38" y="0" type="line"/>
      <point x="469" y="0" type="line"/>
      <point x="495" y="89" type="line"/>
      <point x="213" y="89" type="line"/>
      <point x="213" y="92" type="line"/>
      <point x="567" y="416" type="line"/>
      <point x="567" y="471" type="line"/>
      <point x="159" y="471" type="line"/>
      <point x="133" y="382" type="line"/>
      <point x="395" y="382" type="line"/>
      <point x="395" y="379" type="line"/>
      <point x="38" y="54" type="line"/>
    </contour>
  </outline>
</glyph>
<glyph name="braceleft" format="2">
  <advance width="614"/>
  <unicode hex="007B"/>
  <outline>
    <contour>
      <point x="119" y="-27" type="curve" smooth="yes"/>
      <point x="119" y="-68"/>
      <point x="144" y="-97"/>
      <point x="239" y="-111" type="curve" smooth="yes"/>
      <point x="457" y="-143" type="line"/>
      <point x="483" y="-50" type="line"/>
      <point x="273" y="-19" type="line" smooth="yes"/>
      <point x="253" y="-16"/>
      <point x="247" y="-8"/>
      <point x="247" y="2" type="curve" smooth="yes"/>
      <point x="247" y="14"/>
      <point x="251" y="22"/>
      <point x="286" y="50" type="curve" smooth="yes"/>
      <point x="345" y="99" type="line" smooth="yes"/>
      <point x="412" y="156"/>
      <point x="423" y="175"/>
      <point x="423" y="200" type="curve" smooth="yes"/>
      <point x="423" y="238"/>
      <point x="403" y="265"/>
      <point x="185" y="319" type="curve"/>
      <point x="189" y="333" type="line"/>
      <point x="491" y="396"/>
      <point x="511" y="432"/>
      <point x="511" y="476" type="curve" smooth="yes"/>
      <point x="511" y="496"/>
      <point x="501" y="516"/>
      <point x="476" y="556" type="curve" smooth="yes"/>
      <point x="442" y="610" type="line" smooth="yes"/>
      <point x="428" y="632"/>
      <point x="426" y="640"/>
      <point x="426" y="649" type="curve" smooth="yes"/>
      <point x="426" y="664"/>
      <point x="436" y="675"/>
      <point x="474" y="680" type="curve" smooth="yes"/>
      <point x="702" y="711" type="line"/>
      <point x="729" y="805" type="line"/>
      <point x="445" y="767" type="line" smooth="yes"/>
      <point x="337" y="752"/>
      <point x="307" y="707"/>
      <point x="307" y="655" type="curve" smooth="yes"/>
      <point x="307" y="633"/>
      <point x="316" y="611"/>
      <point x="335" y="580" type="curve" smooth="yes"/>
      <point x="368" y="526" type="line" smooth="yes"/>
      <point x="381" y="505"/>
      <point x="386" y="493"/>
      <point x="386" y="484" type="curve" smooth="yes"/>
      <point x="386" y="459"/>
      <point x="369" y="445"/>
      <point x="110" y="380" type="curve"/>
      <point x="82" y="282" type="line"/>
      <point x="278" y="230"/>
      <point x="299" y="212"/>
      <point x="299" y="193" type="curve" smooth="yes"/>
      <point x="299" y="180"/>
      <point x="293" y="172"/>
      <point x="255" y="140" type="curve" smooth="yes"/>
      <point x="195" y="88" type="line" smooth="yes"/>
      <point x="132" y="34"/>
      <point x="119" y="9"/>
    </contour>
  </outline>
</glyph>
<glyph name="braceright" format="2">
  <advance width="614"/>
  <unicode hex="007D"/>
  <outline>
    <contour>
      <point x="371" y="7" type="curve" smooth="yes"/>
      <point x="371" y="29"/>
      <point x="362" y="51"/>
      <point x="343" y="82" type="curve" smooth="yes"/>
      <point x="310" y="136" type="line" smooth="yes"/>
      <point x="297" y="157"/>
      <point x="292" y="169"/>
      <point x="292" y="178" type="curve" smooth="yes"/>
      <point x="292" y="203"/>
      <point x="309" y="217"/>
      <point x="568" y="282" type="curve"/>
      <point x="596" y="380" type="line"/>
      <point x="400" y="432"/>
      <point x="379" y="450"/>
      <point x="379" y="469" type="curve" smooth="yes"/>
      <point x="379" y="482"/>
      <point x="385" y="490"/>
      <point x="423" y="522" type="curve" smooth="yes"/>
      <point x="483" y="574" type="line" smooth="yes"/>
      <point x="546" y="628"/>
      <point x="559" y="653"/>
      <point x="559" y="689" type="curve" smooth="yes"/>
      <point x="559" y="730"/>
      <point x="534" y="759"/>
      <point x="440" y="773" type="curve" smooth="yes"/>
      <point x="222" y="805" type="line"/>
      <point x="195" y="712" type="line"/>
      <point x="406" y="681" type="line" smooth="yes"/>
      <point x="425" y="678"/>
      <point x="431" y="670"/>
      <point x="431" y="660" type="curve" smooth="yes"/>
      <point x="431" y="648"/>
      <point x="427" y="640"/>
      <point x="392" y="612" type="curve" smooth="yes"/>
      <point x="334" y="563" type="line" smooth="yes"/>
      <point x="266" y="506"/>
      <point x="255" y="487"/>
      <point x="255" y="462" type="curve" smooth="yes"/>
      <point x="255" y="424"/>
      <point x="275" y="397"/>
      <point x="493" y="343" type="curve"/>
      <point x="489" y="329" type="line"/>
      <point x="187" y="266"/>
      <point x="168" y="230"/>
      <point x="168" y="186" type="curve" smooth="yes"/>
      <point x="168" y="166"/>
      <point x="177" y="146"/>
      <point x="202" y="106" type="curve" smooth="yes"/>
      <point x="236" y="52" type="line" smooth="yes"/>
      <point x="250" y="30"/>
      <point x="252" y="22"/>
      <point x="252" y="13" type="curve" smooth="yes"/>
      <point x="252" y="-2"/>
      <point x="243" y="-13"/>
      <point x="205" y="-18" type="curve" smooth="yes"/>
      <point x="-23" y="-49" type="line"/>
      <point x="-50" y="-143" type="line"/>
      <point x="233" y="-105" type="line" smooth="yes"/>
      <point x="342" y="-90"/>
      <point x="371" y="-45"/>
    </contour>
  </outline>
</glyph>
<glyph name="asciitilde" format="2">
  <advance width="614"/>
  <unicode hex="007E"/>
  <outline>
    <contour>
      <point x="346" y="380" type="curve" smooth="yes"/>
      <point x="282" y="438"/>
      <point x="263" y="449"/>
      <point x="229" y="449" type="curve" smooth="yes"/>
      <point x="176" y="449"/>
      <point x="140" y="425"/>
      <point x="41" y="254" type="curve"/>
      <point x="122" y="207" type="line"/>
      <point x="192" y="322"/>
      <point x="206" y="343"/>
      <point x="225" y="343" type="curve" smooth="yes"/>
      <point x="239" y="343"/>
      <point x="248" y="338"/>
      <point x="308" y="284" type="curve" smooth="yes"/>
      <point x="372" y="227"/>
      <point x="391" y="215"/>
      <point x="425" y="215" type="curve" smooth="yes"/>
      <point x="478" y="215"/>
      <point x="514" y="239"/>
      <point x="613" y="410" type="curve"/>
      <point x="533" y="458" type="line"/>
      <point x="462" y="343"/>
      <point x="448" y="322"/>
      <point x="429" y="322" type="curve" smooth="yes"/>
      <point x="415" y="322"/>
      <point x="407" y="327"/>
    </contour>
  </outline>
</glyph>
<glyph name="exclamdown" format="2">
  <advance width="614"/>
  <unicode hex="00A1"/>
  <outline>
    <contour>
      <point x="416" y="575" type="curve" smooth="yes"/>
      <point x="504" y="575"/>
      <point x="534" y="621"/>
      <point x="534" y="670" type="curve" smooth="yes"/>
      <point x="534" y="705"/>
      <point x="508" y="725"/>
      <point x="446" y="725" type="curve" smooth="yes"/>
      <point x="358" y="725"/>
      <point x="328" y="679"/>
      <point x="328" y="630" type="curve" smooth="yes"/>
      <point x="328" y="595"/>
      <point x="355" y="575"/>
    </contour>
    <contour>
      <point x="408" y="452" type="line"/>
      <point x="334" y="452" type="line"/>
      <point x="135" y="0" type="line"/>
      <point x="345" y="0" type="line"/>
    </contour>
  </outline>
</glyph>
<glyph name="cent" format="2">
  <advance width="614"/>
  <unicode hex="00A2"/>
  <outline>
    <contour>
      <point x="165" y="-142" type="line"/>
      <point x="243" y="-142" type="line"/>
      <point x="293" y="0" type="line"/>
      <point x="364" y="3"/>
      <point x="432" y="20"/>
      <point x="515" y="62" type="curve"/>
      <point x="480" y="150" type="line"/>
      <point x="384" y="106"/>
      <point x="334" y="95"/>
      <point x="286" y="95" type="curve" smooth="yes"/>
      <point x="220" y="95"/>
      <point x="177" y="132"/>
      <point x="177" y="193" type="curve" smooth="yes"/>
      <point x="177" y="242"/>
      <point x="200" y="298"/>
      <point x="240" y="338" type="curve" smooth="yes"/>
      <point x="274" y="372"/>
      <point x="324" y="395"/>
      <point x="379" y="395" type="curve" smooth="yes"/>
      <point x="426" y="395"/>
      <point x="465" y="383"/>
      <point x="546" y="339" type="curve"/>
      <point x="593" y="428" type="line"/>
      <point x="543" y="456"/>
      <point x="502" y="472"/>
      <point x="462" y="481" type="curve"/>
      <point x="514" y="632" type="line"/>
      <point x="436" y="632" type="line"/>
      <point x="387" y="490" type="line"/>
      <point x="381" y="490"/>
      <point x="375" y="490"/>
      <point x="369" y="490" type="curve" smooth="yes"/>
      <point x="279" y="490"/>
      <point x="201" y="454"/>
      <point x="145" y="398" type="curve" smooth="yes"/>
      <point x="83" y="336"/>
      <point x="54" y="258"/>
      <point x="54" y="182" type="curve" smooth="yes"/>
      <point x="54" y="83"/>
      <point x="113" y="20"/>
      <point x="216" y="4" type="curve"/>
    </contour>
  </outline>
</glyph>
<glyph name="sterling" format="2">
  <advance width="614"/>
  <unicode hex="00A3"/>
  <outline>
    <contour>
      <point x="8" y="0" type="line"/>
      <point x="491" y="0" type="line"/>
      <point x="518" y="94" type="line"/>
      <point x="169" y="94" type="line"/>
      <point x="278" y="176"/>
      <point x="320" y="220"/>
      <point x="336" y="256" type="curve"/>
      <point x="516" y="256" type="line"/>
      <point x="535" y="323" type="line"/>
      <point x="344" y="323" type="line"/>
      <point x="336" y="382"/>
      <point x="280" y="417"/>
      <point x="280" y="478" type="curve" smooth="yes"/>
      <point x="280" y="524"/>
      <point x="324" y="576"/>
      <point x="407" y="576" type="curve" smooth="yes"/>
      <point x="475" y="576"/>
      <point x="518" y="553"/>
      <point x="582" y="484" type="curve"/>
      <point x="652" y="559" type="line"/>
      <point x="574" y="638"/>
      <point x="514" y="670"/>
      <point x="410" y="670" type="curve" smooth="yes"/>
      <point x="245" y="670"/>
      <point x="167" y="568"/>
      <point x="167" y="480" type="curve" smooth="yes"/>
      <point x="167" y="391"/>
      <point x="224" y="359"/>
      <point x="243" y="315" type="curve"/>
      <point x="101" y="315" type="line"/>
      <point x="82" y="249" type="line"/>
      <point x="232" y="249" type="line"/>
      <point x="207" y="218"/>
      <point x="148" y="165"/>
      <point x="8" y="57" type="curve"/>
    </contour>
  </outline>
</glyph>
<glyph name="section" format="2">
  <advance width="614"/>
  <unicode hex="00A7"/>
  <outline>
    <contour>
      <point x="34" y="180" type="curve" smooth="yes"/>
      <point x="34" y="129"/>
      <point x="55" y="95"/>
      <point x="146" y="42" type="curve" smooth="yes"/>
      <point x="235" y="-10" type="line" smooth="yes"/>
      <point x="296" y="-45"/>
      <point x="309" y="-60"/>
      <point x="309" y="-87" type="curve" smooth="yes"/>
      <point x="309" y="-124"/>
      <point x="280" y="-147"/>
      <point x="187" y="-147" type="curve" smooth="yes"/>
      <point x="127" y="-147"/>
      <point x="64" y="-136"/>
      <point x="-11" y="-114" type="curve"/>
      <point x="-37" y="-207" type="line"/>
      <point x="35" y="-227"/>
      <point x="106" y="-240"/>
      <point x="185" y="-240" type="curve" smooth="yes"/>
      <point x="345" y="-240"/>
      <point x="421" y="-172"/>
      <point x="421" y="-80" type="curve" smooth="yes"/>
      <point x="421" y="-28"/>
      <point x="404" y="7"/>
      <point x="355" y="43" type="curve"/>
      <point x="538" y="132"/>
      <point x="563" y="178"/>
      <point x="563" y="248" type="curve" smooth="yes"/>
      <point x="563" y="299"/>
      <point x="542" y="333"/>
      <point x="451" y="387" type="curve" smooth="yes"/>
      <point x="363" y="438" type="line" smooth="yes"/>
      <point x="301" y="473"/>
      <point x="289" y="488"/>
      <point x="289" y="515" type="curve" smooth="yes"/>
      <point x="289" y="552"/>
      <point x="318" y="575"/>
      <point x="410" y="575" type="curve" smooth="yes"/>
      <point x="471" y="575"/>
      <point x="533" y="564"/>
      <point x="608" y="542" type="curve"/>
      <point x="635" y="635" type="line"/>
      <point x="562" y="655"/>
      <point x="492" y="668"/>
      <point x="412" y="668" type="curve" smooth="yes"/>
      <point x="252" y="668"/>
      <point x="177" y="600"/>
      <point x="177" y="508" type="curve" smooth="yes"/>
      <point x="177" y="456"/>
      <point x="194" y="421"/>
      <point x="241" y="385" type="curve"/>
      <point x="60" y="296"/>
      <point x="34" y="250"/>
    </contour>
    <contour>
      <point x="241" y="114" type="line" smooth="yes"/>
      <point x="156" y="164"/>
      <point x="147" y="176"/>
      <point x="147" y="201" type="curve" smooth="yes"/>
      <point x="147" y="237"/>
      <point x="167" y="259"/>
      <point x="316" y="338" type="curve"/>
      <point x="356" y="314" type="line" smooth="yes"/>
      <point x="441" y="265"/>
      <point x="451" y="253"/>
      <point x="451" y="227" type="curve" smooth="yes"/>
      <point x="451" y="192"/>
      <point x="430" y="169"/>
      <point x="281" y="90" type="curve"/>
    </contour>
  </outline>
</glyph>
<glyph name="copyright" format="2">
  <advance width="614"/>
  <unicode hex="00A9"/>
  <outline>
    <contour>
      <point x="581" y="311" type="curve" smooth="yes"/>
      <point x="609" y="408"/>
      <point x="622" y="485"/>
      <point x="622" y="545" type="curve" smooth="yes"/>
      <point x="622" y="679"/>
      <point x="552" y="725"/>
      <point x="433" y="725" type="curve" smooth="yes"/>
      <point x="287" y="725"/>
      <point x="170" y="635"/>
      <point x="87" y="344" type="curve" smooth="yes"/>
      <point x="59" y="248"/>
      <point x="46" y="171"/>
      <point x="46" y="111" type="curve" smooth="yes"/>
      <point x="46" y="-24"/>
      <point x="116" y="-70"/>
      <point x="235" y="-70" type="curve" smooth="yes"/>
      <point x="380" y="-70"/>
      <point x="497" y="21"/>
    </contour>
    <contour>
      <point x="133" y="327" type="curve" smooth="yes"/>
      <point x="213" y="605"/>
      <point x="309" y="680"/>
      <point x="430" y="680" type="curve" smooth="yes"/>
      <point x="518" y="680"/>
      <point x="573" y="648"/>
      <point x="573" y="547" type="curve" smooth="yes"/>
      <point x="573" y="492"/>
      <point x="561" y="423"/>
      <point x="534" y="328" type="curve" smooth="yes"/>
      <point x="454" y="50"/>
      <point x="359" y="-25"/>
      <point x="238" y="-25" type="curve" smooth="yes"/>
      <point x="149" y="-25"/>
      <point x="94" y="7"/>
      <point x="94" y="109" type="curve" smooth="yes"/>
      <point x="94" y="165"/>
      <point x="107" y="234"/>
    </contour>
    <contour>
      <point x="284" y="97" type="curve" smooth="yes"/>
      <point x="324" y="97"/>
      <point x="361" y="108"/>
      <point x="428" y="181" type="curve"/>
      <point x="380" y="221" type="line"/>
      <point x="333" y="170"/>
      <point x="314" y="163"/>
      <point x="294" y="163" type="curve" smooth="yes"/>
      <point x="271" y="163"/>
      <point x="257" y="182"/>
      <point x="257" y="223" type="curve" smooth="yes"/>
      <point x="257" y="332"/>
      <point x="328" y="492"/>
      <point x="388" y="492" type="curve" smooth="yes"/>
      <point x="411" y="492"/>
      <point x="422" y="485"/>
      <point x="442" y="431" type="curve"/>
      <point x="503" y="456" type="line"/>
      <point x="476" y="540"/>
      <point x="443" y="558"/>
      <point x="393" y="558" type="curve" smooth="yes"/>
      <point x="286" y="558"/>
      <point x="185" y="379"/>
      <point x="185" y="219" type="curve" smooth="yes"/>
      <point x="185" y="140"/>
      <point x="218" y="97"/>
    </contour>
  </outline>
</glyph>
<glyph name="ordfeminine" format="2">
  <advance width="614"/>
  <unicode hex="00AA"/>
  <outline>
    <contour>
      <point x="514" y="443" type="curve" smooth="yes"/>
      <point x="555" y="564" type="line" smooth="yes"/>
      <point x="562" y="582"/>
      <point x="565" y="599"/>
      <point x="565" y="613" type="curve" smooth="yes"/>
      <point x="565" y="667"/>
      <point x="517" y="692"/>
      <point x="417" y="692" type="curve" smooth="yes"/>
      <point x="378" y="692"/>
      <point x="330" y="689"/>
      <point x="264" y="680" type="curve"/>
      <point x="245" y="607" type="line"/>
      <point x="314" y="617"/>
      <point x="366" y="621"/>
      <point x="393" y="621" type="curve" smooth="yes"/>
      <point x="454" y="621"/>
      <point x="476" y="611"/>
      <point x="476" y="590" type="curve" smooth="yes"/>
      <point x="476" y="582"/>
      <point x="474" y="576"/>
      <point x="468" y="558" type="curve" smooth="yes"/>
      <point x="466" y="551" type="line"/>
      <point x="358" y="544" type="line" smooth="yes"/>
      <point x="256" y="537"/>
      <point x="219" y="524"/>
      <point x="192" y="498" type="curve" smooth="yes"/>
      <point x="169" y="475"/>
      <point x="158" y="435"/>
      <point x="158" y="401" type="curve" smooth="yes"/>
      <point x="158" y="357"/>
      <point x="185" y="324"/>
      <point x="249" y="324" type="curve" smooth="yes"/>
      <point x="311" y="324"/>
      <point x="361" y="338"/>
      <point x="419" y="373" type="curve"/>
      <point x="423" y="373" type="line"/>
      <point x="433" y="349"/>
      <point x="458" y="333"/>
      <point x="504" y="329" type="curve" smooth="yes"/>
      <point x="540" y="325" type="line"/>
      <point x="559" y="389" type="line"/>
      <point x="532" y="394" type="line" smooth="yes"/>
      <point x="515" y="397"/>
      <point x="508" y="401"/>
      <point x="508" y="413" type="curve" smooth="yes"/>
      <point x="508" y="419"/>
      <point x="509" y="427"/>
    </contour>
    <contour>
      <point x="287" y="391" type="curve" smooth="yes"/>
      <point x="259" y="391"/>
      <point x="247" y="401"/>
      <point x="247" y="419" type="curve" smooth="yes"/>
      <point x="247" y="435"/>
      <point x="253" y="453"/>
      <point x="265" y="465" type="curve" smooth="yes"/>
      <point x="277" y="477"/>
      <point x="305" y="483"/>
      <point x="369" y="488" type="curve" smooth="yes"/>
      <point x="448" y="494" type="line"/>
      <point x="429" y="436" type="line"/>
      <point x="380" y="403"/>
      <point x="325" y="391"/>
    </contour>
    <contour>
      <point x="122" y="238" type="line"/>
      <point x="103" y="171" type="line"/>
      <point x="486" y="171" type="line"/>
      <point x="505" y="238" type="line"/>
    </contour>
  </outline>
</glyph>
<glyph name="registered" format="2">
  <advance width="614"/>
  <unicode hex="00AE"/>
  <outline>
    <contour>
      <point x="327" y="208" type="curve" smooth="yes"/>
      <point x="510" y="208"/>
      <point x="623" y="377"/>
      <point x="623" y="538" type="curve" smooth="yes"/>
      <point x="623" y="655"/>
      <point x="549" y="725"/>
      <point x="418" y="725" type="curve" smooth="yes"/>
      <point x="237" y="725"/>
      <point x="123" y="556"/>
      <point x="123" y="395" type="curve" smooth="yes"/>
      <point x="123" y="278"/>
      <point x="198" y="208"/>
    </contour>
    <contour>
      <point x="419" y="689" type="curve" smooth="yes"/>
      <point x="526" y="689"/>
      <point x="583" y="635"/>
      <point x="583" y="534" type="curve" smooth="yes"/>
      <point x="583" y="390"/>
      <point x="477" y="244"/>
      <point x="327" y="244" type="curve" smooth="yes"/>
      <point x="220" y="244"/>
      <point x="164" y="298"/>
      <point x="164" y="399" type="curve" smooth="yes"/>
      <point x="164" y="543"/>
      <point x="269" y="689"/>
    </contour>
    <contour>
      <point x="462" y="345" type="line"/>
      <point x="432" y="401" type="line" smooth="yes"/>
      <point x="416" y="432"/>
      <point x="407" y="441"/>
      <point x="392" y="450" type="curve"/>
      <point x="392" y="453" type="line"/>
      <point x="469" y="458"/>
      <point x="502" y="492"/>
      <point x="502" y="543" type="curve" smooth="yes"/>
      <point x="502" y="580"/>
      <point x="476" y="604"/>
      <point x="423" y="604" type="curve" smooth="yes"/>
      <point x="323" y="604" type="line"/>
      <point x="248" y="343" type="line"/>
      <point x="302" y="343" type="line"/>
      <point x="330" y="442" type="line"/>
      <point x="350" y="439"/>
      <point x="357" y="430"/>
      <point x="368" y="408" type="curve" smooth="yes"/>
      <point x="398" y="343" type="line"/>
      <point x="461" y="343" type="line"/>
    </contour>
    <contour>
      <point x="410" y="560" type="line" smooth="yes"/>
      <point x="433" y="560"/>
      <point x="444" y="550"/>
      <point x="444" y="533" type="curve" smooth="yes"/>
      <point x="444" y="507"/>
      <point x="425" y="487"/>
      <point x="364" y="483" type="curve" smooth="yes"/>
      <point x="342" y="482" type="line"/>
      <point x="364" y="560" type="line"/>
    </contour>
  </outline>
</glyph>
<glyph name="degree" format="2">
  <advance width="614"/>
  <unicode hex="00B0"/>
  <outline>
    <contour>
      <point x="355" y="287" type="curve" smooth="yes"/>
      <point x="495" y="287"/>
      <point x="598" y="399"/>
      <point x="598" y="527" type="curve" smooth="yes"/>
      <point x="598" y="626"/>
      <point x="525" y="692"/>
      <point x="405" y="692" type="curve" smooth="yes"/>
      <point x="266" y="692"/>
      <point x="163" y="580"/>
      <point x="163" y="452" type="curve" smooth="yes"/>
      <point x="163" y="353"/>
      <point x="236" y="287"/>
    </contour>
    <contour>
      <point x="406" y="613" type="curve" smooth="yes"/>
      <point x="466" y="613"/>
      <point x="505" y="577"/>
      <point x="505" y="522" type="curve" smooth="yes"/>
      <point x="505" y="440"/>
      <point x="437" y="366"/>
      <point x="355" y="366" type="curve" smooth="yes"/>
      <point x="294" y="366"/>
      <point x="255" y="403"/>
      <point x="255" y="457" type="curve" smooth="yes"/>
      <point x="255" y="540"/>
      <point x="324" y="613"/>
    </contour>
  </outline>
</glyph>
<glyph name="mu" format="2">
  <advance width="614"/>
  <unicode hex="00B5"/>
  <outline>
    <contour>
      <point x="178" y="-9" type="curve" smooth="yes"/>
      <point x="230" y="-9"/>
      <point x="269" y="11"/>
      <point x="386" y="116" type="curve"/>
      <point x="359" y="0" type="line"/>
      <point x="459" y="0" type="line"/>
      <point x="594" y="471" type="line"/>
      <point x="482" y="471" type="line"/>
      <point x="414" y="232" type="line"/>
      <point x="280" y="112"/>
      <point x="251" y="96"/>
      <point x="216" y="96" type="curve" smooth="yes"/>
      <point x="185" y="96"/>
      <point x="171" y="109"/>
      <point x="171" y="134" type="curve" smooth="yes"/>
      <point x="171" y="143"/>
      <point x="172" y="154"/>
      <point x="176" y="166" type="curve" smooth="yes"/>
      <point x="264" y="471" type="line"/>
      <point x="152" y="471" type="line"/>
      <point x="-50" y="-230" type="line"/>
      <point x="68" y="-230" type="line"/>
      <point x="73" y="-213" type="line"/>
      <point x="115" y="22" type="line"/>
      <point x="130" y="1"/>
      <point x="152" y="-9"/>
    </contour>
  </outline>
</glyph>
<glyph name="paragraph" format="2">
  <advance width="614"/>
  <unicode hex="00B6"/>
  <outline>
    <contour>
      <point x="320" y="261" type="line"/>
      <point x="410" y="573" type="line"/>
      <point x="506" y="573" type="line"/>
      <point x="342" y="0" type="line"/>
      <point x="447" y="0" type="line"/>
      <point x="635" y="655" type="line"/>
      <point x="432" y="655" type="line" smooth="yes"/>
      <point x="222" y="655"/>
      <point x="130" y="547"/>
      <point x="130" y="412" type="curve" smooth="yes"/>
      <point x="130" y="315"/>
      <point x="195" y="261"/>
      <point x="317" y="261" type="curve" smooth="yes"/>
    </contour>
  </outline>
</glyph>
<glyph name="ordmasculine" format="2">
  <advance width="614"/>
  <unicode hex="00BA"/>
  <outline>
    <contour>
      <point x="420" y="692" type="curve" smooth="yes"/>
      <point x="281" y="692"/>
      <point x="186" y="595"/>
      <point x="186" y="471" type="curve" smooth="yes"/>
      <point x="186" y="380"/>
      <point x="252" y="324"/>
      <point x="350" y="324" type="curve" smooth="yes"/>
      <point x="489" y="324"/>
      <point x="584" y="421"/>
      <point x="584" y="545" type="curve" smooth="yes"/>
      <point x="584" y="636"/>
      <point x="518" y="692"/>
    </contour>
    <contour>
      <point x="359" y="398" type="curve" smooth="yes"/>
      <point x="306" y="398"/>
      <point x="275" y="429"/>
      <point x="275" y="475" type="curve" smooth="yes"/>
      <point x="275" y="554"/>
      <point x="335" y="618"/>
      <point x="411" y="618" type="curve" smooth="yes"/>
      <point x="464" y="618"/>
      <point x="494" y="587"/>
      <point x="494" y="541" type="curve" smooth="yes"/>
      <point x="494" y="462"/>
      <point x="435" y="398"/>
    </contour>
    <contour>
      <point x="126" y="238" type="line"/>
      <point x="107" y="171" type="line"/>
      <point x="478" y="171" type="line"/>
      <point x="498" y="238" type="line"/>
    </contour>
  </outline>
</glyph>
<glyph name="questiondown" format="2">
  <advance width="614"/>
  <unicode hex="00BF"/>
  <outline>
    <contour>
      <point x="475" y="575" type="curve" smooth="yes"/>
      <point x="562" y="575"/>
      <point x="592" y="621"/>
      <point x="592" y="670" type="curve" smooth="yes"/>
      <point x="592" y="705"/>
      <point x="566" y="725"/>
      <point x="504" y="725" type="curve" smooth="yes"/>
      <point x="417" y="725"/>
      <point x="386" y="679"/>
      <point x="386" y="630" type="curve" smooth="yes"/>
      <point x="386" y="595"/>
      <point x="413" y="575"/>
    </contour>
    <contour>
      <point x="395" y="452" type="line"/>
      <point x="369" y="390"/>
      <point x="361" y="382"/>
      <point x="330" y="370" type="curve" smooth="yes"/>
      <point x="233" y="331" type="line" smooth="yes"/>
      <point x="89" y="272"/>
      <point x="50" y="217"/>
      <point x="50" y="130" type="curve" smooth="yes"/>
      <point x="50" y="41"/>
      <point x="114" y="-15"/>
      <point x="228" y="-15" type="curve" smooth="yes"/>
      <point x="308" y="-15"/>
      <point x="384" y="1"/>
      <point x="526" y="64" type="curve"/>
      <point x="496" y="152" type="line"/>
      <point x="349" y="90"/>
      <point x="300" y="79"/>
      <point x="251" y="79" type="curve" smooth="yes"/>
      <point x="200" y="79"/>
      <point x="169" y="102"/>
      <point x="169" y="144" type="curve" smooth="yes"/>
      <point x="169" y="183"/>
      <point x="186" y="213"/>
      <point x="285" y="252" type="curve" smooth="yes"/>
      <point x="383" y="291" type="line" smooth="yes"/>
      <point x="434" y="312"/>
      <point x="450" y="326"/>
      <point x="457" y="351" type="curve" smooth="yes"/>
      <point x="462" y="368"/>
      <point x="465" y="391"/>
      <point x="469" y="452" type="curve"/>
    </contour>
  </outline>
</glyph>
<glyph name="Aring" format="2">
  <advance width="614"/>
  <unicode hex="00C5"/>
  <outline>
    <contour>
      <point x="87" y="0" type="line"/>
      <point x="178" y="155" type="line"/>
      <point x="402" y="155" type="line"/>
      <point x="404" y="0" type="line"/>
      <point x="513" y="0" type="line"/>
      <point x="498" y="579" type="line"/>
      <point x="568" y="601"/>
      <point x="606" y="653"/>
      <point x="606" y="715" type="curve" smooth="yes"/>
      <point x="606" y="780"/>
      <point x="551" y="824"/>
      <point x="454" y="824" type="curve" smooth="yes"/>
      <point x="335" y="824"/>
      <point x="271" y="759"/>
      <point x="271" y="679" type="curve" smooth="yes"/>
      <point x="271" y="642"/>
      <point x="288" y="612"/>
      <point x="321" y="593" type="curve"/>
      <point x="-32" y="0" type="line"/>
    </contour>
    <contour>
      <point x="444" y="759" type="curve" smooth="yes"/>
      <point x="499" y="759"/>
      <point x="525" y="740"/>
      <point x="525" y="711" type="curve" smooth="yes"/>
      <point x="525" y="671"/>
      <point x="495" y="634"/>
      <point x="432" y="634" type="curve" smooth="yes"/>
      <point x="377" y="634"/>
      <point x="351" y="653"/>
      <point x="351" y="683" type="curve" smooth="yes"/>
      <point x="351" y="723"/>
      <point x="382" y="759"/>
    </contour>
    <contour>
      <point x="228" y="244" type="line"/>
      <point x="400" y="545" type="line"/>
      <point x="404" y="244" type="line"/>
    </contour>
  </outline>
</glyph>
<glyph name="Ccedilla" format="2">
  <advance width="614"/>
  <unicode hex="00C7"/>
  <outline>
    <contour>
      <point x="387" y="-144" type="curve" smooth="yes"/>
      <point x="387" y="-104"/>
      <point x="361" y="-77"/>
      <point x="259" y="-64" type="curve"/>
      <point x="289" y="-15" type="line"/>
      <point x="361" y="-13"/>
      <point x="432" y="9"/>
      <point x="528" y="68" type="curve"/>
      <point x="480" y="150" type="line"/>
      <point x="388" y="96"/>
      <point x="337" y="79"/>
      <point x="285" y="79" type="curve" smooth="yes"/>
      <point x="227" y="79"/>
      <point x="179" y="121"/>
      <point x="179" y="214" type="curve" smooth="yes"/>
      <point x="179" y="404"/>
      <point x="303" y="576"/>
      <point x="445" y="576" type="curve" smooth="yes"/>
      <point x="496" y="576"/>
      <point x="531" y="565"/>
      <point x="599" y="505" type="curve"/>
      <point x="662" y="587" type="line"/>
      <point x="588" y="651"/>
      <point x="530" y="670"/>
      <point x="452" y="670" type="curve" smooth="yes"/>
      <point x="210" y="670"/>
      <point x="63" y="432"/>
      <point x="63" y="209" type="curve" smooth="yes"/>
      <point x="63" y="77"/>
      <point x="124" y="2"/>
      <point x="234" y="-12" type="curve"/>
      <point x="176" y="-107" type="line"/>
      <point x="179" y="-117" type="line"/>
      <point x="277" y="-124"/>
      <point x="303" y="-135"/>
      <point x="303" y="-155" type="curve" smooth="yes"/>
      <point x="303" y="-182"/>
      <point x="286" y="-195"/>
      <point x="94" y="-212" type="curve"/>
      <point x="95" y="-270" type="line"/>
      <point x="361" y="-247"/>
      <point x="387" y="-207"/>
    </contour>
  </outline>
</glyph>
<glyph name="Eth" format="2">
  <advance width="614"/>
  <unicode hex="00D0"/>
  <outline>
    <contour>
      <point x="44" y="298" type="line"/>
      <point x="125" y="298" type="line"/>
      <point x="39" y="0" type="line"/>
      <point x="114" y="0" type="line" smooth="yes"/>
      <point x="291" y="0"/>
      <point x="412" y="53"/>
      <point x="495" y="136" type="curve" smooth="yes"/>
      <point x="572" y="212"/>
      <point x="610" y="312"/>
      <point x="610" y="425" type="curve" smooth="yes"/>
      <point x="610" y="492"/>
      <point x="590" y="545"/>
      <point x="553" y="583" type="curve" smooth="yes"/>
      <point x="505" y="631"/>
      <point x="432" y="655"/>
      <point x="316" y="655" type="curve" smooth="yes"/>
      <point x="227" y="655" type="line"/>
      <point x="143" y="362" type="line"/>
      <point x="63" y="362" type="line"/>
    </contour>
    <contour>
      <point x="342" y="298" type="line"/>
      <point x="360" y="362" type="line"/>
      <point x="255" y="362" type="line"/>
      <point x="313" y="563" type="line"/>
      <point x="330" y="563" type="line" smooth="yes"/>
      <point x="447" y="563"/>
      <point x="494" y="519"/>
      <point x="494" y="423" type="curve" smooth="yes"/>
      <point x="494" y="252"/>
      <point x="378" y="110"/>
      <point x="179" y="95" type="curve"/>
      <point x="237" y="298" type="line"/>
    </contour>
  </outline>
</glyph>
<glyph name="Oslash" format="2">
  <advance width="614"/>
  <unicode hex="00D8"/>
  <outline>
    <contour>
      <point x="407" y="670" type="curve" smooth="yes"/>
      <point x="256" y="670"/>
      <point x="136" y="557"/>
      <point x="80" y="364" type="curve" smooth="yes"/>
      <point x="60" y="291"/>
      <point x="57" y="249"/>
      <point x="57" y="197" type="curve" smooth="yes"/>
      <point x="57" y="153"/>
      <point x="66" y="114"/>
      <point x="83" y="83" type="curve"/>
      <point x="-55" y="-71" type="line"/>
      <point x="44" y="-71" type="line"/>
      <point x="127" y="30" type="line"/>
      <point x="163" y="1"/>
      <point x="211" y="-15"/>
      <point x="266" y="-15" type="curve" smooth="yes"/>
      <point x="417" y="-15"/>
      <point x="537" y="98"/>
      <point x="593" y="291" type="curve" smooth="yes"/>
      <point x="613" y="364"/>
      <point x="617" y="406"/>
      <point x="617" y="458" type="curve" smooth="yes"/>
      <point x="617" y="505"/>
      <point x="607" y="545"/>
      <point x="588" y="578" type="curve"/>
      <point x="723" y="726" type="line"/>
      <point x="622" y="726" type="line"/>
      <point x="543" y="629" type="line"/>
      <point x="508" y="656"/>
      <point x="461" y="670"/>
    </contour>
    <contour>
      <point x="273" y="79" type="curve" smooth="yes"/>
      <point x="211" y="79"/>
      <point x="172" y="116"/>
      <point x="172" y="200" type="curve" smooth="yes"/>
      <point x="172" y="244"/>
      <point x="179" y="294"/>
      <point x="196" y="353" type="curve" smooth="yes"/>
      <point x="240" y="503"/>
      <point x="314" y="576"/>
      <point x="400" y="576" type="curve" smooth="yes"/>
      <point x="462" y="576"/>
      <point x="502" y="539"/>
      <point x="502" y="455" type="curve" smooth="yes"/>
      <point x="502" y="411"/>
      <point x="494" y="361"/>
      <point x="477" y="302" type="curve" smooth="yes"/>
      <point x="434" y="152"/>
      <point x="359" y="79"/>
    </contour>
  </outline>
</glyph>
<glyph name="Thorn" format="2">
  <advance width="614"/>
  <unicode hex="00DE"/>
  <outline>
    <contour>
      <point x="208" y="655" type="line"/>
      <point x="20" y="0" type="line"/>
      <point x="133" y="0" type="line"/>
      <point x="173" y="138" type="line"/>
      <point x="305" y="138" type="line" smooth="yes"/>
      <point x="412" y="138"/>
      <point x="493" y="157"/>
      <point x="548" y="211" type="curve" smooth="yes"/>
      <point x="586" y="249"/>
      <point x="606" y="304"/>
      <point x="606" y="359" type="curve" smooth="yes"/>
      <point x="606" y="449"/>
      <point x="547" y="516"/>
      <point x="420" y="516" type="curve" smooth="yes"/>
      <point x="281" y="516" type="line"/>
      <point x="321" y="655" type="line"/>
    </contour>
    <contour>
      <point x="399" y="422" type="line" smooth="yes"/>
      <point x="459" y="422"/>
      <point x="489" y="400"/>
      <point x="489" y="355" type="curve" smooth="yes"/>
      <point x="489" y="286"/>
      <point x="440" y="230"/>
      <point x="336" y="230" type="curve" smooth="yes"/>
      <point x="199" y="230" type="line"/>
      <point x="254" y="422" type="line"/>
    </contour>
  </outline>
</glyph>
<glyph name="germandbls" format="2">
  <advance width="614"/>
  <unicode hex="00DF"/>
  <outline>
    <contour>
      <point x="345" y="97" type="curve" smooth="yes"/>
      <point x="270" y="91" type="line"/>
      <point x="270" y="-4" type="line"/>
      <point x="339" y="0" type="line" smooth="yes"/>
      <point x="493" y="9"/>
      <point x="545" y="75"/>
      <point x="545" y="171" type="curve" smooth="yes"/>
      <point x="545" y="214"/>
      <point x="523" y="263"/>
      <point x="450" y="348" type="curve"/>
      <point x="614" y="483"/>
      <point x="626" y="529"/>
      <point x="626" y="588" type="curve" smooth="yes"/>
      <point x="626" y="664"/>
      <point x="566" y="725"/>
      <point x="443" y="725" type="curve" smooth="yes"/>
      <point x="291" y="725"/>
      <point x="204" y="649"/>
      <point x="163" y="507" type="curve" smooth="yes"/>
      <point x="18" y="0" type="line"/>
      <point x="130" y="0" type="line"/>
      <point x="270" y="488" type="line" smooth="yes"/>
      <point x="295" y="578"/>
      <point x="351" y="631"/>
      <point x="432" y="631" type="curve" smooth="yes"/>
      <point x="483" y="631"/>
      <point x="509" y="608"/>
      <point x="509" y="574" type="curve" smooth="yes"/>
      <point x="509" y="533"/>
      <point x="498" y="509"/>
      <point x="350" y="382" type="curve"/>
      <point x="337" y="334" type="line"/>
      <point x="409" y="247"/>
      <point x="428" y="207"/>
      <point x="428" y="177" type="curve" smooth="yes"/>
      <point x="428" y="130"/>
      <point x="401" y="102"/>
    </contour>
  </outline>
</glyph>
<glyph name="ae" format="2">
  <advance width="614"/>
  <unicode hex="00E6"/>
  <outline>
    <contour>
      <point x="335" y="152" type="curve" smooth="yes"/>
      <point x="335" y="168"/>
      <point x="337" y="184"/>
      <point x="339" y="201" type="curve"/>
      <point x="578" y="223"/>
      <point x="615" y="289"/>
      <point x="615" y="379" type="curve" smooth="yes"/>
      <point x="615" y="442"/>
      <point x="576" y="480"/>
      <point x="507" y="480" type="curve" smooth="yes"/>
      <point x="463" y="480"/>
      <point x="415" y="461"/>
      <point x="371" y="418" type="curve"/>
      <point x="362" y="462"/>
      <point x="331" y="480"/>
      <point x="255" y="480" type="curve" smooth="yes"/>
      <point x="212" y="480"/>
      <point x="169" y="475"/>
      <point x="125" y="466" type="curve"/>
      <point x="97" y="384" type="line"/>
      <point x="154" y="395"/>
      <point x="190" y="400"/>
      <point x="227" y="400" type="curve" smooth="yes"/>
      <point x="263" y="400"/>
      <point x="278" y="386"/>
      <point x="278" y="354" type="curve" smooth="yes"/>
      <point x="278" y="344"/>
      <point x="276" y="332"/>
      <point x="259" y="271" type="curve"/>
      <point x="103" y="260"/>
      <point x="58" y="248"/>
      <point x="28" y="217" type="curve" smooth="yes"/>
      <point x="-4" y="185"/>
      <point x="-16" y="140"/>
      <point x="-16" y="99" type="curve" smooth="yes"/>
      <point x="-16" y="43"/>
      <point x="10" y="-5"/>
      <point x="97" y="-5" type="curve" smooth="yes"/>
      <point x="140" y="-5"/>
      <point x="170" y="2"/>
      <point x="248" y="52" type="curve"/>
      <point x="255" y="52" type="line"/>
      <point x="285" y="12"/>
      <point x="346" y="-5"/>
      <point x="458" y="-5" type="curve"/>
      <point x="483" y="74" type="line"/>
      <point x="372" y="74"/>
      <point x="335" y="92"/>
    </contour>
    <contour>
      <point x="475" y="399" type="curve" smooth="yes"/>
      <point x="500" y="399"/>
      <point x="514" y="388"/>
      <point x="514" y="361" type="curve" smooth="yes"/>
      <point x="514" y="319"/>
      <point x="485" y="278"/>
      <point x="356" y="264" type="curve"/>
      <point x="382" y="337"/>
      <point x="429" y="399"/>
    </contour>
    <contour>
      <point x="130" y="75" type="curve" smooth="yes"/>
      <point x="93" y="75"/>
      <point x="83" y="90"/>
      <point x="83" y="114" type="curve" smooth="yes"/>
      <point x="83" y="136"/>
      <point x="89" y="156"/>
      <point x="104" y="172" type="curve" smooth="yes"/>
      <point x="120" y="187"/>
      <point x="137" y="195"/>
      <point x="240" y="206" type="curve"/>
      <point x="234" y="185"/>
      <point x="231" y="167"/>
      <point x="231" y="150" type="curve" smooth="yes"/>
      <point x="231" y="138"/>
      <point x="232" y="127"/>
      <point x="233" y="117" type="curve"/>
      <point x="179" y="83"/>
      <point x="154" y="75"/>
    </contour>
  </outline>
</glyph>
<glyph name="ccedilla" format="2">
  <advance width="614"/>
  <unicode hex="00E7"/>
  <outline>
    <contour>
      <point x="376" y="390" type="curve" smooth="yes"/>
      <point x="423" y="390"/>
      <point x="462" y="377"/>
      <point x="543" y="333" type="curve"/>
      <point x="590" y="422" type="line"/>
      <point x="503" y="471"/>
      <point x="442" y="484"/>
      <point x="366" y="484" type="curve" smooth="yes"/>
      <point x="276" y="484"/>
      <point x="199" y="448"/>
      <point x="143" y="392" type="curve" smooth="yes"/>
      <point x="81" y="330"/>
      <point x="51" y="249"/>
      <point x="51" y="172" type="curve" smooth="yes"/>
      <point x="51" y="73"/>
      <point x="107" y="9"/>
      <point x="204" y="-9" type="curve"/>
      <point x="143" y="-107" type="line"/>
      <point x="146" y="-117" type="line"/>
      <point x="244" y="-124"/>
      <point x="270" y="-135"/>
      <point x="270" y="-155" type="curve" smooth="yes"/>
      <point x="270" y="-182"/>
      <point x="253" y="-195"/>
      <point x="61" y="-212" type="curve"/>
      <point x="62" y="-270" type="line"/>
      <point x="328" y="-247"/>
      <point x="353" y="-207"/>
      <point x="353" y="-144" type="curve" smooth="yes"/>
      <point x="353" y="-104"/>
      <point x="328" y="-77"/>
      <point x="226" y="-64" type="curve"/>
      <point x="256" y="-14" type="line"/>
      <point x="343" y="-14"/>
      <point x="414" y="-2"/>
      <point x="509" y="48" type="curve"/>
      <point x="475" y="135" type="line"/>
      <point x="378" y="92"/>
      <point x="329" y="80"/>
      <point x="281" y="80" type="curve" smooth="yes"/>
      <point x="216" y="80"/>
      <point x="174" y="119"/>
      <point x="174" y="183" type="curve" smooth="yes"/>
      <point x="174" y="234"/>
      <point x="198" y="292"/>
      <point x="238" y="332" type="curve" smooth="yes"/>
      <point x="273" y="367"/>
      <point x="321" y="390"/>
    </contour>
  </outline>
</glyph>
<glyph name="eth" format="2">
  <advance width="614"/>
  <unicode hex="00F0"/>
  <outline>
    <contour>
      <point x="548" y="756" type="line"/>
      <point x="452" y="677" type="line"/>
      <point x="416" y="699"/>
      <point x="372" y="715"/>
      <point x="320" y="725" type="curve"/>
      <point x="271" y="644" type="line"/>
      <point x="314" y="634"/>
      <point x="349" y="621"/>
      <point x="377" y="607" type="curve"/>
      <point x="258" y="513" type="line"/>
      <point x="296" y="470" type="line"/>
      <point x="424" y="576" type="line"/>
      <point x="474" y="533"/>
      <point x="487" y="482"/>
      <point x="487" y="432" type="curve" smooth="yes"/>
      <point x="487" y="416"/>
      <point x="486" y="398"/>
      <point x="483" y="379" type="curve"/>
      <point x="418" y="414"/>
      <point x="369" y="423"/>
      <point x="312" y="423" type="curve" smooth="yes"/>
      <point x="136" y="423"/>
      <point x="38" y="296"/>
      <point x="38" y="160" type="curve" smooth="yes"/>
      <point x="38" y="52"/>
      <point x="117" y="-15"/>
      <point x="244" y="-15" type="curve" smooth="yes"/>
      <point x="331" y="-15"/>
      <point x="411" y="19"/>
      <point x="473" y="81" type="curve" smooth="yes"/>
      <point x="555" y="163"/>
      <point x="596" y="290"/>
      <point x="596" y="418" type="curve" smooth="yes"/>
      <point x="596" y="505"/>
      <point x="565" y="586"/>
      <point x="498" y="644" type="curve"/>
      <point x="587" y="713" type="line"/>
    </contour>
    <contour>
      <point x="158" y="168" type="curve" smooth="yes"/>
      <point x="158" y="261"/>
      <point x="228" y="339"/>
      <point x="334" y="339" type="curve" smooth="yes"/>
      <point x="375" y="339"/>
      <point x="412" y="332"/>
      <point x="464" y="302" type="curve"/>
      <point x="445" y="232"/>
      <point x="414" y="173"/>
      <point x="376" y="135" type="curve" smooth="yes"/>
      <point x="338" y="97"/>
      <point x="295" y="78"/>
      <point x="252" y="78" type="curve" smooth="yes"/>
      <point x="194" y="78"/>
      <point x="158" y="111"/>
    </contour>
  </outline>
</glyph>
<glyph name="divide" format="2">
  <advance width="614"/>
  <unicode hex="00F7"/>
  <outline>
    <contour>
      <point x="386" y="477" type="curve" smooth="yes"/>
      <point x="451" y="477"/>
      <point x="486" y="514"/>
      <point x="486" y="563" type="curve" smooth="yes"/>
      <point x="486" y="597"/>
      <point x="460" y="614"/>
      <point x="409" y="614" type="curve" smooth="yes"/>
      <point x="340" y="614"/>
      <point x="310" y="572"/>
      <point x="310" y="527" type="curve" smooth="yes"/>
      <point x="310" y="494"/>
      <point x="336" y="477"/>
    </contour>
    <contour>
      <point x="80" y="283" type="line"/>
      <point x="561" y="283" type="line"/>
      <point x="587" y="374" type="line"/>
      <point x="106" y="374" type="line"/>
    </contour>
    <contour>
      <point x="260" y="45" type="curve" smooth="yes"/>
      <point x="328" y="45"/>
      <point x="361" y="81"/>
      <point x="361" y="130" type="curve" smooth="yes"/>
      <point x="361" y="164"/>
      <point x="335" y="181"/>
      <point x="284" y="181" type="curve" smooth="yes"/>
      <point x="215" y="181"/>
      <point x="185" y="140"/>
      <point x="185" y="94" type="curve" smooth="yes"/>
      <point x="185" y="61"/>
      <point x="211" y="45"/>
    </contour>
  </outline>
</glyph>
<glyph name="oslash" format="2">
  <advance width="614"/>
  <unicode hex="00F8"/>
  <outline>
    <contour>
      <point x="356" y="486" type="curve" smooth="yes"/>
      <point x="180" y="486"/>
      <point x="46" y="352"/>
      <point x="46" y="189" type="curve" smooth="yes"/>
      <point x="46" y="142"/>
      <point x="61" y="100"/>
      <point x="87" y="66" type="curve"/>
      <point x="-58" y="-71" type="line"/>
      <point x="58" y="-71" type="line"/>
      <point x="140" y="18" type="line"/>
      <point x="174" y="-3"/>
      <point x="214" y="-15"/>
      <point x="258" y="-15" type="curve" smooth="yes"/>
      <point x="434" y="-15"/>
      <point x="568" y="119"/>
      <point x="568" y="281" type="curve" smooth="yes"/>
      <point x="568" y="327"/>
      <point x="553" y="369"/>
      <point x="527" y="403" type="curve"/>
      <point x="672" y="542" type="line"/>
      <point x="556" y="542" type="line"/>
      <point x="474" y="452" type="line"/>
      <point x="440" y="474"/>
      <point x="400" y="486"/>
    </contour>
    <contour>
      <point x="276" y="77" type="curve" smooth="yes"/>
      <point x="208" y="77"/>
      <point x="162" y="125"/>
      <point x="162" y="194" type="curve" smooth="yes"/>
      <point x="162" y="297"/>
      <point x="240" y="393"/>
      <point x="338" y="393" type="curve" smooth="yes"/>
      <point x="406" y="393"/>
      <point x="452" y="346"/>
      <point x="452" y="276" type="curve" smooth="yes"/>
      <point x="452" y="174"/>
      <point x="374" y="77"/>
    </contour>
  </outline>
</glyph>
<glyph name="thorn" format="2">
  <advance width="614"/>
  <unicode hex="00FE"/>
  <outline>
    <contour>
      <point x="-50" y="-230" type="line"/>
      <point x="62" y="-230" type="line"/>
      <point x="130" y="5" type="line"/>
      <point x="163" y="-3"/>
      <point x="197" y="-8"/>
      <point x="234" y="-8" type="curve" smooth="yes"/>
      <point x="442" y="-8"/>
      <point x="574" y="129"/>
      <point x="574" y="300" type="curve" smooth="yes"/>
      <point x="574" y="419"/>
      <point x="499" y="482"/>
      <point x="410" y="482" type="curve" smooth="yes"/>
      <point x="356" y="482"/>
      <point x="306" y="463"/>
      <point x="247" y="415" type="curve"/>
      <point x="332" y="710" type="line"/>
      <point x="220" y="710" type="line"/>
    </contour>
    <contour>
      <point x="364" y="389" type="curve" smooth="yes"/>
      <point x="419" y="389"/>
      <point x="457" y="352"/>
      <point x="457" y="286" type="curve" smooth="yes"/>
      <point x="457" y="189"/>
      <point x="383" y="85"/>
      <point x="238" y="85" type="curve" smooth="yes"/>
      <point x="208" y="85"/>
      <point x="181" y="90"/>
      <point x="157" y="100" type="curve"/>
      <point x="219" y="316" type="line"/>
      <point x="288" y="374"/>
      <point x="325" y="389"/>
    </contour>
  </outline>
</glyph>
<glyph name="Aogonek" format="2">
  <advance width="614"/>
  <unicode hex="0104"/>
  <outline>
    <contour>
      <point x="87" y="0" type="line"/>
      <point x="178" y="155" type="line"/>
      <point x="402" y="155" type="line"/>
      <point x="404" y="0" type="line"/>
      <point x="428" y="0" type="line"/>
      <point x="310" y="-99"/>
      <point x="291" y="-132"/>
      <point x="291" y="-168" type="curve" smooth="yes"/>
      <point x="291" y="-207"/>
      <point x="315" y="-228"/>
      <point x="389" y="-231" type="curve" smooth="yes"/>
      <point x="462" y="-234" type="line"/>
      <point x="491" y="-160" type="line"/>
      <point x="433" y="-156" type="line" smooth="yes"/>
      <point x="399" y="-154"/>
      <point x="390" y="-148"/>
      <point x="390" y="-133" type="curve" smooth="yes"/>
      <point x="390" y="-114"/>
      <point x="397" y="-93"/>
      <point x="487" y="0" type="curve"/>
      <point x="513" y="0" type="line"/>
      <point x="496" y="655" type="line"/>
      <point x="358" y="655" type="line"/>
      <point x="-32" y="0" type="line"/>
    </contour>
    <contour>
      <point x="228" y="244" type="line"/>
      <point x="400" y="545" type="line"/>
      <point x="404" y="244" type="line"/>
    </contour>
  </outline>
</glyph>
<glyph name="dcroat" format="2">
  <advance width="614"/>
  <unicode hex="0111"/>
  <anchor x="251" y="-32" name="below"/>
  <outline>
    <contour>
      <point x="362" y="0" type="line"/>
      <point x="446" y="0" type="line"/>
      <point x="596" y="523" type="line"/>
      <point x="676" y="523" type="line"/>
      <point x="695" y="589" type="line"/>
      <point x="615" y="589" type="line"/>
      <point x="650" y="710" type="line"/>
      <point x="538" y="710" type="line"/>
      <point x="503" y="589" type="line"/>
      <point x="347" y="589" type="line"/>
      <point x="328" y="523" type="line"/>
      <point x="484" y="523" type="line"/>
      <point x="452" y="410" type="line"/>
      <point x="418" y="422"/>
      <point x="386" y="427"/>
      <point x="349" y="427" type="curve" smooth="yes"/>
      <point x="160" y="427"/>
      <point x="41" y="308"/>
      <point x="41" y="160" type="curve" smooth="yes"/>
      <point x="41" y="50"/>
      <point x="112" y="-8"/>
      <point x="194" y="-8" type="curve" smooth="yes"/>
      <point x="249" y="-8"/>
      <point x="301" y="10"/>
      <point x="361" y="60" type="curve"/>
    </contour>
    <contour>
      <point x="158" y="174" type="curve" smooth="yes"/>
      <point x="158" y="254"/>
      <point x="221" y="341"/>
      <point x="349" y="341" type="curve" smooth="yes"/>
      <point x="377" y="341"/>
      <point x="402" y="335"/>
      <point x="426" y="323" type="curve"/>
      <point x="376" y="147" type="line"/>
      <point x="314" y="98"/>
      <point x="278" y="85"/>
      <point x="240" y="85" type="curve" smooth="yes"/>
      <point x="191" y="85"/>
      <point x="158" y="116"/>
    </contour>
  </outline>
</glyph>
<glyph name="Eogonek" format="2">
  <advance width="614"/>
  <unicode hex="0118"/>
  <outline>
    <contour>
      <point x="233" y="-168" type="curve" smooth="yes"/>
      <point x="233" y="-207"/>
      <point x="256" y="-228"/>
      <point x="330" y="-231" type="curve" smooth="yes"/>
      <point x="404" y="-234" type="line"/>
      <point x="433" y="-160" type="line"/>
      <point x="374" y="-156" type="line" smooth="yes"/>
      <point x="341" y="-154"/>
      <point x="332" y="-148"/>
      <point x="332" y="-133" type="curve" smooth="yes"/>
      <point x="332" y="-114"/>
      <point x="339" y="-93"/>
      <point x="428" y="0" type="curve"/>
      <point x="475" y="0" type="line"/>
      <point x="502" y="94" type="line"/>
      <point x="166" y="94" type="line"/>
      <point x="221" y="284" type="line"/>
      <point x="508" y="284" type="line"/>
      <point x="535" y="377" type="line"/>
      <point x="247" y="377" type="line"/>
      <point x="300" y="561" type="line"/>
      <point x="632" y="561" type="line"/>
      <point x="659" y="655" type="line"/>
      <point x="214" y="655" type="line"/>
      <point x="26" y="0" type="line"/>
      <point x="370" y="0" type="line"/>
      <point x="252" y="-99"/>
      <point x="233" y="-132"/>
    </contour>
  </outline>
</glyph>
<glyph name="eogonek" format="2">
  <advance width="614"/>
  <unicode hex="0119"/>
  <anchor x="386" y="486" name="aboveLCx"/>
  <anchor x="396" y="518" name="aboveLC"/>
  <outline>
    <contour>
      <point x="206" y="-168" type="curve" smooth="yes"/>
      <point x="206" y="-207"/>
      <point x="229" y="-228"/>
      <point x="304" y="-231" type="curve" smooth="yes"/>
      <point x="377" y="-234" type="line"/>
      <point x="406" y="-160" type="line"/>
      <point x="348" y="-156" type="line" smooth="yes"/>
      <point x="314" y="-154"/>
      <point x="305" y="-148"/>
      <point x="305" y="-133" type="curve" smooth="yes"/>
      <point x="305" y="-115"/>
      <point x="313" y="-96"/>
      <point x="396" y="-10" type="curve"/>
      <point x="423" y="81" type="line"/>
      <point x="216" y="81"/>
      <point x="172" y="98"/>
      <point x="170" y="177" type="curve" smooth="yes"/>
      <point x="170" y="177"/>
      <point x="170" y="177"/>
      <point x="170" y="177" type="curve"/>
      <point x="331" y="190" type="line" smooth="yes"/>
      <point x="518" y="207"/>
      <point x="576" y="264"/>
      <point x="576" y="352" type="curve" smooth="yes"/>
      <point x="576" y="432"/>
      <point x="513" y="486"/>
      <point x="397" y="486" type="curve" smooth="yes"/>
      <point x="202" y="486"/>
      <point x="57" y="322"/>
      <point x="57" y="169" type="curve" smooth="yes"/>
      <point x="57" y="51"/>
      <point x="110" y="-2"/>
      <point x="337" y="-9" type="curve"/>
      <point x="224" y="-103"/>
      <point x="206" y="-134"/>
    </contour>
    <contour>
      <point x="386" y="397" type="curve" smooth="yes"/>
      <point x="437" y="397"/>
      <point x="465" y="374"/>
      <point x="465" y="343" type="curve" smooth="yes"/>
      <point x="465" y="306"/>
      <point x="437" y="276"/>
      <point x="330" y="265" type="curve" smooth="yes"/>
      <point x="181" y="249" type="line"/>
      <point x="211" y="334"/>
      <point x="295" y="397"/>
    </contour>
  </outline>
</glyph>
<glyph name="hbar" format="2">
  <advance width="614"/>
  <unicode hex="0127"/>
  <outline>
    <contour>
      <point x="451" y="523" type="line"/>
      <point x="470" y="589" type="line"/>
      <point x="315" y="589" type="line"/>
      <point x="350" y="710" type="line"/>
      <point x="238" y="710" type="line"/>
      <point x="203" y="589" type="line"/>
      <point x="122" y="589" type="line"/>
      <point x="103" y="523" type="line"/>
      <point x="184" y="523" type="line"/>
      <point x="34" y="0" type="line"/>
      <point x="146" y="0" type="line"/>
      <point x="200" y="187" type="line"/>
      <point x="331" y="306"/>
      <point x="358" y="323"/>
      <point x="393" y="323" type="curve" smooth="yes"/>
      <point x="415" y="323"/>
      <point x="429" y="311"/>
      <point x="429" y="286" type="curve" smooth="yes"/>
      <point x="429" y="277"/>
      <point x="427" y="267"/>
      <point x="421" y="246" type="curve" smooth="yes"/>
      <point x="351" y="0" type="line"/>
      <point x="463" y="0" type="line"/>
      <point x="538" y="259" type="line" smooth="yes"/>
      <point x="547" y="292"/>
      <point x="550" y="314"/>
      <point x="550" y="331" type="curve" smooth="yes"/>
      <point x="550" y="392"/>
      <point x="513" y="428"/>
      <point x="447" y="428" type="curve" smooth="yes"/>
      <point x="388" y="428"/>
      <point x="346" y="407"/>
      <point x="235" y="311" type="curve"/>
      <point x="296" y="523" type="line"/>
    </contour>
  </outline>
</glyph>
<glyph name="Iogonek" format="2">
  <advance width="614"/>
  <unicode hex="012E"/>
  <outline>
    <contour>
      <point x="75" y="59" type="line"/>
      <point x="58" y="0" type="line"/>
      <point x="213" y="0" type="line"/>
      <point x="95" y="-99"/>
      <point x="76" y="-132"/>
      <point x="76" y="-168" type="curve" smooth="yes"/>
      <point x="76" y="-206"/>
      <point x="99" y="-227"/>
      <point x="174" y="-231" type="curve" smooth="yes"/>
      <point x="247" y="-234" type="line"/>
      <point x="276" y="-160" type="line"/>
      <point x="218" y="-156" type="line" smooth="yes"/>
      <point x="184" y="-154"/>
      <point x="175" y="-147"/>
      <point x="175" y="-133" type="curve" smooth="yes"/>
      <point x="175" y="-114"/>
      <point x="182" y="-92"/>
      <point x="271" y="0" type="curve"/>
      <point x="426" y="0" type="line"/>
      <point x="443" y="59" type="line"/>
      <point x="314" y="82" type="line"/>
      <point x="465" y="570" type="line"/>
      <point x="593" y="596" type="line"/>
      <point x="610" y="655" type="line"/>
      <point x="242" y="655" type="line"/>
      <point x="225" y="596" type="line"/>
      <point x="354" y="573" type="line"/>
      <point x="203" y="85" type="line"/>
    </contour>
  </outline>
</glyph>
<glyph name="iogonek" format="2">
  <advance width="614"/>
  <unicode hex="012F"/>
  <outline>
    <contour>
      <point x="410" y="592" type="curve" smooth="yes"/>
      <point x="477" y="592"/>
      <point x="514" y="628"/>
      <point x="514" y="678" type="curve" smooth="yes"/>
      <point x="514" y="718"/>
      <point x="486" y="740"/>
      <point x="433" y="740" type="curve" smooth="yes"/>
      <point x="361" y="740"/>
      <point x="329" y="697"/>
      <point x="329" y="654" type="curve" smooth="yes"/>
      <point x="329" y="613"/>
      <point x="360" y="592"/>
    </contour>
    <contour>
      <point x="64" y="95" type="line"/>
      <point x="37" y="0" type="line"/>
      <point x="228" y="0" type="line"/>
      <point x="110" y="-99"/>
      <point x="91" y="-132"/>
      <point x="91" y="-168" type="curve" smooth="yes"/>
      <point x="91" y="-207"/>
      <point x="115" y="-228"/>
      <point x="189" y="-231" type="curve" smooth="yes"/>
      <point x="262" y="-234" type="line"/>
      <point x="291" y="-160" type="line"/>
      <point x="233" y="-156" type="line" smooth="yes"/>
      <point x="199" y="-154"/>
      <point x="190" y="-148"/>
      <point x="190" y="-133" type="curve" smooth="yes"/>
      <point x="190" y="-114"/>
      <point x="197" y="-93"/>
      <point x="287" y="0" type="curve"/>
      <point x="473" y="0" type="line"/>
      <point x="500" y="95" type="line"/>
      <point x="329" y="95" type="line"/>
      <point x="460" y="471" type="line"/>
      <point x="192" y="471" type="line"/>
      <point x="165" y="376" type="line"/>
      <point x="315" y="376" type="line"/>
      <point x="217" y="95" type="line"/>
    </contour>
  </outline>
</glyph>
<glyph name="dotlessi" format="2">
  <advance width="614"/>
  <unicode hex="0131"/>
  <anchor x="235" y="-35" name="below"/>
  <anchor x="391" y="502" name="aboveLC"/>
  <anchor x="242" y="-9" name="belowogonek"/>
  <outline>
    <contour>
      <point x="64" y="95" type="line"/>
      <point x="37" y="0" type="line"/>
      <point x="473" y="0" type="line"/>
      <point x="500" y="95" type="line"/>
      <point x="329" y="95" type="line"/>
      <point x="460" y="471" type="line"/>
      <point x="192" y="471" type="line"/>
      <point x="165" y="376" type="line"/>
      <point x="315" y="376" type="line"/>
      <point x="217" y="95" type="line"/>
    </contour>
  </outline>
</glyph>
<glyph name="Eng" format="2">
  <advance width="614"/>
  <unicode hex="014A"/>
  <outline>
    <contour>
      <point x="119" y="0" type="line"/>
      <point x="256" y="495" type="line"/>
      <point x="355" y="-40" type="line"/>
      <point x="331" y="-110"/>
      <point x="289" y="-135"/>
      <point x="212" y="-141" type="curve" smooth="yes"/>
      <point x="89" y="-150" type="line"/>
      <point x="89" y="-237" type="line"/>
      <point x="206" y="-230" type="line" smooth="yes"/>
      <point x="359" y="-221"/>
      <point x="415" y="-173"/>
      <point x="457" y="-24" type="curve" smooth="yes"/>
      <point x="652" y="655" type="line"/>
      <point x="548" y="655" type="line"/>
      <point x="414" y="170" type="line"/>
      <point x="324" y="655" type="line"/>
      <point x="204" y="655" type="line"/>
      <point x="16" y="0" type="line"/>
    </contour>
  </outline>
</glyph>
<glyph name="eng" format="2">
  <advance width="614"/>
  <unicode hex="014B"/>
  <outline>
    <contour>
      <point x="471" y="26" type="curve" smooth="yes"/>
      <point x="553" y="311" type="line" smooth="yes"/>
      <point x="562" y="343"/>
      <point x="565" y="365"/>
      <point x="565" y="383" type="curve" smooth="yes"/>
      <point x="565" y="443"/>
      <point x="525" y="479"/>
      <point x="458" y="479" type="curve" smooth="yes"/>
      <point x="394" y="479"/>
      <point x="348" y="459"/>
      <point x="228" y="354" type="curve"/>
      <point x="256" y="471" type="line"/>
      <point x="155" y="471" type="line"/>
      <point x="20" y="0" type="line"/>
      <point x="133" y="0" type="line"/>
      <point x="201" y="237" type="line"/>
      <point x="337" y="360"/>
      <point x="368" y="375"/>
      <point x="403" y="375" type="curve" smooth="yes"/>
      <point x="428" y="375"/>
      <point x="444" y="362"/>
      <point x="444" y="338" type="curve" smooth="yes"/>
      <point x="444" y="329"/>
      <point x="442" y="317"/>
      <point x="436" y="297" type="curve" smooth="yes"/>
      <point x="362" y="38" type="line" smooth="yes"/>
      <point x="326" y="-89"/>
      <point x="295" y="-129"/>
      <point x="168" y="-136" type="curve" smooth="yes"/>
      <point x="93" y="-141" type="line"/>
      <point x="93" y="-237" type="line"/>
      <point x="166" y="-233" type="line" smooth="yes"/>
      <point x="362" y="-221"/>
      <point x="414" y="-172"/>
    </contour>
  </outline>
</glyph>
<glyph name="OE" format="2">
  <advance width="614"/>
  <unicode hex="0152"/>
  <outline>
    <contour>
      <point x="233" y="0" type="curve" smooth="yes"/>
      <point x="514" y="0" type="line"/>
      <point x="540" y="89" type="line"/>
      <point x="360" y="89" type="line"/>
      <point x="416" y="287" type="line"/>
      <point x="577" y="287" type="line"/>
      <point x="602" y="374" type="line"/>
      <point x="441" y="374" type="line"/>
      <point x="496" y="566" type="line"/>
      <point x="676" y="566" type="line"/>
      <point x="702" y="655" type="line"/>
      <point x="444" y="655" type="line" smooth="yes"/>
      <point x="316" y="655"/>
      <point x="231" y="632"/>
      <point x="157" y="558" type="curve" smooth="yes"/>
      <point x="77" y="478"/>
      <point x="30" y="301"/>
      <point x="30" y="200" type="curve" smooth="yes"/>
      <point x="30" y="73"/>
      <point x="96" y="0"/>
    </contour>
    <contour>
      <point x="138" y="198" type="curve" smooth="yes"/>
      <point x="138" y="278"/>
      <point x="184" y="445"/>
      <point x="250" y="511" type="curve" smooth="yes"/>
      <point x="286" y="547"/>
      <point x="328" y="566"/>
      <point x="391" y="570" type="curve"/>
      <point x="251" y="84" type="line"/>
      <point x="251" y="84" type="line"/>
      <point x="170" y="84"/>
      <point x="138" y="116"/>
    </contour>
  </outline>
</glyph>
<glyph name="oe" format="2">
  <advance width="614"/>
  <unicode hex="0153"/>
  <outline>
    <contour>
      <point x="127" y="-14" type="curve" smooth="yes"/>
      <point x="180" y="-14"/>
      <point x="228" y="18"/>
      <point x="266" y="68" type="curve"/>
      <point x="289" y="16"/>
      <point x="347" y="-5"/>
      <point x="467" y="-5" type="curve"/>
      <point x="493" y="74" type="line"/>
      <point x="381" y="74"/>
      <point x="345" y="92"/>
      <point x="345" y="152" type="curve" smooth="yes"/>
      <point x="345" y="168"/>
      <point x="347" y="184"/>
      <point x="349" y="201" type="curve"/>
      <point x="587" y="223"/>
      <point x="625" y="289"/>
      <point x="625" y="379" type="curve" smooth="yes"/>
      <point x="625" y="443"/>
      <point x="586" y="482"/>
      <point x="516" y="482" type="curve" smooth="yes"/>
      <point x="461" y="482"/>
      <point x="398" y="451"/>
      <point x="347" y="378" type="curve"/>
      <point x="337" y="444"/>
      <point x="299" y="482"/>
      <point x="236" y="482" type="curve" smooth="yes"/>
      <point x="184" y="482"/>
      <point x="145" y="460"/>
      <point x="108" y="423" type="curve" smooth="yes"/>
      <point x="42" y="356"/>
      <point x="4" y="247"/>
      <point x="4" y="140" type="curve" smooth="yes"/>
      <point x="4" y="31"/>
      <point x="46" y="-14"/>
    </contour>
    <contour>
      <point x="484" y="401" type="curve" smooth="yes"/>
      <point x="510" y="401"/>
      <point x="523" y="389"/>
      <point x="523" y="361" type="curve" smooth="yes"/>
      <point x="523" y="319"/>
      <point x="495" y="278"/>
      <point x="366" y="264" type="curve"/>
      <point x="392" y="338"/>
      <point x="438" y="401"/>
    </contour>
    <contour>
      <point x="113" y="133" type="curve" smooth="yes"/>
      <point x="113" y="216"/>
      <point x="151" y="332"/>
      <point x="193" y="374" type="curve" smooth="yes"/>
      <point x="207" y="389"/>
      <point x="222" y="397"/>
      <point x="238" y="397" type="curve" smooth="yes"/>
      <point x="264" y="397"/>
      <point x="278" y="375"/>
      <point x="278" y="337" type="curve" smooth="yes"/>
      <point x="278" y="251"/>
      <point x="240" y="136"/>
      <point x="197" y="94" type="curve" smooth="yes"/>
      <point x="183" y="80"/>
      <point x="169" y="72"/>
      <point x="153" y="72" type="curve" smooth="yes"/>
      <point x="127" y="72"/>
      <point x="113" y="91"/>
    </contour>
  </outline>
</glyph>
<glyph name="Scedilla" format="2">
  <advance width="614"/>
  <unicode hex="015E"/>
  <outline>
    <contour>
      <point x="301" y="83" type="curve" smooth="yes"/>
      <point x="223" y="83"/>
      <point x="140" y="110"/>
      <point x="54" y="147" type="curve"/>
      <point x="19" y="50" type="line"/>
      <point x="90" y="20"/>
      <point x="160" y="-2"/>
      <point x="238" y="-10" type="curve"/>
      <point x="177" y="-107" type="line"/>
      <point x="180" y="-117" type="line"/>
      <point x="278" y="-124"/>
      <point x="304" y="-135"/>
      <point x="304" y="-155" type="curve" smooth="yes"/>
      <point x="304" y="-182"/>
      <point x="288" y="-195"/>
      <point x="96" y="-212" type="curve"/>
      <point x="96" y="-270" type="line"/>
      <point x="362" y="-247"/>
      <point x="388" y="-207"/>
      <point x="388" y="-144" type="curve" smooth="yes"/>
      <point x="388" y="-104"/>
      <point x="362" y="-77"/>
      <point x="261" y="-64" type="curve"/>
      <point x="291" y="-13" type="line"/>
      <point x="301" y="-13" type="line" smooth="yes"/>
      <point x="453" y="-13"/>
      <point x="541" y="63"/>
      <point x="541" y="183" type="curve" smooth="yes"/>
      <point x="541" y="260"/>
      <point x="515" y="301"/>
      <point x="405" y="361" type="curve" smooth="yes"/>
      <point x="338" y="398" type="line" smooth="yes"/>
      <point x="282" y="429"/>
      <point x="267" y="454"/>
      <point x="267" y="486" type="curve" smooth="yes"/>
      <point x="267" y="535"/>
      <point x="304" y="570"/>
      <point x="392" y="570" type="curve" smooth="yes"/>
      <point x="454" y="570"/>
      <point x="518" y="555"/>
      <point x="596" y="527" type="curve"/>
      <point x="625" y="623" type="line"/>
      <point x="544" y="650"/>
      <point x="480" y="666"/>
      <point x="395" y="666" type="curve" smooth="yes"/>
      <point x="236" y="666"/>
      <point x="154" y="580"/>
      <point x="154" y="480" type="curve" smooth="yes"/>
      <point x="154" y="404"/>
      <point x="188" y="356"/>
      <point x="274" y="309" type="curve" smooth="yes"/>
      <point x="341" y="273" type="line" smooth="yes"/>
      <point x="415" y="232"/>
      <point x="427" y="206"/>
      <point x="427" y="172" type="curve" smooth="yes"/>
      <point x="427" y="116"/>
      <point x="386" y="83"/>
    </contour>
  </outline>
</glyph>
<glyph name="scedilla" format="2">
  <advance width="614"/>
  <unicode hex="015F"/>
  <outline>
    <contour>
      <point x="505" y="137" type="curve" smooth="yes"/>
      <point x="505" y="203"/>
      <point x="480" y="230"/>
      <point x="363" y="273" type="curve" smooth="yes"/>
      <point x="299" y="298" type="line" smooth="yes"/>
      <point x="248" y="318"/>
      <point x="236" y="325"/>
      <point x="236" y="351" type="curve" smooth="yes"/>
      <point x="236" y="376"/>
      <point x="261" y="393"/>
      <point x="352" y="393" type="curve" smooth="yes"/>
      <point x="396" y="393"/>
      <point x="460" y="386"/>
      <point x="539" y="368" type="curve"/>
      <point x="565" y="460" type="line"/>
      <point x="487" y="475"/>
      <point x="408" y="482"/>
      <point x="355" y="482" type="curve" smooth="yes"/>
      <point x="189" y="482"/>
      <point x="122" y="427"/>
      <point x="122" y="343" type="curve" smooth="yes"/>
      <point x="122" y="282"/>
      <point x="146" y="250"/>
      <point x="260" y="208" type="curve" smooth="yes"/>
      <point x="326" y="184" type="line" smooth="yes"/>
      <point x="379" y="164"/>
      <point x="392" y="153"/>
      <point x="392" y="127" type="curve" smooth="yes"/>
      <point x="392" y="99"/>
      <point x="363" y="77"/>
      <point x="269" y="77" type="curve" smooth="yes"/>
      <point x="217" y="77"/>
      <point x="138" y="86"/>
      <point x="45" y="106" type="curve"/>
      <point x="22" y="14" type="line"/>
      <point x="88" y="1"/>
      <point x="140" y="-7"/>
      <point x="198" y="-10" type="curve"/>
      <point x="138" y="-107" type="line"/>
      <point x="141" y="-117" type="line"/>
      <point x="239" y="-124"/>
      <point x="265" y="-135"/>
      <point x="265" y="-155" type="curve" smooth="yes"/>
      <point x="265" y="-182"/>
      <point x="248" y="-195"/>
      <point x="56" y="-212" type="curve"/>
      <point x="57" y="-270" type="line"/>
      <point x="323" y="-247"/>
      <point x="348" y="-207"/>
      <point x="348" y="-144" type="curve" smooth="yes"/>
      <point x="348" y="-104"/>
      <point x="323" y="-77"/>
      <point x="221" y="-64" type="curve"/>
      <point x="252" y="-12" type="line"/>
      <point x="264" y="-12" type="line" smooth="yes"/>
      <point x="428" y="-12"/>
      <point x="505" y="53"/>
    </contour>
  </outline>
</glyph>
<glyph name="Tcedilla" format="2">
  <advance width="614"/>
  <unicode hex="0162"/>
  <outline>
    <contour>
      <point x="135" y="561" type="line"/>
      <point x="341" y="561" type="line"/>
      <point x="180" y="0" type="line"/>
      <point x="209" y="0" type="line"/>
      <point x="147" y="-101" type="line"/>
      <point x="150" y="-111" type="line"/>
      <point x="248" y="-118"/>
      <point x="274" y="-129"/>
      <point x="274" y="-149" type="curve" smooth="yes"/>
      <point x="274" y="-177"/>
      <point x="257" y="-189"/>
      <point x="65" y="-206" type="curve"/>
      <point x="66" y="-264" type="line"/>
      <point x="332" y="-241"/>
      <point x="358" y="-202"/>
      <point x="358" y="-139" type="curve" smooth="yes"/>
      <point x="358" y="-98"/>
      <point x="332" y="-72"/>
      <point x="230" y="-58" type="curve"/>
      <point x="265" y="0" type="line"/>
      <point x="293" y="0" type="line"/>
      <point x="454" y="561" type="line"/>
      <point x="658" y="561" type="line"/>
      <point x="686" y="655" type="line"/>
      <point x="163" y="655" type="line"/>
    </contour>
  </outline>
</glyph>
<glyph name="tcedilla" format="2">
  <advance width="614"/>
  <unicode hex="0163"/>
  <outline>
    <contour>
      <point x="238" y="21" type="curve"/>
      <point x="161" y="-102" type="line"/>
      <point x="164" y="-112" type="line"/>
      <point x="262" y="-119"/>
      <point x="288" y="-130"/>
      <point x="288" y="-150" type="curve" smooth="yes"/>
      <point x="288" y="-177"/>
      <point x="272" y="-190"/>
      <point x="80" y="-207" type="curve"/>
      <point x="80" y="-265" type="line"/>
      <point x="346" y="-242"/>
      <point x="372" y="-202"/>
      <point x="372" y="-139" type="curve" smooth="yes"/>
      <point x="372" y="-99"/>
      <point x="346" y="-72"/>
      <point x="245" y="-59" type="curve"/>
      <point x="283" y="5" type="line"/>
      <point x="302" y="1"/>
      <point x="324" y="-1"/>
      <point x="348" y="-2" type="curve" smooth="yes"/>
      <point x="455" y="-6" type="line"/>
      <point x="482" y="90" type="line"/>
      <point x="362" y="98" type="line" smooth="yes"/>
      <point x="311" y="101"/>
      <point x="291" y="120"/>
      <point x="291" y="156" type="curve" smooth="yes"/>
      <point x="291" y="172"/>
      <point x="296" y="197"/>
      <point x="312" y="239" type="curve" smooth="yes"/>
      <point x="364" y="376" type="line"/>
      <point x="552" y="376" type="line"/>
      <point x="579" y="471" type="line"/>
      <point x="400" y="471" type="line"/>
      <point x="464" y="639" type="line"/>
      <point x="355" y="639" type="line"/>
      <point x="290" y="471" type="line"/>
      <point x="119" y="471" type="line"/>
      <point x="92" y="376" type="line"/>
      <point x="252" y="376" type="line"/>
      <point x="202" y="246" type="line" smooth="yes"/>
      <point x="176" y="180"/>
      <point x="174" y="152"/>
      <point x="174" y="129" type="curve" smooth="yes"/>
      <point x="174" y="81"/>
      <point x="192" y="43"/>
    </contour>
  </outline>
</glyph>
<glyph name="tbar" format="2">
  <advance width="614"/>
  <unicode hex="0167"/>
  <outline>
    <contour>
      <point x="98" y="212" type="line"/>
      <point x="190" y="212" type="line"/>
      <point x="175" y="169"/>
      <point x="174" y="148"/>
      <point x="174" y="129" type="curve" smooth="yes"/>
      <point x="174" y="53"/>
      <point x="220" y="2"/>
      <point x="348" y="-2" type="curve" smooth="yes"/>
      <point x="455" y="-6" type="line"/>
      <point x="480" y="84" type="line"/>
      <point x="360" y="92" type="line" smooth="yes"/>
      <point x="310" y="95"/>
      <point x="289" y="114"/>
      <point x="289" y="153" type="curve" smooth="yes"/>
      <point x="289" y="166"/>
      <point x="292" y="183"/>
      <point x="302" y="212" type="curve"/>
      <point x="451" y="212" type="line"/>
      <point x="470" y="277" type="line"/>
      <point x="326" y="277" type="line"/>
      <point x="366" y="382" type="line"/>
      <point x="555" y="382" type="line"/>
      <point x="579" y="471" type="line"/>
      <point x="400" y="471" type="line"/>
      <point x="464" y="639" type="line"/>
      <point x="355" y="639" type="line"/>
      <point x="290" y="471" type="line"/>
      <point x="119" y="471" type="line"/>
      <point x="95" y="382" type="line"/>
      <point x="254" y="382" type="line"/>
      <point x="214" y="277" type="line"/>
      <point x="116" y="277" type="line"/>
    </contour>
  </outline>
</glyph>
<glyph name="Uogonek" format="2">
  <advance width="614"/>
  <unicode hex="0172"/>
  <outline>
    <contour>
      <point x="84" y="-173" type="curve" smooth="yes"/>
      <point x="84" y="-212"/>
      <point x="108" y="-233"/>
      <point x="182" y="-236" type="curve" smooth="yes"/>
      <point x="255" y="-239" type="line"/>
      <point x="284" y="-165" type="line"/>
      <point x="226" y="-161" type="line" smooth="yes"/>
      <point x="192" y="-159"/>
      <point x="184" y="-153"/>
      <point x="184" y="-138" type="curve" smooth="yes"/>
      <point x="184" y="-119"/>
      <point x="190" y="-100"/>
      <point x="271" y="-15" type="curve"/>
      <point x="405" y="-15"/>
      <point x="488" y="51"/>
      <point x="533" y="206" type="curve" smooth="yes"/>
      <point x="662" y="655" type="line"/>
      <point x="550" y="655" type="line"/>
      <point x="423" y="215" type="line" smooth="yes"/>
      <point x="398" y="125"/>
      <point x="351" y="87"/>
      <point x="282" y="87" type="curve" smooth="yes"/>
      <point x="214" y="87"/>
      <point x="178" y="120"/>
      <point x="178" y="178" type="curve" smooth="yes"/>
      <point x="178" y="195"/>
      <point x="180" y="216"/>
      <point x="190" y="249" type="curve" smooth="yes"/>
      <point x="306" y="655" type="line"/>
      <point x="193" y="655" type="line"/>
      <point x="88" y="290" type="line" smooth="yes"/>
      <point x="72" y="237"/>
      <point x="64" y="200"/>
      <point x="64" y="167" type="curve" smooth="yes"/>
      <point x="64" y="64"/>
      <point x="118" y="4"/>
      <point x="214" y="-11" type="curve"/>
      <point x="103" y="-105"/>
      <point x="84" y="-138"/>
    </contour>
  </outline>
</glyph>
<glyph name="uogonek" format="2">
  <advance width="614"/>
  <unicode hex="0173"/>
  <outline>
    <contour>
      <point x="246" y="-168" type="curve" smooth="yes"/>
      <point x="246" y="-207"/>
      <point x="269" y="-228"/>
      <point x="343" y="-231" type="curve" smooth="yes"/>
      <point x="417" y="-234" type="line"/>
      <point x="446" y="-160" type="line"/>
      <point x="387" y="-156" type="line" smooth="yes"/>
      <point x="354" y="-154"/>
      <point x="345" y="-148"/>
      <point x="345" y="-133" type="curve" smooth="yes"/>
      <point x="345" y="-114"/>
      <point x="352" y="-93"/>
      <point x="441" y="0" type="curve"/>
      <point x="459" y="0" type="line"/>
      <point x="594" y="471" type="line"/>
      <point x="482" y="471" type="line"/>
      <point x="414" y="232" type="line"/>
      <point x="278" y="110"/>
      <point x="247" y="96"/>
      <point x="211" y="96" type="curve" smooth="yes"/>
      <point x="186" y="96"/>
      <point x="171" y="108"/>
      <point x="171" y="132" type="curve" smooth="yes"/>
      <point x="171" y="141"/>
      <point x="172" y="153"/>
      <point x="179" y="174" type="curve" smooth="yes"/>
      <point x="264" y="471" type="line"/>
      <point x="152" y="471" type="line"/>
      <point x="62" y="160" type="line" smooth="yes"/>
      <point x="53" y="127"/>
      <point x="49" y="105"/>
      <point x="49" y="87" type="curve" smooth="yes"/>
      <point x="49" y="27"/>
      <point x="89" y="-9"/>
      <point x="157" y="-9" type="curve" smooth="yes"/>
      <point x="220" y="-9"/>
      <point x="266" y="11"/>
      <point x="386" y="116" type="curve"/>
      <point x="359" y="0" type="line"/>
      <point x="383" y="0" type="line"/>
      <point x="265" y="-99"/>
      <point x="246" y="-132"/>
    </contour>
  </outline>
</glyph>
<glyph name="Schwa" format="2">
  <advance width="614"/>
  <unicode hex="018F"/>
  <outline>
    <contour>
      <point x="580" y="288" type="curve" smooth="yes"/>
      <point x="599" y="355"/>
      <point x="608" y="412"/>
      <point x="608" y="461" type="curve" smooth="yes"/>
      <point x="608" y="596"/>
      <point x="528" y="665"/>
      <point x="372" y="665" type="curve" smooth="yes"/>
      <point x="333" y="665"/>
      <point x="313" y="662"/>
      <point x="269" y="654" type="curve"/>
      <point x="234" y="560" type="line"/>
      <point x="281" y="568"/>
      <point x="320" y="571"/>
      <point x="350" y="571" type="curve" smooth="yes"/>
      <point x="444" y="571"/>
      <point x="492" y="544"/>
      <point x="492" y="458" type="curve" smooth="yes"/>
      <point x="492" y="437"/>
      <point x="489" y="411"/>
      <point x="483" y="381" type="curve"/>
      <point x="104" y="381" type="line"/>
      <point x="70" y="296"/>
      <point x="52" y="216"/>
      <point x="52" y="152" type="curve" smooth="yes"/>
      <point x="52" y="40"/>
      <point x="128" y="-15"/>
      <point x="247" y="-15" type="curve" smooth="yes"/>
      <point x="409" y="-15"/>
      <point x="519" y="78"/>
    </contour>
    <contour>
      <point x="165" y="168" type="curve" smooth="yes"/>
      <point x="165" y="204"/>
      <point x="173" y="248"/>
      <point x="188" y="293" type="curve"/>
      <point x="459" y="293" type="line"/>
      <point x="405" y="123"/>
      <point x="341" y="79"/>
      <point x="254" y="79" type="curve" smooth="yes"/>
      <point x="198" y="79"/>
      <point x="165" y="102"/>
    </contour>
  </outline>
</glyph>
<glyph name="Ohorn" format="2">
  <advance width="614"/>
  <unicode hex="01A0"/>
  <anchor x="435" y="696" name="aboveUC"/>
  <anchor x="425" y="661" name="aboveUCx"/>
  <anchor x="245" y="-40" name="below"/>
  <outline>
    <contour>
      <point x="405" y="655" type="line" smooth="yes"/>
      <point x="255" y="655"/>
      <point x="134" y="546"/>
      <point x="80" y="357" type="curve" smooth="yes"/>
      <point x="60" y="285"/>
      <point x="57" y="243"/>
      <point x="57" y="192" type="curve" smooth="yes"/>
      <point x="57" y="55"/>
      <point x="134" y="-15"/>
      <point x="266" y="-15" type="curve" smooth="yes"/>
      <point x="417" y="-15"/>
      <point x="538" y="95"/>
      <point x="593" y="284" type="curve" smooth="yes"/>
      <point x="613" y="357"/>
      <point x="617" y="388"/>
      <point x="617" y="440" type="curve" smooth="yes"/>
      <point x="617" y="511"/>
      <point x="591" y="556"/>
      <point x="544" y="589" type="curve" smooth="yes"/>
      <point x="549" y="594" type="line"/>
      <point x="564" y="591"/>
      <point x="577" y="590"/>
      <point x="588" y="590" type="curve" smooth="yes"/>
      <point x="695" y="590"/>
      <point x="731" y="630"/>
      <point x="771" y="768" type="curve"/>
      <point x="669" y="768" type="line"/>
      <point x="640" y="678"/>
      <point x="617" y="655"/>
      <point x="527" y="655" type="curve" smooth="yes"/>
    </contour>
    <contour>
      <point x="273" y="79" type="curve" smooth="yes"/>
      <point x="211" y="79"/>
      <point x="172" y="114"/>
      <point x="172" y="195" type="curve" smooth="yes"/>
      <point x="172" y="238"/>
      <point x="180" y="288"/>
      <point x="196" y="346" type="curve" smooth="yes"/>
      <point x="238" y="490"/>
      <point x="313" y="561"/>
      <point x="398" y="561" type="curve" smooth="yes"/>
      <point x="462" y="561"/>
      <point x="502" y="527"/>
      <point x="502" y="450" type="curve" smooth="yes"/>
      <point x="502" y="405"/>
      <point x="495" y="356"/>
      <point x="477" y="295" type="curve" smooth="yes"/>
      <point x="435" y="149"/>
      <point x="359" y="79"/>
    </contour>
  </outline>
</glyph>
<glyph name="ohorn" format="2">
  <advance width="614"/>
  <unicode hex="01A1"/>
  <anchor x="372" y="507" name="aboveLC"/>
  <anchor x="362" y="472" name="aboveLCx"/>
  <anchor x="243" y="-40" name="below"/>
  <outline>
    <contour>
      <point x="357" y="471" type="line" smooth="yes"/>
      <point x="180" y="471"/>
      <point x="46" y="340"/>
      <point x="46" y="182" type="curve" smooth="yes"/>
      <point x="46" y="66"/>
      <point x="131" y="-15"/>
      <point x="258" y="-15" type="curve" smooth="yes"/>
      <point x="434" y="-15"/>
      <point x="568" y="109"/>
      <point x="568" y="268" type="curve" smooth="yes"/>
      <point x="568" y="326"/>
      <point x="535" y="373"/>
      <point x="490" y="405" type="curve"/>
      <point x="494" y="411" type="line"/>
      <point x="509" y="408"/>
      <point x="523" y="406"/>
      <point x="537" y="406" type="curve" smooth="yes"/>
      <point x="633" y="406"/>
      <point x="668" y="444"/>
      <point x="710" y="583" type="curve"/>
      <point x="606" y="583" type="line"/>
      <point x="577" y="486"/>
      <point x="561" y="471"/>
      <point x="491" y="471" type="curve" smooth="yes"/>
    </contour>
    <contour>
      <point x="276" y="77" type="curve" smooth="yes"/>
      <point x="208" y="77"/>
      <point x="162" y="122"/>
      <point x="162" y="187" type="curve" smooth="yes"/>
      <point x="162" y="286"/>
      <point x="240" y="378"/>
      <point x="339" y="378" type="curve" smooth="yes"/>
      <point x="406" y="378"/>
      <point x="452" y="334"/>
      <point x="452" y="269" type="curve" smooth="yes"/>
      <point x="452" y="171"/>
      <point x="374" y="77"/>
    </contour>
  </outline>
</glyph>
<glyph name="Uhorn" format="2">
  <advance width="614"/>
  <unicode hex="01AF"/>
  <outline>
    <contour>
      <point x="423" y="215" type="line" smooth="yes"/>
      <point x="398" y="125"/>
      <point x="351" y="87"/>
      <point x="282" y="87" type="curve" smooth="yes"/>
      <point x="214" y="87"/>
      <point x="178" y="120"/>
      <point x="178" y="178" type="curve" smooth="yes"/>
      <point x="178" y="195"/>
      <point x="181" y="216"/>
      <point x="190" y="249" type="curve" smooth="yes"/>
      <point x="306" y="655" type="line"/>
      <point x="193" y="655" type="line"/>
      <point x="88" y="290" type="line" smooth="yes"/>
      <point x="72" y="237"/>
      <point x="64" y="200"/>
      <point x="64" y="167" type="curve" smooth="yes"/>
      <point x="64" y="46"/>
      <point x="139" y="-15"/>
      <point x="268" y="-15" type="curve" smooth="yes"/>
      <point x="405" y="-15"/>
      <point x="488" y="51"/>
      <point x="533" y="206" type="curve" smooth="yes"/>
      <point x="643" y="588" type="line"/>
      <point x="747" y="588"/>
      <point x="792" y="625"/>
      <point x="833" y="768" type="curve"/>
      <point x="731" y="768" type="line"/>
      <point x="701" y="674"/>
      <point x="686" y="655"/>
      <point x="596" y="655" type="curve" smooth="yes"/>
      <point x="550" y="655" type="line"/>
    </contour>
  </outline>
</glyph>
<glyph name="uhorn" format="2">
  <advance width="614"/>
  <unicode hex="01B0"/>
  <outline>
    <contour>
      <point x="359" y="0" type="line"/>
      <point x="459" y="0" type="line"/>
      <point x="575" y="405" type="line"/>
      <point x="663" y="408"/>
      <point x="717" y="452"/>
      <point x="756" y="583" type="curve"/>
      <point x="655" y="583" type="line"/>
      <point x="625" y="495"/>
      <point x="600" y="471"/>
      <point x="522" y="471" type="curve" smooth="yes"/>
      <point x="482" y="471" type="line"/>
      <point x="414" y="232" type="line"/>
      <point x="278" y="110"/>
      <point x="247" y="96"/>
      <point x="211" y="96" type="curve" smooth="yes"/>
      <point x="186" y="96"/>
      <point x="171" y="108"/>
      <point x="171" y="132" type="curve" smooth="yes"/>
      <point x="171" y="141"/>
      <point x="172" y="153"/>
      <point x="179" y="174" type="curve" smooth="yes"/>
      <point x="264" y="471" type="line"/>
      <point x="152" y="471" type="line"/>
      <point x="62" y="160" type="line" smooth="yes"/>
      <point x="53" y="127"/>
      <point x="49" y="105"/>
      <point x="49" y="87" type="curve" smooth="yes"/>
      <point x="49" y="27"/>
      <point x="89" y="-9"/>
      <point x="157" y="-9" type="curve" smooth="yes"/>
      <point x="220" y="-9"/>
      <point x="266" y="11"/>
      <point x="386" y="116" type="curve"/>
    </contour>
  </outline>
</glyph>
<glyph name="Oogonek" format="2">
  <advance width="614"/>
  <unicode hex="01EA"/>
  <outline>
    <contour>
      <point x="86" y="-173" type="curve" smooth="yes"/>
      <point x="86" y="-212"/>
      <point x="110" y="-233"/>
      <point x="184" y="-236" type="curve" smooth="yes"/>
      <point x="257" y="-239" type="line"/>
      <point x="286" y="-165" type="line"/>
      <point x="228" y="-161" type="line" smooth="yes"/>
      <point x="194" y="-159"/>
      <point x="186" y="-153"/>
      <point x="186" y="-138" type="curve" smooth="yes"/>
      <point x="186" y="-119"/>
      <point x="192" y="-100"/>
      <point x="273" y="-15" type="curve"/>
      <point x="421" y="-12"/>
      <point x="538" y="101"/>
      <point x="593" y="291" type="curve" smooth="yes"/>
      <point x="613" y="364"/>
      <point x="617" y="406"/>
      <point x="617" y="458" type="curve" smooth="yes"/>
      <point x="617" y="599"/>
      <point x="540" y="670"/>
      <point x="407" y="670" type="curve" smooth="yes"/>
      <point x="256" y="670"/>
      <point x="136" y="557"/>
      <point x="80" y="364" type="curve" smooth="yes"/>
      <point x="60" y="291"/>
      <point x="57" y="249"/>
      <point x="57" y="197" type="curve" smooth="yes"/>
      <point x="57" y="75"/>
      <point x="115" y="5"/>
      <point x="216" y="-11" type="curve"/>
      <point x="105" y="-105"/>
      <point x="86" y="-138"/>
    </contour>
    <contour>
      <point x="273" y="79" type="curve" smooth="yes"/>
      <point x="211" y="79"/>
      <point x="172" y="116"/>
      <point x="172" y="200" type="curve" smooth="yes"/>
      <point x="172" y="244"/>
      <point x="179" y="294"/>
      <point x="196" y="353" type="curve" smooth="yes"/>
      <point x="240" y="503"/>
      <point x="314" y="576"/>
      <point x="400" y="576" type="curve" smooth="yes"/>
      <point x="462" y="576"/>
      <point x="502" y="539"/>
      <point x="502" y="455" type="curve" smooth="yes"/>
      <point x="502" y="411"/>
      <point x="494" y="361"/>
      <point x="477" y="302" type="curve" smooth="yes"/>
      <point x="434" y="152"/>
      <point x="359" y="79"/>
    </contour>
  </outline>
</glyph>
<glyph name="oogonek" format="2">
  <advance width="614"/>
  <unicode hex="01EB"/>
  <outline>
    <contour>
      <point x="85" y="-173" type="curve" smooth="yes"/>
      <point x="85" y="-212"/>
      <point x="108" y="-233"/>
      <point x="182" y="-236" type="curve" smooth="yes"/>
      <point x="255" y="-239" type="line"/>
      <point x="284" y="-165" type="line"/>
      <point x="226" y="-161" type="line" smooth="yes"/>
      <point x="192" y="-159"/>
      <point x="184" y="-153"/>
      <point x="184" y="-138" type="curve" smooth="yes"/>
      <point x="184" y="-119"/>
      <point x="190" y="-100"/>
      <point x="271" y="-15" type="curve"/>
      <point x="441" y="-8"/>
      <point x="568" y="123"/>
      <point x="568" y="281" type="curve" smooth="yes"/>
      <point x="568" y="402"/>
      <point x="483" y="486"/>
      <point x="356" y="486" type="curve" smooth="yes"/>
      <point x="180" y="486"/>
      <point x="46" y="352"/>
      <point x="46" y="189" type="curve" smooth="yes"/>
      <point x="46" y="83"/>
      <point x="112" y="6"/>
      <point x="214" y="-11" type="curve"/>
      <point x="103" y="-105"/>
      <point x="85" y="-138"/>
    </contour>
    <contour>
      <point x="276" y="77" type="curve" smooth="yes"/>
      <point x="208" y="77"/>
      <point x="162" y="125"/>
      <point x="162" y="194" type="curve" smooth="yes"/>
      <point x="162" y="297"/>
      <point x="240" y="393"/>
      <point x="338" y="393" type="curve" smooth="yes"/>
      <point x="406" y="393"/>
      <point x="452" y="346"/>
      <point x="452" y="276" type="curve" smooth="yes"/>
      <point x="452" y="174"/>
      <point x="374" y="77"/>
    </contour>
  </outline>
</glyph>
<glyph name="dotlessj" format="2">
  <advance width="614"/>
  <unicode hex="0237"/>
  <outline>
    <contour>
      <point x="385" y="26" type="curve" smooth="yes"/>
      <point x="512" y="471" type="line"/>
      <point x="185" y="471" type="line"/>
      <point x="158" y="376" type="line"/>
      <point x="373" y="376" type="line"/>
      <point x="276" y="38" type="line" smooth="yes"/>
      <point x="240" y="-90"/>
      <point x="200" y="-129"/>
      <point x="58" y="-136" type="curve" smooth="yes"/>
      <point x="-30" y="-141" type="line"/>
      <point x="-30" y="-237" type="line"/>
      <point x="55" y="-233" type="line" smooth="yes"/>
      <point x="267" y="-221"/>
      <point x="328" y="-173"/>
    </contour>
  </outline>
</glyph>
<glyph name="schwa" format="2">
  <advance width="614"/>
  <unicode hex="0259"/>
  <outline>
    <contour>
      <point x="556" y="303" type="curve" smooth="yes"/>
      <point x="556" y="430"/>
      <point x="494" y="482"/>
      <point x="217" y="482" type="curve"/>
      <point x="190" y="391" type="line"/>
      <point x="397" y="391"/>
      <point x="441" y="374"/>
      <point x="443" y="295" type="curve" smooth="yes"/>
      <point x="443" y="295"/>
      <point x="443" y="295"/>
      <point x="443" y="295" type="curve"/>
      <point x="282" y="281" type="line" smooth="yes"/>
      <point x="94" y="265"/>
      <point x="37" y="208"/>
      <point x="37" y="120" type="curve" smooth="yes"/>
      <point x="37" y="40"/>
      <point x="100" y="-14"/>
      <point x="216" y="-14" type="curve" smooth="yes"/>
      <point x="411" y="-14"/>
      <point x="556" y="149"/>
    </contour>
    <contour>
      <point x="227" y="75" type="curve" smooth="yes"/>
      <point x="176" y="75"/>
      <point x="148" y="98"/>
      <point x="148" y="129" type="curve" smooth="yes"/>
      <point x="148" y="166"/>
      <point x="176" y="196"/>
      <point x="283" y="207" type="curve" smooth="yes"/>
      <point x="432" y="223" type="line"/>
      <point x="402" y="138"/>
      <point x="318" y="75"/>
    </contour>
  </outline>
</glyph>
<glyph name="ringhalfright" format="2">
  <advance width="614"/>
  <unicode hex="02BE"/>
  <outline>
    <contour>
      <point x="203" y="315" type="line"/>
      <point x="339" y="315"/>
      <point x="422" y="343"/>
      <point x="474" y="396" type="curve" smooth="yes"/>
      <point x="516" y="438"/>
      <point x="536" y="494"/>
      <point x="536" y="559" type="curve" smooth="yes"/>
      <point x="536" y="656"/>
      <point x="474" y="725"/>
      <point x="321" y="725" type="curve"/>
      <point x="296" y="639" type="line"/>
      <point x="397" y="639"/>
      <point x="432" y="607"/>
      <point x="432" y="558" type="curve" smooth="yes"/>
      <point x="432" y="469"/>
      <point x="388" y="401"/>
      <point x="228" y="401" type="curve"/>
    </contour>
  </outline>
</glyph>
<glyph name="ringhalfleft" format="2">
  <advance width="614"/>
  <unicode hex="02BF"/>
  <outline>
    <contour>
      <point x="559" y="725" type="line"/>
      <point x="423" y="725"/>
      <point x="340" y="697"/>
      <point x="287" y="644" type="curve" smooth="yes"/>
      <point x="245" y="602"/>
      <point x="226" y="546"/>
      <point x="226" y="481" type="curve" smooth="yes"/>
      <point x="226" y="384"/>
      <point x="288" y="315"/>
      <point x="441" y="315" type="curve"/>
      <point x="466" y="401" type="line"/>
      <point x="365" y="401"/>
      <point x="330" y="433"/>
      <point x="330" y="482" type="curve" smooth="yes"/>
      <point x="330" y="571"/>
      <point x="374" y="639"/>
      <point x="534" y="639" type="curve"/>
    </contour>
  </outline>
</glyph>
<glyph name="gravecmb" format="2">
  <unicode hex="0300"/>
  <anchor x="77" y="502" name="_aboveLC"/>
  <anchor x="68" y="472" name="_aboveLCx"/>
  <outline>
    <contour>
      <point x="190" y="598" type="line"/>
      <point x="12" y="746" type="line"/>
      <point x="-43" y="678" type="line"/>
      <point x="148" y="546" type="line"/>
    </contour>
  </outline>
</glyph>
<glyph name="acutecmb" format="2">
  <unicode hex="0301"/>
  <anchor x="77" y="502" name="_aboveLC"/>
  <anchor x="68" y="472" name="_aboveLCx"/>
  <outline>
    <contour>
      <point x="2" y="605" type="line"/>
      <point x="31" y="547" type="line"/>
      <point x="298" y="678" type="line"/>
      <point x="264" y="750" type="line"/>
    </contour>
  </outline>
</glyph>
<glyph name="circumflexcmb" format="2">
  <unicode hex="0302"/>
  <anchor x="77" y="502" name="_aboveLC"/>
  <anchor x="68" y="472" name="_aboveLCx"/>
  <outline>
    <contour>
      <point x="-88" y="594" type="line"/>
      <point x="-56" y="547" type="line"/>
      <point x="124" y="666" type="line"/>
      <point x="235" y="547" type="line"/>
      <point x="284" y="583" type="line"/>
      <point x="164" y="752" type="line"/>
      <point x="112" y="752" type="line"/>
    </contour>
  </outline>
</glyph>
<glyph name="tildecmb" format="2">
  <unicode hex="0303"/>
  <anchor x="77" y="502" name="_aboveLC"/>
  <anchor x="68" y="472" name="_aboveLCx"/>
  <outline>
    <contour>
      <point x="90" y="610" type="curve" smooth="yes"/>
      <point x="129" y="557"/>
      <point x="149" y="547"/>
      <point x="172" y="547" type="curve" smooth="yes"/>
      <point x="209" y="547"/>
      <point x="242" y="562"/>
      <point x="336" y="713" type="curve"/>
      <point x="276" y="746" type="line"/>
      <point x="211" y="644"/>
      <point x="197" y="632"/>
      <point x="184" y="632" type="curve" smooth="yes"/>
      <point x="174" y="632"/>
      <point x="168" y="638"/>
      <point x="137" y="679" type="curve" smooth="yes"/>
      <point x="98" y="732"/>
      <point x="78" y="743"/>
      <point x="55" y="743" type="curve" smooth="yes"/>
      <point x="18" y="743"/>
      <point x="-15" y="728"/>
      <point x="-109" y="577" type="curve"/>
      <point x="-49" y="543" type="line"/>
      <point x="15" y="645"/>
      <point x="29" y="657"/>
      <point x="43" y="657" type="curve" smooth="yes"/>
      <point x="53" y="657"/>
      <point x="59" y="651"/>
    </contour>
  </outline>
</glyph>
<glyph name="macroncmb" format="2">
  <unicode hex="0304"/>
  <anchor x="77" y="502" name="_aboveLC"/>
  <anchor x="68" y="472" name="_aboveLCx"/>
  <outline>
    <contour>
      <point x="-67" y="587" type="line"/>
      <point x="269" y="587" type="line"/>
      <point x="292" y="666" type="line"/>
      <point x="-44" y="666" type="line"/>
    </contour>
  </outline>
</glyph>
<glyph name="brevecmb" format="2">
  <unicode hex="0306"/>
  <anchor x="77" y="502" name="_aboveLC"/>
  <anchor x="68" y="472" name="_aboveLCx"/>
  <outline>
    <contour>
      <point x="104" y="624" type="curve" smooth="yes"/>
      <point x="52" y="624"/>
      <point x="21" y="656"/>
      <point x="15" y="745" type="curve"/>
      <point x="-50" y="727" type="line"/>
      <point x="-50" y="597"/>
      <point x="11" y="547"/>
      <point x="98" y="547" type="curve" smooth="yes"/>
      <point x="186" y="547"/>
      <point x="259" y="591"/>
      <point x="330" y="718" type="curve"/>
      <point x="261" y="745" type="line"/>
      <point x="206" y="656"/>
      <point x="156" y="624"/>
    </contour>
  </outline>
</glyph>
<glyph name="dotaccentcmb" format="2">
  <unicode hex="0307"/>
  <anchor x="77" y="502" name="_aboveLC"/>
  <anchor x="68" y="472" name="_aboveLCx"/>
  <outline>
    <contour>
      <point x="103" y="567" type="curve" smooth="yes"/>
      <point x="154" y="567"/>
      <point x="188" y="604"/>
      <point x="188" y="652" type="curve" smooth="yes"/>
      <point x="188" y="683"/>
      <point x="166" y="699"/>
      <point x="127" y="699" type="curve" smooth="yes"/>
      <point x="75" y="699"/>
      <point x="42" y="657"/>
      <point x="42" y="613" type="curve" smooth="yes"/>
      <point x="42" y="579"/>
      <point x="65" y="567"/>
    </contour>
  </outline>
</glyph>
<glyph name="dieresiscmb" format="2">
  <unicode hex="0308"/>
  <anchor x="77" y="502" name="_aboveLC"/>
  <anchor x="68" y="472" name="_aboveLCx"/>
  <outline>
    <contour>
      <point x="-14" y="567" type="curve" smooth="yes"/>
      <point x="33" y="567"/>
      <point x="66" y="601"/>
      <point x="66" y="647" type="curve" smooth="yes"/>
      <point x="66" y="679"/>
      <point x="42" y="692"/>
      <point x="9" y="692" type="curve" smooth="yes"/>
      <point x="-43" y="692"/>
      <point x="-72" y="649"/>
      <point x="-72" y="610" type="curve" smooth="yes"/>
      <point x="-72" y="581"/>
      <point x="-53" y="567"/>
    </contour>
    <contour>
      <point x="218" y="567" type="curve" smooth="yes"/>
      <point x="266" y="567"/>
      <point x="299" y="602"/>
      <point x="299" y="647" type="curve" smooth="yes"/>
      <point x="299" y="678"/>
      <point x="275" y="692"/>
      <point x="242" y="692" type="curve" smooth="yes"/>
      <point x="196" y="692"/>
      <point x="160" y="654"/>
      <point x="160" y="610" type="curve" smooth="yes"/>
      <point x="160" y="580"/>
      <point x="183" y="567"/>
    </contour>
  </outline>
</glyph>
<glyph name="hookcmb" format="2">
  <unicode hex="0309"/>
  <anchor x="77" y="502" name="_aboveLC"/>
  <anchor x="68" y="472" name="_aboveLCx"/>
  <outline>
    <contour>
      <point x="-7" y="547" type="line"/>
      <point x="192" y="567"/>
      <point x="241" y="619"/>
      <point x="241" y="676" type="curve" smooth="yes"/>
      <point x="241" y="720"/>
      <point x="200" y="756"/>
      <point x="69" y="773" type="curve"/>
      <point x="12" y="722" type="line"/>
      <point x="12" y="719" type="line"/>
      <point x="119" y="703"/>
      <point x="141" y="687"/>
      <point x="141" y="669" type="curve" smooth="yes"/>
      <point x="141" y="648"/>
      <point x="122" y="624"/>
      <point x="-13" y="601" type="curve"/>
      <point x="-13" y="599" type="line"/>
    </contour>
  </outline>
</glyph>
<glyph name="ringcmb" format="2">
  <unicode hex="030A"/>
  <anchor x="77" y="502" name="_aboveLC"/>
  <anchor x="68" y="472" name="_aboveLCx"/>
  <outline>
    <contour>
      <point x="149" y="807" type="curve" smooth="yes"/>
      <point x="40" y="807"/>
      <point x="-28" y="736"/>
      <point x="-28" y="654" type="curve" smooth="yes"/>
      <point x="-28" y="583"/>
      <point x="32" y="547"/>
      <point x="105" y="547" type="curve" smooth="yes"/>
      <point x="215" y="547"/>
      <point x="283" y="618"/>
      <point x="283" y="700" type="curve" smooth="yes"/>
      <point x="283" y="771"/>
      <point x="223" y="807"/>
    </contour>
    <contour>
      <point x="120" y="613" type="curve"/>
      <point x="75" y="613"/>
      <point x="45" y="626"/>
      <point x="45" y="661" type="curve" smooth="yes"/>
      <point x="45" y="705"/>
      <point x="79" y="741"/>
      <point x="134" y="741" type="curve" smooth="yes"/>
      <point x="180" y="741"/>
      <point x="210" y="727"/>
      <point x="210" y="693" type="curve" smooth="yes"/>
      <point x="210" y="649"/>
      <point x="174" y="613"/>
    </contour>
  </outline>
</glyph>
<glyph name="hungarumlautcmb" format="2">
  <unicode hex="030B"/>
  <anchor x="77" y="502" name="_aboveLC"/>
  <anchor x="68" y="472" name="_aboveLCx"/>
  <outline>
    <contour>
      <point x="-89" y="590" type="line"/>
      <point x="-49" y="547" type="line"/>
      <point x="131" y="695" type="line"/>
      <point x="76" y="749" type="line"/>
    </contour>
    <contour>
      <point x="147" y="590" type="line"/>
      <point x="188" y="547" type="line"/>
      <point x="367" y="695" type="line"/>
      <point x="313" y="749" type="line"/>
    </contour>
  </outline>
</glyph>
<glyph name="caroncmb" format="2">
  <unicode hex="030C"/>
  <anchor x="77" y="502" name="_aboveLC"/>
  <anchor x="68" y="472" name="_aboveLCx"/>
  <outline>
    <contour>
      <point x="-55" y="715" type="line"/>
      <point x="65" y="547" type="line"/>
      <point x="117" y="547" type="line"/>
      <point x="317" y="704" type="line"/>
      <point x="285" y="752" type="line"/>
      <point x="105" y="632" type="line"/>
      <point x="-6" y="752" type="line"/>
    </contour>
  </outline>
</glyph>
<glyph name="commaturnedabovecmb" format="2">
  <unicode hex="0312"/>
  <anchor x="77" y="502" name="_aboveLC"/>
  <anchor x="68" y="472" name="_aboveLCx"/>
  <outline>
    <contour>
      <point x="247" y="773" type="line"/>
      <point x="48" y="753"/>
      <point x="-1" y="701"/>
      <point x="-1" y="644" type="curve" smooth="yes"/>
      <point x="-1" y="600"/>
      <point x="40" y="564"/>
      <point x="171" y="547" type="curve"/>
      <point x="228" y="598" type="line"/>
      <point x="228" y="600" type="line"/>
      <point x="121" y="616"/>
      <point x="99" y="633"/>
      <point x="99" y="651" type="curve" smooth="yes"/>
      <point x="99" y="672"/>
      <point x="117" y="695"/>
      <point x="253" y="719" type="curve"/>
      <point x="253" y="720" type="line"/>
    </contour>
  </outline>
</glyph>
<glyph name="dotbelowcmb" format="2">
  <unicode hex="0323"/>
  <anchor x="-77" y="-35" name="_below"/>
  <anchor x="-69" y="-5" name="_belowx"/>
  <outline>
    <contour>
      <point x="-125" y="-228" type="curve" smooth="yes"/>
      <point x="-74" y="-228"/>
      <point x="-40" y="-191"/>
      <point x="-40" y="-143" type="curve" smooth="yes"/>
      <point x="-40" y="-112"/>
      <point x="-63" y="-96"/>
      <point x="-102" y="-96" type="curve" smooth="yes"/>
      <point x="-153" y="-96"/>
      <point x="-187" y="-138"/>
      <point x="-187" y="-182" type="curve" smooth="yes"/>
      <point x="-187" y="-216"/>
      <point x="-163" y="-228"/>
    </contour>
  </outline>
</glyph>
<glyph name="dieresisbelowcmb" format="2">
  <unicode hex="0324"/>
  <outline>
    <contour>
      <point x="-239" y="-221" type="curve" smooth="yes"/>
      <point x="-191" y="-221"/>
      <point x="-158" y="-186"/>
      <point x="-158" y="-141" type="curve" smooth="yes"/>
      <point x="-158" y="-109"/>
      <point x="-183" y="-96"/>
      <point x="-216" y="-96" type="curve" smooth="yes"/>
      <point x="-267" y="-96"/>
      <point x="-297" y="-139"/>
      <point x="-297" y="-178" type="curve" smooth="yes"/>
      <point x="-297" y="-207"/>
      <point x="-278" y="-221"/>
    </contour>
    <contour>
      <point x="-6" y="-221" type="curve" smooth="yes"/>
      <point x="42" y="-221"/>
      <point x="74" y="-186"/>
      <point x="74" y="-141" type="curve" smooth="yes"/>
      <point x="74" y="-110"/>
      <point x="50" y="-96"/>
      <point x="17" y="-96" type="curve" smooth="yes"/>
      <point x="-29" y="-96"/>
      <point x="-64" y="-133"/>
      <point x="-64" y="-178" type="curve" smooth="yes"/>
      <point x="-64" y="-208"/>
      <point x="-41" y="-221"/>
    </contour>
  </outline>
</glyph>
<glyph name="uni0326" format="2">
  <unicode hex="0326"/>
  <anchor x="-77" y="-35" name="_below"/>
  <anchor x="-69" y="-5" name="_belowx"/>
  <outline>
    <contour>
      <point x="-248" y="-302" type="line"/>
      <point x="-49" y="-282"/>
      <point x="0" y="-229"/>
      <point x="0" y="-173" type="curve" smooth="yes"/>
      <point x="0" y="-128"/>
      <point x="-42" y="-92"/>
      <point x="-173" y="-75" type="curve"/>
      <point x="-229" y="-126" type="line"/>
      <point x="-229" y="-129" type="line"/>
      <point x="-123" y="-145"/>
      <point x="-101" y="-161"/>
      <point x="-101" y="-179" type="curve" smooth="yes"/>
      <point x="-101" y="-200"/>
      <point x="-119" y="-224"/>
      <point x="-254" y="-247" type="curve"/>
      <point x="-255" y="-249" type="line"/>
    </contour>
  </outline>
</glyph>
<glyph name="cedillacmb" format="2">
  <unicode hex="0327"/>
  <anchor x="-70" y="-10" name="_belowcedilla"/>
  <outline>
    <contour>
      <point x="-83" y="21" type="line"/>
      <point x="-159" y="-102" type="line"/>
      <point x="-156" y="-112" type="line"/>
      <point x="-58" y="-119"/>
      <point x="-32" y="-130"/>
      <point x="-32" y="-150" type="curve" smooth="yes"/>
      <point x="-32" y="-177"/>
      <point x="-49" y="-190"/>
      <point x="-241" y="-207" type="curve"/>
      <point x="-240" y="-265" type="line"/>
      <point x="26" y="-242"/>
      <point x="51" y="-202"/>
      <point x="51" y="-139" type="curve" smooth="yes"/>
      <point x="51" y="-99"/>
      <point x="25" y="-72"/>
      <point x="-76" y="-59" type="curve"/>
      <point x="-28" y="21" type="line"/>
    </contour>
  </outline>
</glyph>
<glyph name="ogonekcmb" format="2">
  <unicode hex="0328"/>
  <anchor x="-70" y="-10" name="_belowogonek"/>
  <outline>
    <contour>
      <point x="-231" y="-168" type="curve" smooth="yes"/>
      <point x="-231" y="-207"/>
      <point x="-207" y="-228"/>
      <point x="-133" y="-231" type="curve" smooth="yes"/>
      <point x="-60" y="-234" type="line"/>
      <point x="-31" y="-160" type="line"/>
      <point x="-89" y="-156" type="line" smooth="yes"/>
      <point x="-123" y="-154"/>
      <point x="-131" y="-148"/>
      <point x="-131" y="-133" type="curve" smooth="yes"/>
      <point x="-131" y="-113"/>
      <point x="-124" y="-92"/>
      <point x="-26" y="9" type="curve"/>
      <point x="-60" y="28" type="line"/>
      <point x="-208" y="-93"/>
      <point x="-231" y="-129"/>
    </contour>
  </outline>
</glyph>
<glyph name="circumflexbelowcmb" format="2">
  <unicode hex="032D"/>
  <anchor x="-77" y="-35" name="_below"/>
  <anchor x="-69" y="-5" name="_belowx"/>
  <outline>
    <contour>
      <point x="45" y="-244" type="line"/>
      <point x="-75" y="-76" type="line"/>
      <point x="-127" y="-76" type="line"/>
      <point x="-328" y="-234" type="line"/>
      <point x="-295" y="-281" type="line"/>
      <point x="-116" y="-161" type="line"/>
      <point x="-4" y="-281" type="line"/>
    </contour>
  </outline>
</glyph>
<glyph name="brevebelowcmb" format="2">
  <unicode hex="032E"/>
  <anchor x="-77" y="-35" name="_below"/>
  <anchor x="-69" y="-5" name="_belowx"/>
  <outline>
    <contour>
      <point x="-133" y="-197" type="curve" smooth="yes"/>
      <point x="-185" y="-197"/>
      <point x="-217" y="-166"/>
      <point x="-222" y="-76" type="curve"/>
      <point x="-288" y="-95" type="line"/>
      <point x="-288" y="-224"/>
      <point x="-226" y="-275"/>
      <point x="-139" y="-275" type="curve" smooth="yes"/>
      <point x="-52" y="-275"/>
      <point x="21" y="-231"/>
      <point x="92" y="-104" type="curve"/>
      <point x="24" y="-76" type="line"/>
      <point x="-32" y="-165"/>
      <point x="-82" y="-197"/>
    </contour>
  </outline>
</glyph>
<glyph name="bahtthai" format="2">
  <advance width="614"/>
  <unicode hex="0E3F"/>
  <outline>
    <contour>
      <point x="243" y="-142" type="line"/>
      <point x="284" y="0" type="line"/>
      <point x="485" y="4"/>
      <point x="556" y="90"/>
      <point x="556" y="196" type="curve" smooth="yes"/>
      <point x="556" y="263"/>
      <point x="513" y="313"/>
      <point x="431" y="331" type="curve"/>
      <point x="431" y="335" type="line"/>
      <point x="574" y="364"/>
      <point x="631" y="437"/>
      <point x="631" y="525" type="curve" smooth="yes"/>
      <point x="631" y="598"/>
      <point x="580" y="650"/>
      <point x="473" y="655" type="curve"/>
      <point x="514" y="796" type="line"/>
      <point x="436" y="796" type="line"/>
      <point x="394" y="655" type="line"/>
      <point x="206" y="655" type="line"/>
      <point x="18" y="0" type="line"/>
      <point x="206" y="0" type="line"/>
      <point x="165" y="-142" type="line"/>
    </contour>
    <contour>
      <point x="420" y="568" type="line" smooth="yes"/>
      <point x="482" y="568"/>
      <point x="510" y="544"/>
      <point x="510" y="501" type="curve" smooth="yes"/>
      <point x="510" y="439"/>
      <point x="458" y="386"/>
      <point x="334" y="379" type="curve" smooth="yes"/>
      <point x="236" y="374" type="line"/>
      <point x="292" y="568" type="line"/>
    </contour>
    <contour>
      <point x="313" y="291" type="line" smooth="yes"/>
      <point x="407" y="286"/>
      <point x="443" y="253"/>
      <point x="443" y="202" type="curve" smooth="yes"/>
      <point x="443" y="139"/>
      <point x="396" y="86"/>
      <point x="290" y="86" type="curve" smooth="yes"/>
      <point x="154" y="86" type="line"/>
      <point x="214" y="296" type="line"/>
    </contour>
  </outline>
</glyph>
<glyph name="Hcedilla" format="2">
  <advance width="614"/>
  <unicode hex="1E28"/>
  <outline>
    <contour>
      <point x="205" y="655" type="line"/>
      <point x="17" y="0" type="line"/>
      <point x="45" y="0" type="line"/>
      <point x="-19" y="-102" type="line"/>
      <point x="-16" y="-112" type="line"/>
      <point x="82" y="-119"/>
      <point x="108" y="-130"/>
      <point x="108" y="-150" type="curve" smooth="yes"/>
      <point x="108" y="-177"/>
      <point x="92" y="-190"/>
      <point x="-100" y="-207" type="curve"/>
      <point x="-100" y="-265" type="line"/>
      <point x="166" y="-242"/>
      <point x="192" y="-202"/>
      <point x="192" y="-139" type="curve" smooth="yes"/>
      <point x="192" y="-99"/>
      <point x="166" y="-72"/>
      <point x="65" y="-59" type="curve"/>
      <point x="100" y="0" type="line"/>
      <point x="130" y="0" type="line"/>
      <point x="211" y="283" type="line"/>
      <point x="431" y="283" type="line"/>
      <point x="350" y="0" type="line"/>
      <point x="462" y="0" type="line"/>
      <point x="650" y="655" type="line"/>
      <point x="538" y="655" type="line"/>
      <point x="458" y="377" type="line"/>
      <point x="238" y="377" type="line"/>
      <point x="317" y="655" type="line"/>
    </contour>
  </outline>
</glyph>
<glyph name="hcedilla" format="2">
  <advance width="614"/>
  <unicode hex="1E29"/>
  <outline>
    <contour>
      <point x="336" y="710" type="line"/>
      <point x="224" y="710" type="line"/>
      <point x="20" y="0" type="line"/>
      <point x="47" y="0" type="line"/>
      <point x="-16" y="-102" type="line"/>
      <point x="-13" y="-112" type="line"/>
      <point x="85" y="-119"/>
      <point x="111" y="-130"/>
      <point x="111" y="-150" type="curve" smooth="yes"/>
      <point x="111" y="-177"/>
      <point x="94" y="-190"/>
      <point x="-98" y="-207" type="curve"/>
      <point x="-97" y="-265" type="line"/>
      <point x="169" y="-242"/>
      <point x="194" y="-202"/>
      <point x="194" y="-139" type="curve" smooth="yes"/>
      <point x="194" y="-99"/>
      <point x="169" y="-72"/>
      <point x="67" y="-59" type="curve"/>
      <point x="102" y="0" type="line"/>
      <point x="133" y="0" type="line"/>
      <point x="201" y="238" type="line"/>
      <point x="337" y="360"/>
      <point x="368" y="375"/>
      <point x="403" y="375" type="curve" smooth="yes"/>
      <point x="428" y="375"/>
      <point x="444" y="362"/>
      <point x="444" y="338" type="curve" smooth="yes"/>
      <point x="444" y="328"/>
      <point x="442" y="317"/>
      <point x="436" y="297" type="curve" smooth="yes"/>
      <point x="351" y="0" type="line"/>
      <point x="463" y="0" type="line"/>
      <point x="553" y="311" type="line" smooth="yes"/>
      <point x="562" y="343"/>
      <point x="565" y="365"/>
      <point x="565" y="383" type="curve" smooth="yes"/>
      <point x="565" y="443"/>
      <point x="526" y="479"/>
      <point x="458" y="479" type="curve" smooth="yes"/>
      <point x="396" y="479"/>
      <point x="351" y="460"/>
      <point x="236" y="361" type="curve"/>
    </contour>
  </outline>
</glyph>
<glyph name="uni1E9E" format="2">
  <advance width="614"/>
  <unicode hex="1E9E"/>
  <outline>
    <contour>
      <point x="348" y="311" type="line"/>
      <point x="428" y="239"/>
      <point x="451" y="205"/>
      <point x="451" y="174" type="curve" smooth="yes"/>
      <point x="451" y="127"/>
      <point x="421" y="84"/>
      <point x="356" y="84" type="curve" smooth="yes"/>
      <point x="330" y="84"/>
      <point x="308" y="86"/>
      <point x="281" y="92" type="curve"/>
      <point x="258" y="3" type="line"/>
      <point x="285" y="-2"/>
      <point x="309" y="-6"/>
      <point x="346" y="-6" type="curve" smooth="yes"/>
      <point x="486" y="-6"/>
      <point x="562" y="71"/>
      <point x="562" y="175" type="curve" smooth="yes"/>
      <point x="561" y="222"/>
      <point x="542" y="261"/>
      <point x="463" y="334" type="curve"/>
      <point x="643" y="561" type="line"/>
      <point x="642" y="582" type="line"/>
      <point x="572" y="643"/>
      <point x="490" y="670"/>
      <point x="410" y="670" type="curve" smooth="yes"/>
      <point x="265" y="670"/>
      <point x="184" y="603"/>
      <point x="138" y="445" type="curve" smooth="yes"/>
      <point x="11" y="0" type="line"/>
      <point x="124" y="0" type="line"/>
      <point x="248" y="433" type="line" smooth="yes"/>
      <point x="277" y="533"/>
      <point x="333" y="576"/>
      <point x="412" y="576" type="curve" smooth="yes"/>
      <point x="449" y="576"/>
      <point x="480" y="569"/>
      <point x="518" y="547" type="curve"/>
      <point x="357" y="344" type="line"/>
    </contour>
  </outline>
</glyph>
<glyph name="endash" format="2">
  <advance width="614"/>
  <unicode hex="2013"/>
  <outline>
    <contour>
      <point x="108" y="333" type="line"/>
      <point x="77" y="223" type="line"/>
      <point x="531" y="223" type="line"/>
      <point x="562" y="333" type="line"/>
    </contour>
  </outline>
</glyph>
<glyph name="quoteleft" format="2">
  <advance width="614"/>
  <unicode hex="2018"/>
  <outline>
    <contour>
      <point x="601" y="710" type="line"/>
      <point x="496" y="710" type="line"/>
      <point x="356" y="624"/>
      <point x="286" y="543"/>
      <point x="229" y="410" type="curve"/>
      <point x="399" y="410" type="line"/>
      <point x="440" y="523"/>
      <point x="480" y="594"/>
      <point x="600" y="708" type="curve"/>
    </contour>
  </outline>
</glyph>
<glyph name="quoteright" format="2">
  <advance width="614"/>
  <unicode hex="2019"/>
  <outline>
    <contour>
      <point x="194" y="410" type="line"/>
      <point x="299" y="410" type="line"/>
      <point x="440" y="496"/>
      <point x="514" y="576"/>
      <point x="571" y="710" type="curve"/>
      <point x="402" y="710" type="line"/>
      <point x="360" y="595"/>
      <point x="316" y="527"/>
      <point x="194" y="412" type="curve"/>
    </contour>
  </outline>
</glyph>
